<mxfile host="Electron" agent="Mozilla/5.0 (Macintosh; Intel Mac OS X 10_15_7) AppleWebKit/537.36 (KHTML, like Gecko) draw.io/25.0.2 Chrome/128.0.6613.186 Electron/32.2.5 Safari/537.36" version="25.0.2">
  <diagram name="Page-1" id="aaaa8250-4180-3840-79b5-4cada1eebb92">
    <mxGraphModel dx="1703" dy="1934" grid="1" gridSize="10" guides="1" tooltips="1" connect="1" arrows="1" fold="1" page="1" pageScale="1" pageWidth="850" pageHeight="1100" background="none" math="0" shadow="0">
      <root>
        <mxCell id="0" />
        <mxCell id="1" parent="0" />
        <mxCell id="d5ac148becb70bc-7" value="" style="verticalLabelPosition=bottom;html=1;verticalAlign=top;strokeWidth=1;dashed=0;shape=mxgraph.aws3d.flatDoubleEdge;fillColor=#000000;aspect=fixed;rounded=1;shadow=0;comic=0;fontFamily=Verdana;fontSize=12;flipV=1;" parent="1" vertex="1">
          <mxGeometry x="960" y="620" width="345.1" height="196.78" as="geometry" />
        </mxCell>
        <mxCell id="1a8abee3a6cfdf20-5" value="" style="edgeStyle=isometricEdgeStyle;endArrow=none;html=1;labelBackgroundColor=none;strokeColor=#000000;strokeWidth=5;fontFamily=Verdana;fontSize=12;exitX=0.769;exitY=0.769;exitDx=0;exitDy=0;exitPerimeter=0;" parent="1" source="1a8abee3a6cfdf20-27" edge="1">
          <mxGeometry width="50" height="100" relative="1" as="geometry">
            <mxPoint x="1304.5" y="470" as="sourcePoint" />
            <mxPoint x="1632.5" y="410.05999999999995" as="targetPoint" />
            <Array as="points">
              <mxPoint x="1484.5" y="430" />
            </Array>
          </mxGeometry>
        </mxCell>
        <mxCell id="1a8abee3a6cfdf20-35" value="" style="verticalLabelPosition=bottom;html=1;verticalAlign=top;strokeWidth=1;dashed=0;shape=mxgraph.aws3d.arrowSE;fillColor=#000000;aspect=fixed;rounded=1;shadow=0;comic=0;fontFamily=Verdana;fontSize=12" parent="1" vertex="1">
          <mxGeometry x="890" y="270" width="186.79" height="108.14" as="geometry" />
        </mxCell>
        <mxCell id="d5ac148becb70bc-8" value="" style="verticalLabelPosition=bottom;html=1;verticalAlign=top;strokeWidth=1;dashed=0;shape=mxgraph.aws3d.dashedArrowlessEdge;aspect=fixed;rounded=1;shadow=0;comic=0;fontFamily=Verdana;fontSize=12" parent="1" vertex="1">
          <mxGeometry x="1470" y="200" width="596.66" height="340" as="geometry" />
        </mxCell>
        <mxCell id="d5ac148becb70bc-9" value="" style="verticalLabelPosition=bottom;html=1;verticalAlign=top;strokeWidth=1;dashed=0;shape=mxgraph.aws3d.dashedArrowlessEdge;aspect=fixed;rounded=1;shadow=0;comic=0;fontFamily=Verdana;fontSize=12" parent="1" vertex="1">
          <mxGeometry x="880" y="539" width="596.66" height="340" as="geometry" />
        </mxCell>
        <mxCell id="d5ac148becb70bc-10" value="" style="verticalLabelPosition=bottom;html=1;verticalAlign=top;strokeWidth=1;dashed=0;shape=mxgraph.aws3d.dashedArrowlessEdge;fillColor=#000000;aspect=fixed;rounded=1;shadow=0;comic=0;fontFamily=Verdana;fontSize=12;fontColor=#000000;flipV=1;" parent="1" vertex="1">
          <mxGeometry x="884.5" y="200" width="588.65" height="334.68" as="geometry" />
        </mxCell>
        <mxCell id="d5ac148becb70bc-12" value="" style="verticalLabelPosition=bottom;html=1;verticalAlign=top;strokeWidth=1;dashed=0;shape=mxgraph.aws3d.dashedArrowlessEdge;aspect=fixed;rounded=1;shadow=0;comic=0;fontFamily=Verdana;fontSize=12;flipV=1;" parent="1" vertex="1">
          <mxGeometry x="1474.5" y="540" width="589.96" height="336.44" as="geometry" />
        </mxCell>
        <mxCell id="hc_EkCZGRyET3zLob7zh-16" value="" style="group" parent="1" vertex="1" connectable="0">
          <mxGeometry x="1500" y="320" width="240" height="212.73000000000002" as="geometry" />
        </mxCell>
        <mxCell id="d5ac148becb70bc-3" value="" style="verticalLabelPosition=bottom;html=1;verticalAlign=top;strokeWidth=1;dashed=0;shape=mxgraph.aws3d.rdsMaster;fillColor=#ECECEC;strokeColor=#5E5E5E;aspect=fixed;rounded=1;shadow=0;comic=0;fontFamily=Verdana;fontSize=12" parent="hc_EkCZGRyET3zLob7zh-16" vertex="1">
          <mxGeometry x="32.09999999999991" y="57.41000000000008" width="100" height="108.14" as="geometry" />
        </mxCell>
        <mxCell id="hc_EkCZGRyET3zLob7zh-5" value="" style="shape=image;verticalLabelPosition=bottom;labelBackgroundColor=default;verticalAlign=top;aspect=fixed;imageAspect=0;image=data:image/png,iVBORw0KGgoAAAANSUhEUgAABHMAAAE6CAMAAACiZO5GAAAAAXNSR0IArs4c6QAAADNQTFRFR3BMBiMuBSUwBiMuBiMuACAwBSMtBiQuByMuCCQwCCAwBiQvBiMuBiMtBSMuByIuBiMuNkv2WwAAABF0Uk5TAKAw4PAQYIDAQCDQsFCQcP+DvHwAAAAgAElEQVR42u2d63brqLJGhYS46P7+T9txstKJbSRRF5CTfPPHOWPsXo5lBFNFUaCmAQAAAAAAAAAAAAAAAAAAAAAAAAAAAAAAAAAAAAAAAAAAAAAAAAAAAAAAAAAAAAAAAAAAAAAAAPhJ+K1FIwAAahG3revRDACAOvTdtm0G7QAAqMO03XBoCABADdy7cjY7oCkAAOVp7YdzthFtAQAoTj9unyxoDQBAacz2xYzmAACUxX1TDlI6AIDC/J/MQUoHAFCeb8kcpHQAAMUx2yNI6QAAiuGelIOUDgCgGA/JHKR0AAAleUrmfICNVwCAIkxbGmy8AgAUYN1RzmZxlg4AQJ247YKzdAAA2vR23znbhPYBAOgybkd4NBAAQBOzHYPSQACAIu5EOcgjAwAUabdTRuSRAQBKDPbcOcgjAwCU6MctB2wxBwCoYLY8UI8MAFDAb7kgjwwAEOOylYNzLQAAYtqNABavAAAy3l8TnA/OtQAAiAgbjRVNBgDg4zcqyCMDANhEsnJwrgUAgE1v6c5BPTIAgEvYOCClAwBg4TceSOkAABi0TOWgSgcAwIBYmYPdngAAEWbjg1MDAQBEZoFyNovZFQCANrOyEudgwRwAQGPaZGDBHABAYBUqB8daAAAIDFbqnC2gFQEAtWZWmF0BAAjMCsrB2hUAIJPeajgHa1cAgDzMpgMqAwEAGUQl5eAoHQBADp2Wc7DvCgBwjt/0wKkWAIATBqvoHBTpAABOmDZN8DphAMAhUVU5KNIBABzT6Tpn82hSAMA+66YN9noCAHbprbpz8DZhAMAuftMnolkBAGkGW8A5WC8HAOxgtg2BDgCgWphTRDlbh5YFANQLc1AYCACoGeYg0AEAVA1zEOgAAGqGOQh0AABVwxwEOgCAmmEOAh0AQNUwB0cjAwBqhjkoRgYAPODLOgfFyACA7/S2sHOwvRwA8A23lQbn6AAAvuiKOwfvnQEA/E8srpzNopUBAJ9M5Z2DukAAwCdDBeVsI9oZAPCBr+EcvNQTAPCPropzkEUGALwTqygHWWQAwAemjnOw6QoAcKN4DfInE9oaAFCjBvkTvLwcAFCnOAclOgCAz6lVNeVgcgUAqDm1wuQKAFBzaoXJFQCg5tQKkysAQDPXdA4mVwD8eUxV56AsEIC/DrMgkPkx+RGlSzil2NnL5vSrkbD6EwQG3nsXtfY5u8Dl7TLmeO2hnS03M3PVi67CdVmjjCM/PMbjX0Cy6zAsq/yhKD4JYjTrZec8cC+e+7m2gnNKnb28wDlA6px/717y8VrnvOtvWi8JeALzerl70dcaF1xo5Fs4B+g45z0cd/21znmPd1z/Y1qP65yphnPKnJrhNjgH6DlHoh3NU/ZM5WAn1naOreGcMrWHI5wDdJ3zNh5Me7Vz3mZ6Vd946Ws7R5zQyXJOiVcVZ2Xb4Rw4hzzi3dXOqRvrcNM5I9s50oTOx1r5WcxRoAlPCplGrJX/Hd7vtd6Jvh252zjdC3iLt/zLCzuwXxWh9BLhfrUVvuX7Fx59X0Ct4x9k8Bda5+MCFI/bGyutnbds57Bt1alJ4CjWserZ+LXkYhz4mbR6oQYvp9KOiqFOnSDd1XeO3parwdbMInc1gyrwU0Kdgz74vfo3Jx4xnJHRd2fT/f8511OVN7MsFzhHL0d+FNpqv8Ev1oypwI8hZs+2+zj76TAuspwZ+t5UZUz+sTZ6M1779OSmkLeJ7xy9ZNVQtOA5O4OMMOcvM9E6eT8vB96Zeq2eeRSyDG66sC8LxPEKZ+jUyyL3WB8HSWb6zL7d104XdS7grE/uZp+LS2cQOIedvBorKVN1xuPhHJA9uTp/rEajth7R8+rTen9NTicKnMOelm2VnKO6mNTBOSB7DOVUhw2LVqTBLU/bWfMqvHrlL3FOW8c5nWJDzag9BtnOyayC73dWcMZeOgoypxJ9MtiyZUuSzSXOiXWco/g9x+fUwzlwDq9DDEFDOoJQydTaOPQF3xuz4LO+knP0ktUD9liBAs55C6CTEyzbykZB/gWY6iWunSBWmV7eOXqbrhY4BxRxTtNPYulILiBZzF+04GwTOIefCwq1rl9NBhbOAWWcs7OphjLsRReQLKQu2KOHX+ScUDCL7HB+BSjmnCZaWU5HdgFr3UAnXuOcrYRzfJfMOtVIe8E5cI6oQ7Qy6QgvoKua0RE4p30556zFIqq7HS0WzgHKzklLx1RyTixcZ3KPSBuCDw8lnJM830blm+5y+wbOAdrOSUvH13FOMtBpX9I5s2RiVsA5yWU/jULuO5nZCOcAdeekpRPrOGetmS8QOSe+mnNSm/o1XgBxl0H2cA4o4Jx07+2rOKevcBTM/4Rf5Zzkz1HYPHJXwTDAOaCEc5KLo6GKc5ID57c5Zy3jHFfE1/G+tBnOAUWck8wNrFWc48tuHFJyzihyji/jnGTpnjgZZu7vBJwDyjgndTpM1n5LeYFQxdVyvnOC4Pj2cs7xBc4g6h+WEOEcUMg5qTxyqOGcpmISWeSc5vWcMxQoqVwf5A/ngELOSS4gzTWcY7mpJDgnue9UGCR2D/6Cc0Ap56RmV11fwTkBzmE7R7+kcn6cp8E5oJhzWtZg+SPOmV7TOcmSSlEGfnrMR8M5oJhzUmtX58mBP+Ic/6LOWZWzyMPTbYBzQDnn9JztfPIL8D/FOeMLOie56UqQRfZP9YVwDijnnNToPw105Bdgfopzwgs6J1lYJfg6+7SPoqRz2hj9P1yMl7wdNEb37wrm2Jb8oj7Gtc437TbwKzqHE+j8obnVSzqnVc0iu+erLuOcYfbhORcVzBqr2aZ/u4THDt9NawEdtKt56jtd8HNJyQ5uSbwz/K2B29dyTjLQgXNexzkx8TeD5tFd4flcDH3n9LM5Opc6rBWigGHdvZvWzJpmc9P+Qa/jMhexqTts4GkdXsg5A33TYBHnvF5N4PyyznE7q2zi+z8V6WKNyzjLvvPic4AGE95J+muezr5fKQSZT3+sDacsVMllbOURaEe7QxjypsEiNYGvt/fhFvLzX/zgCjqnUTy6a0ksuat2scHY3IIoUZt9vSc2ca0u4+0fVsE6vee/ZoQb9ec38DS/iHMiedOg+AL6ins8jcg5XvTpYs5JXRbv6K67fF6n38Uiydod3zrO7j8y50wRdLPUOHbbKjsnhgoNrD7Z7qj9t8gez1KzeP8bnZPcdCXPIK/aXawlR5ncQTHuFw4MBO1NklBn1TJOvnNinQZWd85CXQURX4DXS0f8Teck53ys0TqmiiSUuljPijE7ess9WuUuXJlJJujYyew4bltl5wysBh7j9c5pqZMr8QVM5dIfzw8f9n1vRc5pijonCnMAyXtvdLuY4z72icHG84xmEcytLVM6y7bVdg47rlr6q51DnlxJL6DXraOlz+PyrfGqzkluumJkkU3yQaPRxXrBAY2WkldJpIe/Ejo9I/jgPP7acavtnEHSwPFq5yzElSvpBSSWek3zms5hv/ihK+wcnU1XfbqfK3SxKMttZCfE0wmNXqICRqQz2622c+ZKDVzIOTPxmSm9gFBv1aoRbNMUGSsUdk6qfpx+dNeafr63JTJ2X9W4y7/S/HDwpM57w+NeQuNfnJR8uUkXgvEmhP21LEsNGN3Bj/34qWb/p44urm//faR1n4Op3JjVwKG/1DkNMcAUXkBbcIS+jHNMYeck8xTkWUG3s+4l7WJ7SZTRPzxcWrdXXJITbbT28Ck+PP3n6fs+iz4uO94ZVZRjzd1Oh9aPJ7/0tjtr+nDhyYDo95biwnMD79VEU7LlBZwTaGNGeAGBWg+k/uMqOMeXdk4rHyv3v86r3eGdJEq3Uwg7G6504uHM9vEygnt+tEcjn3m4nTXp529r835pH6PjNPDo0rHLTmU0YQ5ZwDmelo+QXUDUKmfjL5LlZ2TYznGlnZN0aRQ0zaB1h9MjIhxc27Dw2nD/7tx+zJj1/ekl7laonL0qmPRkkJhBYjSw8GsLOGemLSTJeuRzPNsVPdGAu/QU9qKJquU5+85x4hndsPtRyR1OjoizCt903d7Mdo57yHgcFf0YUTpuJi5GJ9PaJOmkGzgyGjj7aws4Z6ANGtEFmLozq6MEX04W+Oql8n3nNOKju/zu/Zbc4cArCEktdJ2NiXiQTrs/5LnPzqQTnxmplNLJUr9hp8z3lZNxe2bLl06Jw01ov0JyAa5iOeBZxyzonK6Cc1IBHGmnbLd7wYI7bLjlNqmCnpMxMdwWZ1Jnxrw99i2hh/GPkEsJYBwYT8H89MLELbdJXWvmUmcJ59CSyIILqFqaI1u4CvIPl3XOIHTdvC9+/h1OxAxjy9dV3vP/uOI542HOXtZYWJfsBIHVIgiS2A1cwjk00fMv4ArlcM80FjnHV3BOMjseeQ+ah+cd+wdF0bQh0T3y9uG1Vlbi97yqntcvuT/XsZ8Ws6iBzab2O8U93JMyEtwL6M0VyuGeZuElzplrOCc1a8zfKzsc3Ab2HbaSEZEciyu7A1NSFs+ft7zHWeZkxTBbeBA2sOGlNko4h7ZwxbyA1LlJNV4nsEqcwwyShhrOkW26Wg4+xb1Rk3RNkrvC0AsXEBOrqZGlyNw4k2mrIFNOqoFzqq5LOCeSbhbrAlLGsa6CcrhJZL+7CnOObao4Z5XM6uzBRJr5Z1dp5UnKWnmFjns7GXKT6p7xixNRXXYqOBGw+CoNHDi5xxLOGco6p09XuI+VXr9R3zlTHeekNl3lZpHdUXzN62KJyyE/VBIBx8obSrQb0TOG4iqJ6jwj0EmIijyJZ92kIi8CIT0wE1mZuIfzfm833VLr5UahunN8HedINl2NR57i/SKj4d6WFfzv3CcrSa8yYiuKYhmfnjQq+COjlV7ROZwKlnpvNeIdp+QEzomVnNOyl+nbw1vN6mJRMuSPAgDDdg4hCpjJiaRZVpXlyLPIqFPBv9DNVcQ5XWXnWF/xDY6zwBu83VpNJeckh1pWFtkcfoLVxYJOtWdidjUwnUOpkurJwpqE49BSf+eo82zryV9cxjmBMhWWK8cMTUV6gXNYu7Wmas7hlrTe9TujskoQtQojHSfQCeJwM1CTlNLVyoWYuXLXNXAt54Ryzul8rOkc3gRJ4BzNd3W54/vc8ZIY6/HQ5HSxoDbDHBmDOYiLwRfiT6bPjU4nxqN6s+TOaoZf75zbwDCu3uzKV3ZOW+jafd5Pc7Re1zUazmn19n9wAh35yR4rMVo14mFoCTVxqXFv9Bp4+QvOeW+zuZJz2rrO6Zp6zklVOZw/b+OJohhdzCjWYnekwbjXgYm3IRKd2YnjuonUZJPiSkVHjI1/j3MUXxJNT5Fn5oE5zjEVnZNcLm8pgkh1N3oXe05MCsy70merQTzDbWnO6eUrBysl3BikU7nj6Nj9GefUSicbtnM4a15zTedEhvT6s39M72JOM6nV08dXkGZ0n390IA5DsmRJWfdVZ1VwT2DhLznn7EAlFWa2cxgbJ2xT0zmcLLI/G5r0LjapJTjTf60ld2ByGEAbhl6evyKFSiN9vklqruFPOWeza3Hp2IrOMXWd4+gLZ93ZbSZ3sV4+5I9/kyd34LW2c+g1wYTYbNAtyCDOXl/ROft7Hz43QEyHG7SL77wyFZ0z13UOfdPVfBqhk7uY6tSKo7AgXzykOScojEJCGlp1akWeXL2ic7IuoF2n3XCj9A5z+uSq4zpHd2p17pykT2PuzKXTucOTfMhLYv/EB+i3ob5zCCVN5AY5YSRlwH+sc97HvqkzI5FPrgLXOaa2cwbiRQznd458h62yeakLK88dOPxI56zZY05YkLGQwvMizhkpf1R0AYO3V0hnYTqHnryKtZ1D3XS1nP876h1utbd/RGq2JMjHhNQ5UcE5Prs9hMNlJt3hV9xXTrqA3lwgnbaWc7qmunMc6e419rzNqXfYaXdJckInyNMdUue4gs5hVCxpJnR+vHPS7zLaCh9UOlZyjq/vnNRyeZfnh6hzhxf1aK8jVtwF+QW8wtzKZa+BSBuYNBuu5Zy5nHOS7zLSn5acPCnKOGe4wDmecvtChpmodzioNwN1HSrIq1deOYc8EhWsnKX/oechZyy28M54ytWc5cUrROVMzQXOGQgX0uY8Vql32KoPCU8sQQjyC6A5xygMgvxBp786SgpNazmnLeqctHSmcs6hluj4/XlLveKcTOckf9tw/k93HU+9w7oVgemw1L+Wc7xC582+adS9Ciypr3Wds26UMmydCwiVZ1ctzzm0s3e65hLnpJ4Zy3m4Z5TucNQfEtSFmurOUThBq80edFH/6UxauKr0Tr2utHP6rsqYPZGcsnPWa5yT3HR1PlSGYs5Z9J0TXss5kfKUzh32QUMQ3Aae6jqHVBKo5Jx04FGwHnku75wCCak857jcphxLVH06/R7ZvLpzKJulslMqS3ZM4KtKvYRzaG/Y1LoAXznQIaVmHMc5S3ORc1IZ8nDWefb9PtLusK/hnO7FnDOKn5f5f8EXCKivdg4t4NC6gOTsquDZgY5TTkxyznCVc3KP7jJ5gzi8oHO2F3POIi1qTRxl0Wc3cNRv4LGqc2jLVmrOSUqg5NKVZTiHclBgiUrqTOfkbbrqM2+a2Dnz73dOlK5fEw5xr+Kcrapz1o3UfnoXkAp0Ctbo+MLOGa5zTioee84urZlXK3ZO/P3OSXRemmkJOzzD73POREohKzqH+dYCLpS6QIZzTHOhc7KyyF3m1cI5Gc5ZZDH6QHhm/ULn0FLIis4ZKk+ufFHnDFc6J2fT1Zzba+GcDOcMsh5gCM+s3+ecllicp3gBI21WVzHQoWvKNJc6x5/fxfPDuuAcQo1fkHSBljLmzK9zDjGdo+kcXytcOJiBHDvHXRvm5DvnPIs8ZE9hA60K4E+uWyVHYr4KAiWdUUXqtqZzJuIER/ECYt3VckKNztEV1qrNeeybnhisPyTkfXb1ImlA/FnnJAbOmLsCspJ8RT42kdPANetzemoiV/EC+q1AtZFKoEN1Tqk98fnOiWd7MbrsWQDROWsN54TXc87AnmC3tMd8Aam3lzrHUResNS/A1sqL7A8nHef45mrnnGWRXf5EkOicePGQuMo5qdRAVgCSqIa1Q12pX7v3gTq1UnUObaeXApkO6aj/vr/eOe54ohry21jsnAL7yqcXdE5qDSRDOv240TYzVNlEW3Ff+UCukfnRzsk8RycQnVMsCUVwTmpVbmJkkMnO6fXvIXUn9UXOaS1DOinlBNWoj7g2Ud05nrxcrXkBprpzBktyTkNT1JXOOT66a8neL0l2ToFj7Ki7Gi9yTjK2PIlB2pGeDaRsjuI28FzPOR250TQvgG68Rr+15c5pX8I5w0Ge6S4I8srOCeo7WKgVKVc5J/kSo3CUm5kTzzzbkgepfl6zreYcR680KeycrbBzsl4BQXNOwaU2inOSm67oGWS6c/Rr1qgWu8w5yeDS7gZlw7Rx9vsE9accyWLKzgn03QeaF7BUn1vlpWhIzun6F3HOwaarkbIySHWO+uuXyO+tvM456QRhl9TIkE4mnqed1Xfu014gpusc2hsffkMOucl6qaenOKfkO3JIzklNlMNzFjJqO0f9NZPkF4Ne6JydVYlufYwm52ljKieRUhcuXNFWwnSdMzLG/I93Tsa2K380jCvuSiU6Z3cvickPGRjOUX+dNjlwutI5u0uh4zL/mwL10U97nS6noof8XlN6R3G1nOM4T+3CNYHlnZNxNLI/smKdCmSOc4adZZSe1snJztF+qd5EzV9c6hzaCZQPvSdvkjQqZ+lpN0zTOX3HGfI/ee/Dbp/mO6fo/jCic1KP3JsTV5ojyc5ZlTcEWWrcdK1zmrZjKmfMzAUvyt2OFjdpOmdhLfsqXsB8tkfoqtlVvnOm5pWcE9PBe/5WK55zWt1moeeHLnYO6TjJ7z+rL9YimvkhRee09IImZecslTOyh2Mz/ZgO161ZMZyTSj+N9792KOCcxNdK2oX+VL/YObHkvCod+YnK2Awt1FB0DqMgUtk5I3V/qRpL7lJUuG7NiuOcVGqhNcShRHfOojq5og+wa51DOfT22+O9F1lCMLnqiXNXPecszOSEnnNSKc+xqcOYqRJ/VTUgzznJN11RXUB3juobtRkrw9c6JzCMM9Gy7K3m5Ir6EkQ150RuckJv5Hne5E6F1io4p7wgqc4528PaNUWco7pyxai6vdQ5KyORQ64jHhUbmPq3tJyT2uuYt+yr55zKL9U7n4UQnWOH13POoLBNg+Ecp/cc5sRMVzrnIQQ5n2fZZdDoroqnc05NDeekNtRnjnc156RGvW2qYcTOqeBHsnNOAv2hkHMSz49B7b64V3bOQ8GJbVtzpB1reL3medLMLgwjv0ZCyTkTf1qj5pxUmHP0dGxj1Aws+oOUTpPjnBrTQLpzDuM305RyjlqgM3Dmgxc6Z0r4cU5rxwbP35updkAp/Yg1HecYQXJCyzmOsg7ULv8MFVY17xykdHKGcIWCaY5zDndrxGLOSXxtK/7F2Wnv65zjdkTbOh+C/V82YfHCB2ZidWBQauBYwzlGUsOv5JzkAuPOjW7f26kLgVZJdcac4Zx4zZ4HgXO8MIPMdI7TkfLMehZe5pyH59ZY9dXXrMLLlX6fNJyTVE7b1HXOkr/h7dba0/x+Owf3NiOysdhtzHaObZsXdc6QU+qo75zEagijpDzxJIov7JzH+XnRTiF9Q/pH77D0eFTunH4SdEc158z50xVzvy/FWb23mhu2c1zzqs7ZT47nhmY850QNL0+8h/lVzjE19+1EjYVT4vsSdZwzjMIhpOKcdC4l7gRE5unhohTp7OSR7alzapURcZwTZRlkrnMSkSt5qrEyPXmRc+aqe+9SL/GTR/YZDSx1zmylT20N56SVs+z84Ol9zerGR/v0nVo2JV22Hs4GsKmknLsJS3Yzd5KFcr5zEscUEEfhzK1HuMY5D/OU0nvvUp2V2BEdq4FlzukX+URBwTlp5aTvWff+v392qtD+awStQKM9S2Un64/7Ws5hNbMTLrRNzI9GoZwT92JqXtg5NZM5e06mNTAvYBc5J3YKuQm5c3YWqdud8XO7vOEtKOziYv/9K6O3FzTSnVNPOTzn7Ow5zL7NnqsrLxoTiW7R9S/snKVmMmdv+kr52kQDZ3XluLED2CGopEPFlSqOMiSmfwu88f1rPnM7reItdlTnVFqy4jtn51zwprhzUkXQRjAislv6CufEusmcZGhFauCZ28CRu19g59B5+ggSlqr0EynB+Rn9fTgnfvaFTvEeO5pzaiqH6ZxBtgee75zkOyp75l0gPA0vcM5DMFmnXCv9sta8r17Zu3dSU4GMR37cPSh6aMTOoUyudoKcPeW0n+3yYRv3+V1Gc2eWOZrkXqocpnOSm67yb/TCj2RT0+YuY5Ex+SRamxd2TuBUeJfJP3Yts4EznR4Zocqw7m4totf0Rkms5DriMm78vJvvzrmdO9t/PoqbctLxdznsSwpz/vUUZvQuSzYGwZpsMld3ejxVcjWVcMWdvnNGUiy4VOsSvAZOPupzH2ILdX40rPs7jS1jAK3sCdrgO3LlyHfn2O7r2afrnEfp+P0BWFU59+6ghO8dc6vVk+jIQVJyTFh/dO0xCOsRevler+dHaU+evWYzhsmvsVeUzvFIljXwzpJE+iv7uE5HO/4CY5NY37Hs1c/LwTZu3+Q4pxu/vkbZOQ/S2XdOXeU8pAwJkyvPzyAnd4QY4Zh4s85eZ3NBXALl5QVUhjazWzcFumlttaSzdXsN3LuROOge2H1LSrf4e752te4FOat8cB5dwBfT8aUc+epubtV+Peu1nXP/u3adU1k5hv307vmLk610cXPvzSvj8wjr573DZlbhICTmVxwxdg+bEt3SKknnbfL9fOZC7/Ya2IlHPB3e7mzFC/i/K7bHY8d/5XO+tkEE9aMkzE6HD5cp5zntR3hMGO7S4mo32WPx6GQiG97mFLG9heBx9mZUmfRHK36iphMGkTJ3FWjHUYficNTA7quBp/1/l7s9dFCz6xZYefZh0leOP5tdjF/Ouc0s4z8VqWftzGkOuZJy2uhu0WHyAXWLJl1OJiCS5xpDjN4v+4PJvn31mzCyjoERPpq6vGf/ezP58TjwPpmV3dj90eP7f07ddqs6Bo7TXSmrm4LP+W8t46frjPNxAQWCnNOUkv/IX7bLzc29e/+/76Gw/pK1SdUtmPpRzvmTJef2jdQcsNd5SBwsROUy9VoNdbqCldVHS86tPgVJPZbCSRp4Yb1SqnKMs5Uh40reQpvp/3sc3/9/vP2PJU7pW57n8uaCuhwd5zhqfY2qcwQxef6r5i50zqI+FiZiqMNv4C7WHvKGM3auMs7HUHCJiKRIDZZ7NMwVylFyzt0Kp6vunLdQpyv2DL7eOa3+cOioPYwZ6mQ2sF6+duUVBei3sM123/g03n2xGix3/7Q1lAnwiznn+6O4ay5wTtN7+qAIrWpDFXNOicUUS51fsRp4qDrkx4V9CrR6IElI1d9OKVkf8mfFzj//tgzpviun3k5yNecMRE2oO4c+KIiz/iud048FIn9yxnAgqo/QwAoOnUTvS9CNcIhrg+34vbFu2ydMOQW0X31p5FeYvYJzvv2d4SLn3KyTP8MyUb2hyjmn6cMrSIfWwG21IT+aVTozUJvbsS7l/aSxzryv3VluMWP2l02i+rQXcs5MU2YR59wuI2u9lTPrv9Q5uT+MBidNWaaBmQHF7a06s0oiQp4vDsY7ft53+CpW6XzpeY7PLw0rE2rFMzJboCN15CHmQY+X94th/x8PbZmGeuP4T+T8hYNru1XePcYZy9nf88vBDkjWbKR303EDM94KF6loD8vIRyv5Gt9LhNYauVwjfvS8Bv+SU+4lrmVv619Y5r5pfnobUxcb4p6FR/74SDewDf5HN/Afwf8S57xNSt/iyxe6/jjf9gF+Yvyq+jLoK3jcp5W/nrqXX/eiBnbfG3j5BQ0M5wBwpFczv1sAAALoSURBVBxSSJneNWURlMA5aA9QQjnNTpGPR7v+QSKcAyooJ300DQIdOAftAZK08gAlWVno0LR/3Dkj2gMkfdHllfGQvPVepI+2/YOIuxL4/UwalTWplI5F28I5AJxMwNnF6qnD3Fu07t92zoLmAAkeZlYd9+9MSOiA5n4jD5YuQQKn5QmH1XIA5wBymMNf4O7hHPAQ76IMGTzz+KJUwWknIxauwH0hMpwDjp9K94f2i4JqLFvAORvlrbngz/A0Iep1Ohucg8gZZcggZ2rVCf6WwouPwc8nwjngiEUxMvHIIYO7inRsfQDPBMXIBM4BNzC3Bnn9Q26JBTWB4K5PYd0SlHVOUDmIHfx0RsS5YJ+o6ZyO+KoK8Nvn63AOOHeOIBru9Y5hBz+ZCXEuIDhHkPWbn18ojgb+i3g4BxCcIzjy5vkAnRkN/LedgzJk8MTzoTfsbtJbHNkF7h9kaAvwjN7ytsPUCtw7Bw8dkKBTSyJ3eiET+NH0KAkEBzwf7sfc5LniIAvwEDzDOSCB1n6F52wODkP+s1iU54B9WqU34QXsKQcA5NCpzIkWvMQTAMCcXDGWrhLHr6M2BwCQIvFaKkvNxCSUg5kVACCNEUsn8RdGzKwAADuBjk1IhzAzGp7Tx1sH5QAA9khkdLZtybXGahUmZwCAv8SYkk6XFerERJAD5QAAyLOrWxXpqXXmlHG2EcoBABzSbmk6f7BlavBd8kNIHwMAznDbHuMyJxwyzEu38wEskgMAJNK5hTvB+zn+Y/Um2N1/avGmBwBADtFuCgQcXwEAyKMdxcZBkAMAyKdfhMpZkDwGAJDmV53AOAbTKgAAlZWZ1bEexgEAcCZYnhHrBIdZFQCAiwsk4YwrQhwAgIhhzVzDshOEAwBQmWPNy4l3umnFvioAgCbR+em55tiG4NeIDA4AoJh7voHWAAAAAAAAAAAAAAAAAAAAAAAAAAAAAAAAAAAAAAAAAAAAAAAAAAAAAAAAHPMfakxC9LTFhncAAAAASUVORK5CYII=;" parent="hc_EkCZGRyET3zLob7zh-16" vertex="1">
          <mxGeometry width="186.19" height="51.33" as="geometry" />
        </mxCell>
        <mxCell id="hc_EkCZGRyET3zLob7zh-17" value="AWS EC2 Server" style="text;html=1;align=center;verticalAlign=middle;whiteSpace=wrap;rounded=0;fontStyle=1;fontSize=22;" parent="1" vertex="1">
          <mxGeometry x="810" y="620" width="195.5" height="30" as="geometry" />
        </mxCell>
        <mxCell id="hc_EkCZGRyET3zLob7zh-19" value="" style="group" parent="1" vertex="1" connectable="0">
          <mxGeometry x="1404.4999999999998" y="550" width="230" height="175.70000000000005" as="geometry" />
        </mxCell>
        <mxCell id="1a8abee3a6cfdf20-4" value="" style="verticalLabelPosition=bottom;html=1;verticalAlign=top;strokeWidth=1;dashed=0;shape=mxgraph.aws3d.dynamoDb;fillColor=#ECECEC;strokeColor=#5E5E5E;aspect=fixed;rounded=1;shadow=0;comic=0;fontSize=12" parent="hc_EkCZGRyET3zLob7zh-19" vertex="1">
          <mxGeometry x="30.000000000000227" y="60" width="100" height="115.7" as="geometry" />
        </mxCell>
        <mxCell id="hc_EkCZGRyET3zLob7zh-11" value="" style="group" parent="hc_EkCZGRyET3zLob7zh-19" vertex="1" connectable="0">
          <mxGeometry width="230" height="54" as="geometry" />
        </mxCell>
        <mxCell id="hc_EkCZGRyET3zLob7zh-9" value="" style="shape=image;verticalLabelPosition=bottom;labelBackgroundColor=default;verticalAlign=top;aspect=fixed;imageAspect=0;image=data:image/png,iVBORw0KGgoAAAANSUhEUgAABH4AAAQACAYAAACXnZ6oAAAABGdBTUEAALGPC/xhBQAAACBjSFJNAAB6JgAAgIQAAPoAAACA6AAAdTAAAOpgAAA6mAAAF3CculE8AAAABmJLR0QA/wD/AP+gvaeTAAAAB3RJTUUH6AcSAR4rB8zc4wAAgABJREFUeNrs3Xl8VNX9P/7X+y6TBAKCOyggkJmAcWnF1l3rR+3m1qpo1QIzgcZW69JVu32bfrrZvdSlmsLMANWqsVrXbra2dW0V6xYgM2FTwV0RAknmLu/vH8HW9iMCIZm5c+7r+Xh8Hr9vf26c17n3nnPec+65AiKiGJuuag9f0TcJgbO/iO4Hxf4A9gPQAMCJ4B/5RSiWw9IuUelSSJeEYXHDcLejfZz0sEeJiGiwtKzVYaUNXhPESlrQySragFAaIGgAsHsE/8g+gC4BngLwVAjpsC3/yXGTa1a0ioTsUSKKK2EERBQn6ZW6J/zgKFE9EoLDoWgCUGdA0wIARag+CcjjlsiToWU/mWuQZ9nrRES0NTOX63g7CA5Q1QMEeiBEDkT/jyC2Ac3bBKADwIMQuV8d+/78RHmBvU5EccHCDxEZbVaxd7Kl1tEK62iBHgEgGbMIXoPg76J4KFA8aKvzj+wU2cArg4govpqX6YjQ8g8VwWES4jAIDlFgdKwWQYKCqjwgCP8GhH/LpmpX8MogImOfeYyAiEwyXdUeUfAPU8HJAE4BMIWp/IcAwNOi8oBaeMjy7Pvm7yurGQsRkbnSS3v2geMeJYrDFHqEAE0wYyfPYFoqwO1BiDsmNjoP8dUwIjIJCz9EVPVmPKHD3brgg4rwZEBOBLArU9muoaBLgXtE8CerZP95fpO8xkyIiKpXS6fuWrKCY0VxPIDjAJ3MVLbLy4DcKYo7nBH279vGyiZGQkRVPdtnBERUlVQl0+UfDdUMIKcDqGcogyKE4DFR/AnAPRs852/tTVJiLERE0XVhUWs2qH80gBMEOA7AuwBYTGZQbADkZlXN5VPO/RBRRkJE1YaFHyKqKnOKurcP/1xRmQNoAxMZcpsA/Fmgd1iOe9u8SfIiIyEiqrzZHbpzkAiOs8LwZBU5BcBOTGWo6bMCuR4I2ngmEBFVExZ+iCjyWlWtZwrBqWrpp6F4H/grZqX4AO6H6O0hwtsXJGuXMxIiovKZ3dXbEAT2KdJ/jt1R4Dk9lRIKcK+KXDGhwb6D5wERUdSx8ENEkdWyVoeVNnppUesz3N0TPQo8CcWNagU3sghERDQ0Znf1NoShfZYCZwpwABOJ2GJKUIDqTzbUuQvax0kPEyGiSD6rGAERRc2MLt3dDfzzVXABeFBztVgiivbAChaxCEREtGMyXTpOQ+80S2S6Kg7nnL0qvCLAfITOz7JTZC3jIKIo4SBCRJHRskTH+HbwVRWdDaCGiVQlFcGDoeqNCXV/1dYorzASIqKtyxR1N6h3NiAfA3Ao5+lVq1dF5sOxv5WfKC8wDiKKAg4oRFRx53do/aaEf4EovgJgBBMxRgnAH1RkYeIN+zdtB4vHSIiI/m26qj2i6B8LoEWBUwEkmIoxNglwReg6l+cnyjrGQUSVxMIPEVVuwtuhiRGul1bINwHszkQMpngBgptENZttTDzBQIgoztKdfVMssdKqmAXBnkzEaK+p4Psba52f8QwgIqoUFn6IqAJFAJXmQjBDJfwmIOMZSOz8Harz/F73V4sOlI2Mg4ji4PwOre91vXNCyGwB3stEYjf5eUbU+lo2ZS+CiDIPIionFn6IqKzSy3uTEthXAzieacTeekBusKzgivkNNU8zDiIy0cylvSnHtpsV+ASAnZlI7N0XSvipBcmaDkZBROXCwg8RlcX0Z7VuxCb/UhVcBh7cTP89GAkeCCFzeRYQERkx5qnaw7uCD4vqRQCO45yb/osH4Od+j/Nl7nwlorLMtRkBEQ21TNH7AFSuAnQy06CtWKuCNsd2rpk3SV5kHERUTdIrdU94/vkA5ggwhonQVpZiXQo9P59y/8gsiGhInzaMgIiGSsty3akUeFcJ5FymQdupT1V+qVbwE26HJ6KoSy/t2x+2/VmBng3uaqXtpfpL13E/3TZZ3mAYRDQUWPghoiGRKZQOAazruMuHdnig6n8N7Hv5BvtOHohJRFHS3OkdqYJLAZzIeTXtGH1GVT6eb3TvYxZENOjzaUZARIOp/1wD//Oi+CYAl4nQoE2JgSct6FWh6y7MT5ReJkJEFRnnOjQxwgk+ppZ+Hor9mQgNokCAHzrrna/xvDsiGkws/BDRoEkv7dnHcpxfquIIpkFDaC1Ef+hvctt4KCYRlcuMJ3S4XefNEcgXAOzFRGgI/V0QnJNN1a5gFEQ0GFj4IaJBkS74pwk0C2AnpkFl8jKAua7tXMlzEYhoqJyzWkfX9vmfVuBiALswESqTdaqSyTc6v2EURLSjWPghoh2jKuku/4ui+A4Ai4FQBWwAkHN95/K2feV5xkFEgyFT1N0k9C9QwcUARjERqsQsS4Dvj086X24VCRkHEQ0UCz9ENGD92979BQKczjQoAjZC0eYGzg9YACKigZpT1L0D9b8A4BMA6pgIVZzqTe4IN9M2VjYxDCIaCBZ+iGjAE+NQ/d8oMI1pUMSUAMmra389P1FeYBxEtC1aOnVXX/zPK3ARWPCh6HnC8p1T5+8rqxkFEW0vFn6IaLtt/nztrwHszjQowrohuMIqOT+c3ySvMQ4iejszl+outu1/EcAFAIYzEYosxQti4bRs0n2IYRDR9mDhh4i2S7ronyyqNwGoZRpUJboFuCp0ncvzE2Ud4yAiAGhepiNC2z9fFF8CP0xA1aNPVM7ONjq3Mgoi2lYs/BDRtk+SO/2ZKjofgMM0qAq9JoIfOMOdn/GcBKL4mvGEDnfq/EsE+JwCo5kIVSFPIel8yrmeURDRtmDhh4i2SbpYOl9UrgC/3EXVb61AvzF+jZttPVZ8xkEUD62q1jOF4OOh6OUCjGEiVOVURD+bTSZ+yiiIaGtY+CGirUoXvUtFcTmTIMMsU5H/l2+wb4aIMg4iczUXvONV8GMo9mcaZNhi7nvZlHsZkyCirTwriIi2QFWau/wfquKzDIMMdp+KfjGfTDzMKIjMMmuZd4Ql+D4EhzMNMna6Bvwgn3K/yCSIaEtY+CGiLWoueJcrcCmToDjMmxW4JQyCLy+cWltgHETVLd3ZN8WyrO+q4iNMg2KxqBN8J5t0v8IkiOhtnxGMgIjeTqbgfQXAt5gExYwHSM5V+yttjfIK4yCqLues1tG1ff6lCnwGQIKJUJyo4LJ80v0ekyCi/8bCDxH9H82dpQtU5EomQTH2mkL/d5817lU8AJoo+t48uFlFfwBgdyZCMaUQvSCXTPycURDRW7HwQ0T/YfMn23Pg17uIAGCZqHw22+j8llEQRVNmmfc/auEnAhzANIigKjonn0xkGQURvYmFHyL69+S56J8B1RsA2EyD6D/cGkrwhQXJ2uWMgiga0st7kxLYPwRwCtMg+g8+RM7IJZ3bGAURASz8ENFmzUXvMFX8GUAt0yB6W32q+EnQ63xr0YGykXEQVcb5HVrf4/pfA3AJeI4P0Zb0qOox+cbEI4yCiFj4ISI0L9OxavmPABjLNIi2aq2ofCnb6CxkFETllS76J0sYXgGRCUyD6J0p8LxYziG5BnmWaRDFGws/RDG3+ZfT+wEcyDSItmsE/bOt4afnpWqWMgyioTW7q7chVPtnUHyIaRBtl3/6Pc5R3KlKFPdpKxHFVquqtbrg3wLBqUyDaEA8AD+v85yvXN0k3YyDaHBNf1brRmzyL1XBZQBqmAjRgNwyIelMbxUJGQVRPPGrPUQx9kzR/w6LPkQ7xAVwUY/rL00X/emMg2jwpIv+yfU93hIVfB0s+hDtiNNWF/yvMwai+OKOH6K4Tqg7/Y+J6K+YBNEgDqqC3/ih8+mFjbKGaRANzMzlOt4O/CsBnMw0iAaNCmR6NuX8mlEQxXCOygiI4mdWsXeypfZjAEYyDaJBt1EF39zY4PywXSRgHETbplXVeqbozVHIDwGMYCJEg26dHfoHzZtSt5JREMULCz9EMXNhUWu61X8QwEFMg2hIPQbRT+SSiccYBdE7m7ms7wDbstoAHMI0iIbUI92ec2R7k5QYBVF88IwfopjZqMEPwKIPUTkcBJWHmwve5emVWss4iP6v6c9qXXOn12pb1iNg0YeoHN5Tn/C/wxiI4oU7fohiJFPwTwL0dt77RGUfbpcL9JPZlHsPsyDaPCYVvWOguBZAI9MgKiuFyEdzSec2RkEUk5koIyCKh9lLdII6/j8VGM00iCo00Yb8oiT2F65LynrGQXGVXqmjxAt+DGiGaRBVzCu2OO+el5TnGAWR+fiqF1EslpsqoePPY9GHqKIE0BZX/WXNRf8UxkFx1Nzpf0g8/ykWfYgqbtcA/gKociMAUTwmoURk/ES7UPqkQn7OJIZUCcB6QNYL9HUAUMV6CIK3PHFHQVELyDBARwEYBoBnv8STApJzbfuzbZPlDcZBpjtntY6u7fXmqsgMphFbvQA2AvIGoJsA9AB44y1PRVuk/2ujChkF6E7o//pogtEN4WJQdE42mZjPJIgMv9cZAZHZZi7X8XbgPwV+un1H+QCKAjwNxRIVXS2QZ0MNn9s4LLG6fZz0DORfml6poxyvNEZh7RaojAV0rAWZHIo2CGQyoBMAOIzfWGtUpSXf6NzNKMhUmaJ/qqr+XIAxTMNYHiCrAV2uIl0Wwi4Nrect0ecDDV9KOInnB1rkblmrw8Lu0gQf1t4C3Rsq+4hgqgL7A2jgGLnD3gjUaVrYKGsYBZG5WPghMlxzp/dbFXyQSWy3tQL9GxT3i4UHh8FdckVS+sr9h2h5VN3e4X0Tbcc5AKoHAjgA0AMA2YddZBJd0Ffjfub6CfI6syBTzFyqu9i29zNAzmEaBj2tICtF9UkAT4jIk6HtP7nPMzUrW48Vv9x/lguLWtMNrwkhDoeFI6FyFICx7KXtdmcu5Z7MGIjMxcIPkcGaC6W0QnJMYpv4EPxNoHeEVnhXfnJtMcp/2PRKHWX5/ntD4DBRHAbgMHBXV5UvpvA8VOZw9w8ZMf4U/VNUtQ3AHkyjqr0hiofUwkOieNCxnUei/npqenlvEr59sghOBnAkuCNoG1eFMiOXdH7JIIgMvcUZAZGZWpboGN/xO3ig89bW2vgrVPJ9tfbt1bzbolXVenZ5ad9Q5ShVOU6AYwHszC6uxmtS2vwe+3OLDpSNjIOqTfMyHaFW8FNAm5lGVXoVwL0C/VMget/EhsTSVpGwWhszu0N3Dl3vVIWkBTiKa5937nvbcZrmTZIXGQWRefjwIzJUplC6HpCzmcTbLq1fANBmq5+fN6VupYlNnK5qDy94B1mWHAfF8dr/q2cNO79qhucuWDor1+A+yCyoWqQ7vaMgskCgE5lG1egDcJ8K7lHReyZOdv9ZzYWedzKr2DtZ1J4lQAu4E+3tRx7VRdnGxEwmQWTg/c0IiAyc3CzzjrAs3Md7/P8oKvSqjXVu20APY65WLWt1WGljcJwoTgL0VE56q0II4Mpuz/lCe5OUGAdF9vnyqLr+CP8rKvgqAJuJRN5rAvwJKnf2WfZvrkvK+jg1fnqHJkY4wcdU9AsA9uPl8B9UFcfkG937GAWRWbgoJDJtQqNq1xf9RwG8i2n8y1JR+Uo2Zf8GIhr3MFrvVWfV3v6REuIUiJ4ByDheIpH2z1DCGQuSNR2MgqJm5rK+AyzLWiTAAUwj0sv51bDkZktx+/qk80C7SMBMVNLF4KMC/TaAKbxI/rU6fHRCg3OIqTu/iOJ7axORUTLF0qegcjWTAAA8J6KtGxrcPCe5W574zur0D7csnKnAdH5uObJ6VfGVfVLOTzkZpyhoVbVWdflfEMU3wNdIo2otgHYR3JhtcB7mDx9buJbvVWf1WC8Nka8D2JuJAFD9RK4xMY9BEJmDhR8ig/R/OtfvBLBLzKPwAfzU73FaeUDudi/kjhaVjwF6FoBRTCVy7pHQmZWdImsZBVXKnKLuHai/CMD7mEbkvAbIjRC9cUKDcx8LxdtuxhM63BnmfwOKi8Evgb2krtOYnyjreGUQmYGFHyKDNHf6V6no+TGP4aEgDD+5cErNk7wiBi69UmvFCz6q0LQAxwOwmEpkvCIis7NJ53ZGQWV/NhT80wT6C/CrgVESiOKPsCQ3HPZtVySlj5HsyFyqdKCKXAPg0FgHofhJrtH9LK8IIjOw8ENkymS8s2+KiPU04nuwpgfF1yeknO/xF87BlenScQj9WYDMArSBiURjSi4qP98wzP583A4qp8poWavD/I3BT1X1E0wjIpN4QSEMsSCEs2Bho6xhIoNn83mJXwLwdcR3948XSjB1QbJ2Oa8IIgPGDEZAZMjivLN0I0TOjOkaeFUYyscXTHEf4JUwtJo7vSMhuEiBjwBwmUjFLVXoOflU4nFGQUNldlfffqFa10OxP9OouADAbwWYm006f+K5PUMr3Vl6j4h1fVx/9ODn3YkMup8ZAZEJi/HSgSryGOL5Os6dJXHOjdvnaCttZqfu5cD/hAo+AWAsE6moXkAvzSXdK7gIpEGlKs0F/7Mq+DZ4gHOlrVHBL6zA+QXP+CqvluW6kxf41wP4cAybH4QSHsivShJVPxZ+iAyQKXi3ATgldksSxff2STlf4atdFZwQP6qut1NwKlQvAnAUE6mouyFOOpeUlxkF7ag5K3QP3/cXCvB+plFRf1XIz/ZZY9/eeqz4jKMypqvaw4v+dwX4QtzarsCv8yn3DF4FRNWNhR+iKpcplA4B5OGYNbskIs3ZpHMdr4DoSHeW3iMWPgeV08EvolTKGgs4Z37K/RujoAGPK8u8/4HgOgj2ZBoV4QF6c2jhRwsaEosZR3Q0d/ozVXQe4vWqs0L04Fwy8RivAKLqxcIPUbVP0AveH9H/1aW42CQqZ2Qbnd+y96OpZYmO8W3/vM1nAY1mImUXiOJbG1LON9tFAsZB2768U0l3+V8UxbcR3w8FVNIGALnAdn60cLI8wziiaXbBPzGEtgOoi1Gz786l3BPZ+0TVi4UfoqqefHhHh8BfY9TkN1Rxcr7RvY+9H33nFnVkQv0WBT4rwBgmUnZ/tB1nxrxJ8iKjoK1pWaJjPNu/DoJjmUbZrVXFjyx1fpGdIhsYR/Rlit4xUNwOYGRsFo2Cw7NJ9yH2PlGV3sOMgKiKJx4F7y7E57DB9ap6fL4x8Qh7vrqkV2otfK9ZQnwRIhOYSPko8Lxl4dxsg3sv06At3qMF7wQBFgHYg2mU8/6UlRbC7w8XN3dFUvqYSJXdN8XSoaLyRwD1Mblgb8s1uh9hzxNVJxZ+iKp1wrG0b3+xrSdich/3qODD+aT7F/Z89Wp5VF1/RHC2in4JwBQmUr7pugDf35B0vsJXv+itpqvaIwr+11TwVfDVrnJOv5cLwu+PX+NmeWBzdWvu8o7VEHcDqI3DWAIJ98sla5aw54mqcORhBETVKVMsLYDKzBg0tSQqH+GZPuZoVbVWF4LpEP0agCYmUrYR/8+27ZzDV78I6H+1q+T4NwhwNNMo2z34lKh8Y3zSvpVfozRHuuifLKq/RgwOfFaV+flGZw57nagahyAiqjpzirp3oP6KWEwyRGbmk84i9rp5WlWtZ7qCs1X16wCSTKQs1orirGyjez+jiK9M0TsGIW7gV7vKZhlUWiek7HYWfMyULpaaRWV+DJra5/rOxLZ95Xn2OlF1sRgBUfUJ4X8GcfiUqOC7LPqYq1UkzCad6yYknSkqciYgXUxlyI1Vwb3poncpVPnjT9yoSrpQuhiKP7LoU5a8Vwv0vAlrnP1zjc6NLPqYK59MZCH4UQyaWlOy/YvY40TVuKwioqqSXqmjxPOfATDC6IeT4DfjG5zTOVGOj+kdmhjhes0K+QqAvZnIkLu5JM7s65KynlGYr2W57uSHfl4VH2EaQ02fgeKb7gZ3QdvB4jGPmIxhqnZ90f8NgJMMb+o6CZ3x/AIdUXXhjh+iartpS/5sGF70AbCstuTMYNEnXtqbpJRNJa7prnNSKrgMwDqmMqTOSKj/j9ldffsxCrPNXNZ3gBf4j7DoM+ReA/AFdd3GXGNiHos+MRvDRIKSOOcCKBre1FFqeRn2OFF14Y4fomqiKs1d/jJVpAxuZa9CD8unEo+zw+NtdofurK7/RQUuRjy+mFIpPSr66XwykWUU5skU/Y9D9RoAw5nGkCkBkofYX80l5WXGEW8zl/UdYFvWwwDqDG7m0lzSaYKIsseJqgMLP0RVZFand5wluMfsVuonc6nEtextelN6ac8+sO1vCeRscKfq0E0IVK7e4NufaW+SEtOofhcWtaZbg7mAnsc0hkwI0V8Glvu1hZPlGcZBb8p0lj4NkStMbqMFHDM/5f6NvU1UNfcsEVULW2D6BP5mFn3ov+Wn1q3KpxIft0QPhuDPTGRoqOj5IxL+n1uW6BimUd2al+nYbvX/wqLPkLpHVA/KJROzWPSh/5ZrTFwpgt+Y3MaQzxeiqsIdP0RVIr1S99x8qLOpX/N6xbecpkUN8hJ7m97xXij6J4viJ4BOZhpDYq0Izsgm3YcYRfXJdHmHa4ibBWABb2imzl0q+HI+6bQzC3onLZ26qyf+EgC7GdrEkm854zhvI6oO3PFDVD3DazNM/oS7yqc5eaBtkU86d7jr7akKvQTAG0xk0I1Vxb3pztInGEV1aS6UWhDiXhZ9hkS3KL5RL/Z+LPrQtmhrlFdE5DMGNzHhhv4s9jRRdeCOH6Iq0KpqrSoGXQKdaGgT78il3FPY07S9Zi7VXWzb/38ALgBgM5FBnya0dXv2hTz3J9ouLGrNRgRXqCqLdYMvFNXrLNf9wrxJ8iLjoO3VXPRuNfeLerJ8QtJO8SusRNHHHT9EVWBlwT/W4KLPBgmdT7KXaSAWTpVXcyn3Yoi+F4oHmchg05Z6x7+X5/5EeFHZf57PvSz6DIn7FTot25iYyaIPDZQfOp8G0G3oGDF5dZd/FHuZKPpY+CGqAiLycWPbBnwzO0XWspdpR+SSicdyKedIUZkFgK8MDu5Nerjn+I82F73DGEa0ZLq8w0PLfxQA+2ZwvarQSyYknWPyqcTjjIN2xMJGWQPFd4xtoMo57GWiqlhzEVGUTX9W6+p7/BcAjDTuASQobCg5+/M1EhpMszt058ANvi3QFvAHjsHUB+incqlEjlFUXnOxNFtVrgaQYBqDJoDIz9Wxv5afKOsYBw2WC4ta061Bh4kfJRDg9eHijLkiKX3saaLo4oSYKOKG9wYnwcCiDwCEoXyGRR8abPOb5LV8yvmUJXowgIeZyKCpASSbKfjXtt6rDuOojOmqdnPBu1xV5oFFn8FcvC62VA/PJZ0LWfShwXZFUvpE8FkT26bA6A1h8CH2MlG0sfBDFPXJaKjnGtkuxe/yjc7d7GEaKvOTiX9OSDpHCPRTALiQG7xpfsszY/07WpbrTsyivNIrddTwon+3ApcyjUHzqojOGZ903ju/MfEPxkFDJZt0bofgz2ZOVvXj7GGiiN+mjIAous5ZraNr+vznAdSYtnK0VA/lJJvKZc4K3SP0vB+oyAymMWiKquEp+caaZYxi6M3u6m0IQ/t2AFOZxqBNgts9y/n0ogbhuWBUnvu4s/TeUORhA9dgveo6Y7hbjii6uOOHKMJq+rwzYV7RBwBuZdGHymneJHkx25iYqSonQnU1ExkUSUusB5sL3vGMYmg1F733a2j/Ayz6DBJdpRY+lE25Z7LoQ+U0vzHxDwVM3O1cC987jT1MFF0s/BBFmciZBrYqtKzw6+xcqoR8o3N3ne/uB2AugICJ7ODyGRitwG/ThdKFTGNoNBdLl6jibgVGM40d5kPwI7/H3S/f4P6OcVAl2KJf6398GjZlVSPnrETm3KOMgCiaNr/m9SIA16yHjt6QTSXOZg9TpaU7S+8RkV8AOJBpDMrd3eautz/ddrB4zGLHTe/QRL0b/BzQZqYxKB6D6CdyycRjjIIqPv4UvJsFON2wZpVc29m9bbK8wR4mih7u+CGKqEQpOAmGFX0AQATfZ+9SFOQbE49MWOMcDOCrAPgZ2h2mLd5O/u/OWa3cmbKDZnfozvWu/wcWfQZFrwi+NGGNcwiLPhQVtqqJc6FEyefXvYgiuwZjBETRlCl4vwZg1PvSCvwhn3I/wN6lqJlV7GsStbICvJdp7PDUoisI/BMXTq0tMIuBXIu9ky217wQwhWnssIdthM3zUjVLGQVFcJ53L4D3mfX41xtzycTH2LtE0cMdP0QRNP1ZrQNgXIHEAn7A3qUoWpCs6dhnjXOEQi8BsImJ7AhtsG37wdkF72hmsZ0LwS7vcEvth8Ciz47qVcFl3UnnSBZ9KLJPShXz5kQqH76wqDXsXaJIrsOIKGpG9AYnABhuWLOeyCadP7F3KapajxU/n0rMtazgQAX+xkR2yC4h8Id00Z/BKLZNptM/CyH+BGA3prFDHlIN351Put9rF+EB7hRZ+UbnbgBPmDaF3SD+sexdouhh4YcogsIQp5jXKp0LEWXvUtTNb6jt2ph0/gfAFwD0MpEBqxHVBemi93Wo8tXyLT4aVTIF75sQ/RWAWgYyYJsUesmEpHNkvrFmGeOgaiDQq82bxMqp7FmiKD5viCh6i4Ci/zyAPQxq1Tq33tmrbazwFRqqKrOKfU2WWgsBHMQ0duCxBr1uhLizr0gKD9F+i/RKrbU8L6cQnomxYx6RMJiRnVLbySiompzfofU9rr8GwEiDmrUml3L3Zu8SRQt3/BBFTHPBOwBmFX0gkEUs+lA1WpCs6XDXO4cC+DYAvjYy8GfAud3q3zNzqe7CNPrN6NLdxfP/zKLPDvFF8Y0Ja5zDWfShanR1k3QDcp1hzdorU+zbl71LFC0s/BBFboUk7zeuSVbQxo6latV2sHi5lPtVQI8QAb9UNXBH2nbw95lLe1NxD2JWsXeyq/59AA7jZTHgkWVFGOJ92Ua3tfVY8ZkHVasgDK4xrU2qcgJ7lihaWPghipgQON6wJt0/v6HmafYsVbtcKvF3b5NzkEKuAcDzqga2HJhs2/Z9mULpkLgmsPnLXQ+rIsXrYaBrSrnKrbf3XzDFfYBxULVbOKXmSQAPmdUqFn6IooaFH6IISa/UWgGOMmyKvoA9S6ZYdKBszKecT4nKiQo8z0QGZHdA/pwp+rE7ALS54J+OEPcA2JWXwYCsheBD+aTzab4+TCYR6EKz2oNjpndogj1LFB0s/BBF6Yb0/CMB1BnUpF5NuDezZ8k02Ubntwl1DgBwB9MYkGFQ/XWms/TpuDQ4XShdrNCbDHvGl4/iNledA3NJ9/cMg0wjnnsTgJJBTaof6fqHsmeJIrTOZAREUZrX4gTD2nNXfqKsY8+Sidoa5ZVcyj1FVGYB4O6D7WdD5IpMwZvbqmrufKT/c+3fE8hPOe8akF6FXpJLOR9ta5RXGAeZaH6TvAbAqKJmaNiclqjacQJCFC1Gne9jqXFfqiD6P7KNzkLLCg8BwLOsBuai1V3e9RcWtca0hk1/VusyRf9mAF9kNw/IE5BwWj6VmAsRnqtFRhORXxrWJBZ+iKK0LmMERNHQslx3AnCgMRMY4PXhln03e5biYH5DzdPqOu+ByJXgwc/bT+WsbvX/OLtDdzbmmd6pu9b3+H8CcBo7ePuvCAV+Wi/OIblkzRLGQXGwoda+A8AGg5o0bcYTOpw9SxQNLPwQRYQX+ocCsM1Zx+kdVySljz1LcZGfKL25pHMhIKcAeJmJbLejQtf/W6ZLx1V7Q9JLe/bxxL8f/Fz7QLwIwYfyKfczHEMoTtrHSY9A7zKoSY5T4x/CniWKBhZ+iKJCcaRJzZHQ+g07leIol3LutB1nfwB/ZBrbrQmh//DMZX0HVGsDZhX7msR27gPQyO7c7nHwXtd33s0DnCmuQrVuM6pBtllzW6JqxsIPUXQmvEcY1Joer9f+AzuV4mreJHmxO+l8SBTfABAwke0y1rGsvzR3elW3YEgXS4daav0VwN7sxu0SiOIb3SnnhLZ95XnGQbFdmKl9FwBjdrqpWXNboqomjICo8lrvVWf1Xv7rAOoNadLtuZR7KnuWCGju8o4NQ1wnwBimsV36BHJuNuX8uhr+sJmifypUfwV+rn17vSSCGdmkyx8LiABkCt7vAHzAkOas7046O7eL8AcQogrjjh+iCFg11ns3zCn6QEVvY68S9cs2uPcGlvMuGPap3jKoUeiNzYVSS/QXaqUMVG8Giz7bOVjgXtd33sWiD9FbmDWHGjm86O3PTiWqPBZ+iCIxyONwo6byjsuveRG9xaIGeak76Zyoglbw1a/tYSvkmnSn9+Wo/gHTRe/rgGQBOOyubeYD+OqElHM8X+0i+q+HHtw7jJriKs/5IYoCFn6IojEoGlP4UeCp/ER5gb1K9J/aRYJ80v2GWDgBwItMZNsfkSL4dnPB/1mramTmLdNV7XTB/7koWtlF2zVGPA/B8bmU++1WkZCJEP2neUl5DsASc57g/LohURSw8EMUiUHROsic8R3csk/0DrIN7r0SOgeJ4AGmsT0FA73wmaJ3Xcuj6lb6z3JhUWuGF/0bBfpJ9sz29CH+lvCdabmk+1emQfSODPoqpExjdxJVHgs/RBWWXqmjAJ1szPAu/IQ10dZkp8ja8c857xPge/3rYdoWCvmYP9L/7fkdWrEz0WY8ocO71b9NgNPZI9vRdcDPEuv5ahfRNs6m7jGoMcnmZTqCfUpUWSz8EFV6aO/zD4I5X9jr3VDr3MdeJdq61mPFz6bcyyDyUQBvMJFto8Bxm1z/TzOX6i7l/m+fs1pHO7X+H2DOF3fKYYOKnJVLuRe3HSwe4yDaOr/HvhfmfNbdCsV/F3uVqMI3IiMgqiwRvNug5tzfPk562KtE2y6XdG5TDQ8F0ME0tvG5CbzXtv175qzQPcr132xepmNr+vy/GXYY/5BS4Em1g2n5pNPONIi23aIDZSOAh815aOtB7FWiymLhh6jSE2NRk9595rkNRAOQb6xZ1l3nvAeQHNPYZu/y/eChWcXeIX9Vds6ynolqBX8FsB9j38axDXpd0OMcnp9cW2QaRAO6iYyZU4mAhR+iCmPhh6jig6E5h96p4H72KNHAtI+TnlzKaRboeQD4Ssy2PD+hE0Xt+9JL+/Yfqv9Gpti3b2A59wHawMS3ia+Cy/KpxMc371ogooE83yyDPgCgwsIPUYWx8ENUQed3aL0qTFlM+MNKzqPsVaIdk00l2lRxHPjJ921bHAFjLNv6a3PRG/RPBqc7S++BWn8DsBeT3iavIMQH8kn3e4yCaAcFzkMAAkNaM7VlrQ5jpxJVDgs/RBXUU+MfYMx9KHj86ibpZq8S7bh8o3tfYDvvFWAx09g6BUar4vfNXd6xg/XvbC567xeRewHswoS3ySO2OO/OTXH/zCiIdlx2imwA8KQhzbFLG7wm9ipR5bDwQ1RJge5rzMJL+ZoX0WBaOFmeGS7OEYBkmcY2GaEhfpvu9D+yo/+iTME/SRW3ARjOWLfh+Q+9rrvOOWZeUp5jGkSDSMSY170sWFPZoUSVvAeJqHLjuSXmDIIiD7JHiQbXFUnpy6Wc2Qq9BIDPRLaqRkRvzBT9Mwb6L8gU/LMBvRVALePcKk+hF+VTiY/zi45Eg09Dg875EXN+7CSqRiz8EFVSCHMGQd97hB1KNDTyqcRcFZwA4GWmsVUJqN7Q3OnP3N5/sLlYmg3oIgAOY9yqlyA4IZ9KXMEoiIaGWr4xcysFWPghqiAWfogqOQia8+vHa/kptavZo0RDJ590/2KLcxDP/dkmtormM4XSRdv6D2SKpU+pShsAm/FtdQH3pAb+Ibmk+1emQTR0FjTUrBDgdTNaI3zVi6iCWPghqpDzO7QekHGGNGcxRJS9SjS05iXlOa/HOQbALUxj66sMQH6aKXif39rfmC56l0Llas6LtsmdnjhH5afWrWIUREP9FBNVxeNmNEYnTX9W69ipRJXBCQ5RhWxyvKn9CxMDhnLlDgSicll0oGzMJZ0zVHAZABZct7JsAvCD5oJ3+Zb+hnTRu1QUlzOqrT/qBfjehKRz6nVJWc84iMq2WnvMlJaM2OSl2KFElXqUEFGFViOWMe86W5b8kz1KVM4HiGg+6X5PRc4CsImBvDMFLk0XvO9D9d/FdlVpLno/YtFnm/RCZGY25V7WKhIyDqJyzhfNmWOpWDznh6hS6zVGQFShgdxSY371EPEfY48SlV8+6bRLqMcAWMM0trZ4whfSXcEVUJVWVStTDK5RxWeZzFaXas9aoofnks4vmQVRBRZrGhgzxxLVRvYoUYWeJYyAqFJzaZ1kSEs2jZtcs4IdSlQZ2SmJR13feQ+AvzONrS46Lsh0BW2risFVgLYwka16SF33vfOTCe7qJKqQN5KJAoBeI6a+lk5kjxJVBgs/RJUa/CBGDH4CLOXWf6LKattXnlfXeR9Eb2QaW3v46hyBfpJBbG2M0uvqxTk2P1FeYBpEldMuEihQMOPBIpPYo0SV4TACooqZbMYYrh3sSqLKy0+UXqie3Vzwl6ng/8GQw+OpAo914Pu5pPslfq2RKBos6BKFHGBAU7jjh6hizxEiKrvmZToCwK4mtEUgS9mjRFG5IUWzjW4rVM6GIa8GUFn1vXmIM4s+RNGhYsxca2x6pdayR4nKj4UfogoILW+yKW1RFn6IIifX6NwIC8cBeJlp0DZ61QLez0OciTjXGkKCUmkf9ihR+bHwQ1SZW8+Yd5zV8pewP4miJ9fgPhhKcBiAZUyDtrIW6wqC4PD5KfdvzIIognMtBAbNtWye80NUidUnIyCqwI2nxnzVoLRxEr/oRRRVC5K1yy3POQLAX5gGvR0B/tRXY7934dTaAtMgiqZNpUQRQGDGMydk4YeoEutPRkBUiVFPJhjSktXtIgE7lCi65jfJa92e8wFAFzANeitVme+sdz50/QR5nWkQRVd7k5QAfZZzYCIaKH7Vi6gSk23o3kaM3Yrl7E2iKlk0qGaaC/4qfvGLAKgo/jfX6LQyCqKquWtXQrCPAQ3Zi51JVH7c8UNUGWPNaIbwNS+iqrld+7/4JdBmAB4DiS1fVc/LNrqtjIKoeqghcy6FsPBDVAEs/BBVZtgzovCjoivZl0TVJZtK5AX4MID1TCN2utXCyfnGxC8YBVF1EUPmXAIZy94kKj8WfojKrFXVAmRPE9qi3PFDVJWyKfceDcIjjTkzgrbFWkv06HyD+ztGQVSVcy5Dfmzjq15ElcDCD1GZrVqF3QG4ZrQmZOGHqErlp9Y8JaF7KIDHmYbxng5s57D5ycQ/GQVRlRJj5lx156zW0exQovJi4YeozGzfG2NMWzz3GfYoUfXKTpG16jrHQnEv0zDWPSVxjlg4Wfi8JqpiCc9dbUpb6rwSd/0QlRkLP0TlppYp7zb3zG+S19ihRNUtP1HWdfvOByF6I9MwbbzRX7rrnQ9flxSe50RU5cZOxYsAfDMeTRbP+SEqMxZ+iMos0NCUL3qtZW8SmaG9SUoTGtxzAPyMaRjyhBb8OJdyZ7YdLPyCG5EBWkVCAC8Y0RhVFn6IyoyFH6KyT8ZldyPGbOga9iaRWYuKXMq9WKGXAFAmUr2PZ1F8I5t0PwcR9iORWQyZe8lu7Eqi8mLhh6jsU3LsYsbDQ7njh8hA+VRirqikAXCnSPXxRfQT2Ua3lVEQGcmUudcu7Eqicq/diKjMd50aMdipCHf8EBkq2+gsBOQ0AJuYRtXYqCqnZpOJ+YyCyFCGzL1UhIUfonIvQRkBUdlHu12NmHuEeJ6dSWSuXMq501I9FsArTCPyXoOF9+cbnbsZBZHBQkN2W6uy8ENUZiz8EJWfGTt+LHmRXUlktvmNiX/YCI8GlJ8Cj+4CarVqeESuwX2QYRAZfrtbasTcS/mqF1HZsfBDVHZm7PhRUe4CIIqBeamapa7vHgrBU0wjcpbalntkvrFmGaMgisPCzTJi7iUs/BBV4PlBRGVmxvZWy2fhhygu2vaV562S8z4ADzONyKycHnXVOXpeUp5jGETxEAT6qiFN2ZW9SVTmtRsjICqf1nvVAbCTGQ+P4FX2KFF8zG+S1+o85wQA9zCNivtLCc5xbY3CAjxRjIiEpsy9doaqsEeJyrl2I6KyWbEndgJgxEDXY9ey8EMUM1c3Sbe6zskAbmcaFXNLvTgfvC4p6xkFUbyIlTBl7uWevwTD2aNE5cPCD1FZb7jeEYY0pcRFB1E85SdKb3fSOQ2QLNMo86JPddGENc5ZVySlj2kQxU93A14DEJrQlk3DUM8eJSrnOpSIynnLmVL44esFRDHWLhLkkvYcEfyYaZSHQK4Yn3LTrceKzzSI4vvsBbDOiMaEfSPYo0RlXIUyAqIy3nCOZcqvG+vYm0QxJ6LZpPs5UXyDYQwtVXwlm3IuahUJmQZR7B++r5vxXLNGsi+JyrgOZQREZWXKrxsb2JVEBADZRrcVop8FoExjCNZGohfkG93vMAoi2vxYMGIOJirc8UNURiz8EJV1rBYWfojIOLlk4ieqeh4MOXsiIgIVnZNPJq5mFET0Ft0mNEJUeMYPURmx8ENUViELP0RkpHxj4heqci4Aj2nsMB8i6XwywQO0ieg/iTFzMO74ISojFn6Iyig0ZZATZeGHiP6PfKNzg4qcDqCXaQxYn6pMzyWdXzIKIvq/k0lDXvUy58dQoqrAwg9ROQc5Q7a1Smh1szeJ6O3kk84donIagJ4t/k08DWhLNgpwUr7R+Q2jIKK3X71Z641oB8/4ISrvo4MREJVzjEOdEQ3hjh8iegfZRue3FvBBAG+/QBFm9DbeCEN8IJty72EURLTFuaSqET++qaCWvUlUPiz8EJX3hksYMVgbcrAgEQ2d+Sn3byr6AQDrmMZWvSqhHr9givsAoyCirTDixzcFatiVRGVdhxJR2QY5NaPwI0Afe5OItiafTDxsif4PgFeZxha9pEF4bHZK4lFGQURxmYOZ8mMoURXdc0RUvsFajPh1I4Ty4FYi2ibzk4l/WqInQFgwfhu9thOekJ9a8xSjIKJtm0uiZEhDXPYmUfmw8ENURqEh21qNmXQQUXmefSqzoNzW/zZq/cBuYQxEtO1zSTViDqYQ7vghKiMWfojKesOFfNWLiGIlXfS+DuBiJrGF56nqBc1F7zImQUTbuHgzYg4mPOOHqNzPDiIqF1MOslNYLPwQ0VZlCqXzRNHKJLbyTFV8J9NZmsMkiGhrQjFj17VqyB0/RGXEwg9RGYklpuz44ateRPSOMkX/VECuYhLb+FgVuaa54J/OKIjonRdvxvz4xsIPUVmfHURUNqGacZCdKb82EdHQyCzz/geqNwKwmcY2sxW6aHbBO5pRENGWqCGvevGMH6LyYuGHqIxEDLnnRD32JhG9nUyxdBAs3Aqe3zAQdSFw28xlfQcwCiJ6OxrCN2IqyXUoUVnxhiMq5yAXQoxoh0LZm0T032YVeycjlLsAjGQaAzbKtqw/ppf3JhkFEf2fOZjFORgRbT8WfoiIiGiHzejS3S21fwvBnkxjh+0ugfPb9EpllkRkJBEzfgwlqhYs/BAREdEOObeoI53Q/x0A7lIZNDoZnv/79EodxSyI6E0CM3b8aMjCD1E5sfBDVM5BzpBfN0yZdBDRjpv+rNa56t8B4N1MY9CftQeI59+aXqm1TIOIACA0ZQ7GHT9EZcXCDxEREQ3IdFV7eI+/SAB+iWrovE9K/g2t96rDKIjIICz8EJURCz9EZaQc5IjImAeayvBCcK0ApzOMIV8enbp6r+AqBkFE/MAGEQ0ECz9ERES03dIF/zsiOptJlIu2ZDq9bzAHIjIEfwwlKiMWfohou4XCZwdRnKULpYtFcBmTeJOiLMduCP5fulg6n3kTxfhpY8jZONwFT1ReXLwRlZEAvhHtCIVnTRDFVLronyyQHzGJ/3q6l2kNIypXNHf6H2XmRDFdvCkSRrRD4LE3icp4zzECojJSMwY5UbjsTKL4SXeW3iOqNwCwmUYF132i16WLpUMZBVH8hIbMwTTUEnuTqIyTB0ZAVEam/LphsfBDFDfNhd5JInIngGFMo+LqROWO2V29DYyCKHarNzMKP9zxQ1TmRwcRlXOYM2KQU5ixzZiIts3MpbqLwr4bwO5MIzJ2DUP7jtkdujOjIIrT4i00ZA5msfBDVNZnBxGVkxnbWjXkjh+imEiv1FrH8W8D0Mg0ImdK6Pq/ubCoNYyCKCYMedVLTJkTE1UJFn6IyjrKmfHrhoCvehHFY4GhAs+bp4ojGEZkHdUNbwFU+YUcohgIwVe9iGj7sfBDVNZRzpBBjoc7E8VCpuh/XyDnMonIr6DOau7yv8UgiGKweFMx41UvVRZ+iMr57GAERGUd5YwY5EIIXysgMly6WDofwOeZRLWsofDldGfpE0yCyPB73ZxzFln4ISojFn6IysuI95ktwXB2JZG5MgX/JFH5GZOoLiJydbrL+yCTIDL5RjdjDsYzfojKvH5jBETlo0CPCe0IlZ9zJjLVrK7SNEB/BcBmGlXHkRA3pQuldzEKImPnkqb8+NbD3iQqHxZ+iMp5wwk2mdAOERZ+iEyUXtqzjxXInQDqmUbVGiGQu2Yu1/GMgsg8AjFiDiaiG9mbRGVchzICovJR1U1mtEP4qheRYc4t6khxnNsh2JNpVL2xduDfnV6poxgFkWFzSYTDDWnIJvYmUfmw8ENURiIw4tcNS0IWfogM0vKoujXq3wLF/kzDGE3i+bdO79AEoyAyaPEmhvz4JhZ3/BCV89nBCIjKR9UyY8ePIduMiQiAqng7efMUOI5hGOd99W5wDWMgMocx5yyG3PFDVE4s/BCVkSk7fgT8qheRKTJF/5tQmckkTKWZ5oL3NeZAZMjizZQvq1o844eorLccIyAqnyA0Y5BTHvxKZITmYmk2gK8wCbMp8I3mTp/FPSIT7mc1pPDDHT9EZcXCD1EZ2ZYxg9xO7E2i6tbc5R2rKlcziVgQFZ2XLngnMAqiamfGoe3CHT9EZcXCD1EZ+UFoxiCnGMXeJKpes7v69tMQtwDgwb/x4Qpw88xlfQcwCqJqJkbMwTw/ZOGHqIxY+CEqowTCDWbMObjjh6hatSzRMWFo/RZgATeGRtoit89ZoXswCqIqpCoARpjQFEdqutmhROXDwg9RGW2qq11nSFPqLixqDXuUqLqkV2qt5/i3AtibacSUyITA82/hM5yo+rSswEgAtglt2TAcr7NHicqHhR+iMkqNxxsA1IS2rOOuH6LqoiriefMBHMIwYk5w+MbQ+wWDIKouveacsVhqHyc97FGi8mHhh6iMWkVCAEa87iVe3yj2KFH1aC76XwXkHCaBXghiv+BQkRnponcpLweiKuKVTJl7rWNnEpUXCz9E5Z9uGzHYuZY1in1JVB3SBf80BVqZBDy18FFRnAKgFPcwRPGdTNE/lZcFEedeZX32CAs/ROXGwg9RmSnEiMFOLTO+KkFkukyxdJBAF3LMRwjIrHyD+7tsyr1HVD4BQ1693aF5oOov+aUvouoQiBjxqpcq3mBvEpV7wCeishKYMdiFoezM3iSKtvRK3ROK3wAYHvtnr+jncinnV2/+72yjsxCqF/EqQT2/9EVUJQs3DXcxpCnr2JtEZX5+MAIiDnYDW0WFu7EriaIrvVJrxfNvBWRc3LNQ4JvZZOKn//3/P9eYuBLA92N/sfBLX0TVcrMaMfcSFn6Iyo6FH6JyD3Zqxhk/pkw+iIykKvC8eQAOZRjSlk+5/29LfzWXdC5TlfmMCYd3w2vj9UIU4Uc7sKsZzxszjj0gqiYs/BCVfbCzjBjsBLIrO5MomjJF/8sCOZdJ4JbupH3+VhYgus9a+5MA7uCqUmZmCt4XedkQRXb2ZcTcS1V5xg9RmbHwQ1T2ebW+YkhLuOOHKIKaO/2PAvhfJoG/qOuc2y4SbO1vbD1W/O465ywA9zE2fJdf+iLi3GuIvcy+JCovFn6Iyj9omzLYsfBDFDHpQuldKroo9uO74Cl1nY/mJ0rvtv4j7eOkx7WdkwE8Hvu5Ib/0RcS5F+fCRIYN7kRU7tuOhR8iGnTplbqnALcj9l/wkhXqOO/PT9z+MyTaJssbEjonKmRlzC+nelvk9hldujvvLKJIPd+MmHupWK+wL4nKvAJlBERlH+5Y+CGiQcUveP3Ly0Hgfyg/UV4Y6L8gO0XWqvgnAHgx3utLmeAE/q380hdRpOaQhpyvGHLHD1GZsfBDxMFuoHaermqzP4kqvQ7gF7w2e0Oh7184tbawo/+iBcna5aGlJwLYEOtEBYd3q3ctbzKiypveoQkAI01oiy0hd/wQlRkLP0RllzCl8GMPX8VdP0SVli74X+IXvOApMD2fSjw+WP/CBQ2JxWrhTAB+vKOVWc0F7wu804gqa6RgDAAxoS29WvMSe5SovFj4ISqz7ga8BiAwoS3ie2PZo0SVk+70PyKCb8Y8BhVoSz7l/nGw/8X5Bvd3IvrJuF9nClzeXPRP4R1HVDmB640xpCml6xpivpuSqAJY+CEqs82fFn7diAeIWmPYo0SV0dxZOlD4BS+o4BvZVCI/VP/+bDIxH4Lvxn2+qKrX8UtfRJV82Fmm/Nj2CkSUHUpU5oGcERBVhBGvewUacscPUQXMWaF7qOB2APUxXwn9Kt/g/O9Q/1dyDc5XRHVRzC87fumLqJKLNg1N+bGNBzsTVeIZwgiIKsKIr8WIJdzxQ1RmFxa1JvD9WwEZH+ccBPhTt+emy/LLsYgOt9xPAPhrrC8+kQlO6P968yGzRFRGKsbMuXi+D1EFsPBDVJnh+3kjWqEs/BCVWzeCKwEcFvMYloSuc0Z7k5TK9R+8Iil9ru2cCuDpmGd/5HA3mMs7kajcxJBd1rqWfUlUfiz8EFVk7BYjBj2B8lUvojLKFEufguqcOGegwPOW73w4P1HWlfu/3TZZ3tDAPxmG7NrcgWf/J9OdpU/wjiQq69PPjDmXIXNgomrDwg9RJca8EM+b0RCw8ENUJs1F7zCo/CTmMWyyVT8yf19ZXak/QH5q3arQ0hMBbIz1OCZyVXOndyTvTKLyUMCIXdaqZux6J6o2LPwQVUAoYsagpyz8EJVDyxIdEyp+DaAmxjH4qjJ9fmPiH5X+gyxoSCwWkXMABDHuD1cFN6RX6p68Q4mGnsCQOZdYL7A3icqPhR+iigx6xrzfvCcP+SQaWi2Pqus5/o1iyK+9A39s6iX5RufuqPx5sknndkAviPnluZeUeNgz0ZCPA2t1GIBdjXiWi65hjxKVHws/RJW48YLAlG2u1k52717sUaKh440MrgRwVJwzUMXl2cbEVVH7c+VSiWuhiPfrd4LDhyeCH/NOJRo6pQ0lY77iaPs+X/UiqsSijREQlV+fXWPMoBfYznj2KNHQyHT6swBtiXUIqjftk3K+EtU/3oSU83kFfh3nLhLVC5qLpdm8Y4mGaMFmWcbMtd4YXstXvYgq8RxhBETld11S1gPoNmJNBmHhh2gIpIulQyF6bcxjuE8T7qxWkTCqf8BWkXBjnTMDigfj3FGqcuXsztJ7eecSDcH9Faopc63X2sdJD3uUqPxY+CGqHCN2/YjqBHYl0eBKr9Q9ReVmxPsw507Lcz6Snyi9Uf+Dto+THljORwDpinF/1YaCm2d06e68g4kGea4F2ZtzXyLaESz8EFWK4jlDpiN7szOJBk/Lo+rC828EEOfzs15ROzh5fpO8Vi1/4FxSXg7F/yCAl2K8PB3nqn8LD3smGlyhiBE/soniWfYmUWWw8ENUudHvGUPawVe9iAaRNzKYK8DRMY6gRwSn5CfXFqvtD74gWbvcUj0ZwKa4dp4qjqh3/e/zTiYaxKmWIXMtFXmGvUlUGSz8EFVq8IMhg5+Cr3oRDZJ00Z8B6KdiHEGokI9nk+5D1dqA+Y2Jf6hIGkAY4368OFMoZXhHEw3WXMuU8xSVO36IKoSFH6IKEVVTfvXgjh+iQZDuLL1HVNtivbaBfjafcm6p9nbkk067AJfFfJS7KlMsHcQ7m2jHtKpagBrxWr0od/wQVQoLP0SVGvwsYwa/eh7mSbRj5qzQPUTkFgC1MX4qZvOpxFxTWpNNuT8AJM6FvDoobs0UdTfe4UQD91wXxpoyNqilq9mjRJXBwg9RpQSBMYOfq/5kdijRwLTeq07g+zcCiPNB6fd1e7Zxr7i56+1PA/hLfLtVxgP+Da33qsM7nWiA00WYM8eyA587fogqhIUfogrZMLzmGQBqyOR+EnuUaGBW7x38BMAxcW2/Qla66pzW3iQl09rWdrB4QeCcAchyxLeD/2f13v7lvNOJBnoPqSlzrPCNoHYNO5SoMlj4IaqQ9nHSA+AVM+b1yh0/RAOQKfofh+qnYxzBepXg5LZGecXUBi6cKq/aCE4G8EZ8F674XKbTn8U7nmggjPlx7XkTC/xE1YKFH6JKDuWAIV/2Uu74IdpO6ULpXVC9NsYRBBbknAXJmg7TGzovVbNULXwMQBDfAU9/PqurNI13PtF2T7JM+XGNr3kRVRALP0SVHMoBQ875Ee74IdoOmaLuJsBtAIbF9/mnn5ufcu6KS3vzDe7vRHFpjC/7Ogmt9plLdRc+AYi2a45lxo9roiz8EFUQCz9EFR0EsdKMBRxY+CHaRq33qoPQv7H/4NvYPvzaTPqC17bKNro/AiQX3yFPJ9q2/6vpqjafBETbzIg5loaykl1JVDks/BBVchCErjBjMo89W9bqMPYo0dat3sv/NgTHxjiC+7o9+8K4Nt5db5+HWH/pCyfUF/1WPgmItu7coo4EsKsZc0Vdzh4lqhwWfogqOgga86UXCTaVeM4P0Vaki/7JAL4Q46fe8iBwPhrnAz7bDhYP4pypiPWv319u7vQ/xCcC0TurhWfOjmqVFexRosph4YeokmOgFRgzCGpgJ9mjRFs2e4lOENUcAIlpBBssK/jIwqnyatyvhVxSXnYQnIj4funLguh16aU9+/DJQLRlYWiljLnpQ4c7fogqOvASUcUkXq9ZBVO+8mJpI3uU6O1dWNQadfxfA4jrwbYBIOfMb6h5mldDv7h/6UuB0bCdG6d3aIJXA5Hxcytv/VQ8xw4lquDjhBEQVU7bweJB1YiBMFRh4YdoCzZo8FMFYvspa4V+Lpdy7uSV8J/yDe7vAFwW1/YL8N561/8BrwSiLTw7VU3Z8bOqXSRgjxJVDgs/RBW/C80450fAHT9Ebyfd6X9MoJ+MbwKSi+MXvLZVLuX+UER+EeMILmou+ufySiB6m6enmPGjmij4mhdRpZecjICo4sOhKef8sPBD9F9mLu1NiWhbjCO4v9uzP8kr4Z05b9gXIMZf+lLVa+YU+qbySiD675sDhuz44cHORJXGwg9RpYdCcz5vuXOmqLuxR4n6zXhCh9u2fSuAETFdsayCOKfF+Qte26rtYPGCwDkD5nzpcXvVB7Bualmrw3g1EPVrWaJjAIw0oS0hP+VOVHEs/BBVfDA0Z6Ivoc9dP0Sb2XXetQD2jWnz10P0xFxSXuaVsG0WTpVXLSv4CIANMY1gP687uJJXAlE/z/VT5rSGO36IKo2FH6JK07BozhOF5/wQAUCmWPqUQOJ6bkkIyLm5ZM0SXgnbZ35DzdNq4UzE9EtfgGbSxVIzrwQiQNScOZVYQYE9SlThZRojIKqsRL1b6F8oGbDa45e9iNDcWToQKj+K7WJF+AWvHRH7L32pXJUplg7ilUCxJ8bMqQJ1EtzxQ1RhLPwQVVjbWNkEmPFJdwF4OCfF2jmrdbSKdQuAupiuVHLZZOKnvBJ2TC7l/hCiC2Pa/Fqo3HBuUUfySqA4U8UUQ8aF1fmJ0sseJaosFn6IojEodhoxSYE0sS8pxrN0qenz5wM6KaYJ/LO7zr6AF8IgXU6Oex6AR2La/GRC/UVQFV4JFOOnwH5mTHG1k31JVHks/BBFYlA0o/Aj0AkzntDh7FCKo0zR/wKAj8a0+S/a4pzSPk56eCUMjvxE6YXlnA7gpZhGcEpzl3cxrwSKo/M7tB6QcSa0RRUs/BBFAAs/RFEQhqYMipZb4/F1L4qd5qJ3GIBvxbT5PgRnzUvKc7wSBleuQZ4VxekAvDi2X1W+P2uZdwSvBIqbHtdrAmDEjjcL3PFDFI17kYgqP7k1ZMcPAECsfdmjFCczunR3VbQDcGP5/IJ+Npd0/8orYWhkG937IXppTJvvWhZuyBR1N14JFCci2M+YxljCwg9RFG5FRkBUeaHtGDMoqijP+aHYaFW1nND/JYC9YhmA6i/zqcQVvBKGVi6Z+IlC8jFt/t6i/q+mq9q8Eig2j9bQnDMT/cDhp9yJIoCFH6IIWDgJzwLYZMRkBWDhh2JjddH/BoATYtr8x90R7nm8CsrEtT8lwOJYLoKB4+q7/K/wIqDYXPNizFxq48IU1rJHiSqPhR+iKBBRAEUjmgLu+KF4mNXpHQfgSzFt/qt26J/WNlY28Uooj/xE6RXfOR3Ay/FcCePrzUXv/bwSKBbTQnN+ROvcPMclogpj4YcoMoO8LjWkJROal+kI9iiZLNOl4yzBDQDi+PqJLxamz5tSt5JXQnnN31dWh4qzAfhxnLOqYtHMTt2LVwKZrGW57gRgrAltUWPmtkQGDKKMgCgqg6N0GNIUEeGXvcjgSfmj6iL0bwKwaywDEP1itsG9l1dCZSxodP8kwJdj2vzdbfFvaL1XHV4JZKo+z98PhnzRS9SYuS1R1WPhh4iD46ALgAPZo2Sq0kj/2wAOjWfr9fpcMvETXgWVlU25PxDoDTFt/pGr9/JbeRWQsfNBW42ZQ6klT7NHiaKBhR+iiPBD35xfRSyLhR8yUqbofUCAz8W0+U+49e4neBVEw4Y6txnAYzFt/peaC97xvArIRKLmzKEs9bnjhygq9yMjIIqGnik1ywH0mjFpURZ+yDgzunR3hMjHdOx8TRDwMOcIaR8nPRr4pwN4JY7zVwV+mV6pe/JKIPMYM4faND5Zs4r9SRSRgZMREEVkEi8SKFAwpDkHQFXYq2SKVlXLCf1fQhDHhWYAwTnZVO0KXgnRkp9at0qAswEEMWz+HlbJz3GsIdPGGgD7mdAWAZa2ioTsVaJoYOGHKFKDpJqyJXZkc7FvInuUTLGqy/8CgBNi+VxSXJpLur/nVRBN2ZR7DxRfi2PbVfDBTJd3Ca8CMsUznX1JAMONuD+hPN+HKEJY+CGK1hLLnHeh1eHrXmSEdGfpPaL433i2Xn+VbXR/xKsg2nIp53Ko3hTPS1S+lymUDuFVQGZczs67jJnRgl/0IooSFn6IojTgG/XZS57zQ9WvZbnuBLFuBJCI3fMIeNLv4WHO1bHCEq3z3dkA4vgLuwtY151b1JG8EKj6V2bmzJ1CfsqdKFqPF0ZAFKFBMvSXGPR0YeGHqp4XeFcLNI6vLb6mEpy26EDZyKugOlzdJN1qB6cBWBe/1uvkROj9glcBVf+lbM7cyQ5sFn6IIrU0I6LI2Pxlrx4T2hKqsPBDVS3TWZoDyDkxbHoggrMXJGuX8yqoLvnJtUUL8nEA8TtQVeTMTKc/i1cBVbkDDGnHhvlT8Qy7kyg6WPghipB2kQCGbNUX6D7plTqKvUrVKFPs2xcic+PYdhV8JZt0/8CroDrNTzl3QfCNWDZe9MqZS3tTvAqoGrV06q4A9jbiVhQ8CRFlrxJFBws/RNEbLZ8wpSVW4L+bHUrVJr1Sa6HW9QCGxbD5d+YbnO/zKqhuExqcb0Hw2xg2vd527JvTK7WWVwFVG8/yp5nSlhDyOHuUKFpY+CGK3GgZmlL4gYaYxg6laiNe8GMghmdUqa4OAifNX2mrX6tIaJWcjwO6Kn7XMfYXz7+cVwFxzsS5LBH9Gws/RFFbdBr0K4lAWfihqtLc6X8U0E/FsOl9oY3TF06VV3kVmGF+k7xmKc4CUIph8y/KFP1TeRVQVc2ZxJzCjw2w8EMUMSz8EEVt9WU5TwIw4hd3hbDwQ1VjTlH3VtFYfhlIoJcsaEgs5lVglvmNiX8o9IuxXEOr5mYu1/G8Cqh6Jk3G/FgW2CPcp9mhRNHCwg9RxFyXlPUKWWVIcxp4wDNVg9Z71Qnh3wBgl9itkKE3ZFOJa3gVmCmfSsxV6HWxW0MDo63AXzRd1eZVQFE3c6nuApEJhjSn2DZWNrFXiaKFhR+iaC7EHjemKb7/LvYoRd3qvfyvq+KIGDa9E6HbwivAbMM895MAlsZvLMXRI4r+l3kFUNTZjn+wOTee8jUvoghi4YcoglTMeTfa4gHPFHGZoncMgC/FsOkbIeFp2SmygVeB2a5ukm7LCs8EELtf4RVobe7yjuVVQJG+To062FlY+CGK4pqMERBx0BzSyYzwgGeKrtkdujNUFwKI3esgonJ+LlmzhFdBPMxvqHlaROK4u8vSEAtnLtVdeBVQZJ/HBh3srGDhhyiSgyEjIIoeRz2DBk05iD1K0ZydqoSuvwCQ2B0Aq5Brso3OQl4E8ZJNOtcBko1h0/d2HH8erwCK8DP53cbMYS37SfYoUfSw8EMUQfMaa1cJ8LohzUm2LNed2KsUNc1d3sUATopbuwVYDNf+DK+AeOqusz+NGH5qWRUfae4sXcArgKKmpVN3Feg+hjTnpXlJeY69ShQ9LPwQRXJlJgrgMVOeM37gv4edSlEyc1nfAary3Rg2fR0QnJmfKL28CuKpfZz0WFZwBoA34tZ2FflRulB6F68CipJAgkMAiBnzVyxmjxJFk8MIiCI6QQUWAzjOkLYcAuAe9ipFwYwndLhj++2qqI3dY0UknU3WrqjkHyK9UmtLFurqe2H70jfy34sfCMQataV/zg5l9Jb+Wihb/muWhqO35c8VivX6lv8dusW/Flhb/mvQcJ2t0H9NurRmfXctgkSInkoW3+Y31HY1F/zZCm03ZsG5bWoEcv30Z3Va+zjp4dOQoiBUfa8xd6Gy8EMUVSz8EEWUiCxWVVOacwh7lCIz8NUFP1ZFKoZN/0Eu6dz25v9Ir9RRYQnDEfYNF9caYUNGaijDVVBnAQloOFwBUZFRACCKEQI4CtQCUqcK2xIdCQAhsJP07yIeLkBCBQmoDFdALOio/vUARgBw4PmoAeAJ8NYztS3t/5u2vJ54h+flOzwrdRtXVO/879gyK3ynf7/9H/+sJz5q+vr/35mCBwC+ABv6M5R1AihEN4qipIo+CDYpEFqbd+eEKutFEADaI0CvAr5K/z8vqpv/eWtjCJRE0SOWbgyg69ULN8Cq2WglsDE/UdYBQDbl/Dpd8OYKcEnM7oOp9b3B9wFcyKchRWPCZ9AcSeRRdihRVB81RBRJs4q9ky21uwxpzku5lLsHe5UqLd3lfVBC3B3D8W8DFM+pYJQF1CowEjH8khn9h16FvG4JdlLVYTFru1qQk+ennLt4GVBlr0SVTNF/GYARX52zxRnHM36IoomFH6JoTwZeAbCzEc0J/In5qXWr2LFUKZmi7obQfxKCPZkGUey95FvO/osa5CVGQZUyc2lvyrbtTkOa83Iu5e7OXiWKJh7uTBRVIirAP41pjuXydS+qLPXns+hDRJvt7qp/LWOgii7EHMeg17zA17yIovy8YQREEV6nwqRD8pSFH6qYTKF0HoCTmQQR/WtUUnwkUyhlmARVkDlzIx7sTBRpPNyZKMJMOuBZLLyXPUrlMv1ZrRvR0zcGao8NbZmKUH/KVIjobUana5oLwa6h6DKVcK3tu89vaMSL7SIBs6Ehv/oM+lFMVVj4IYr084aIIsuwA5573fXOyLaDxWPP0kDN6NLd7dAbC7HGCcK9oTIW0HGA7KnAGAC7CbAb+MMGEQ2cB+BlAC+L4nkVfVEhzwh0DWCtEQ2fVctdm0vKy4yKBiq9UmvF898AkDCiQZYzPtcgz7JniaKJhR+iKFOV5qL/qgKjzWiOvjffmHiEHUtv55zVOtr1vEmi1lhLwzFQGasiYwCdBGAsgPEA6pkUEUVEnwKvWcBaACsUeF4FawFZYYX6PCRYO35NzTOtx4rPqOi/Zbq8wxHiAUOaw6+3EkUcfxElijIRDQveIwK834TmWBaOAMDCT8xM79DECBu7Bo435l9FHcgkqG4u7MgkQMejz3f6f49QKGTzTxPKAIkoqmoEGLN5t+E0ABDtf26pAICN1Xv5aC54r2NzYQiQtSq6wgrleYiuDSR8PtyUWLXoQNnIOONFFUcZ9Av839mjRNHGwg9RdQymRhR+QpUjAfyUXWqW9EqtRam0jwV7YmiFE0VlogITLWAfVewF8fdUAFb4lqIOAMibU14Wd4jI4AV+/67daW/+L1FA+ytEsNSCVedrptN7ERaeg2KVAitFdKWE1qoQwcoRVmLlFUnpY5JmEcWRhs1ViSjCWPghijgb8vfQkIWxAEdDVSDClX6VectrWJMAnSQqk/pfwZJJ8Px9IJalUEj/z9yb9+2ALxQTEW3L8CjYE4o9ARzcv9lRoKIQWOjWf+8a+vf/6QpAVgDBCr5OVoVUBUX/cHMuYBZ+iKrgPiWiKJu5VHexbf9lU+7XIAgaF06tLbBno2XLhR2MBTARQB1TIiKKJA+QZ0X0eWj/eUP/URhK1qxqFQkZU3TM7urbLwytpwxpjqrr7JyfKOvYs0TRxR0/RBG3cKq8min4Kzcvwqv/oeNYRwFg4afMWu9VZ9X4vokSOI2qmhJLJqrqROkv6kxEn1/3ln064OtXRERVwwV0kireMk9487ciG6uL/qZMwVsJYCWAFSK6Mgytgm37hXHP1qzibqHyC1WOMqg5y1j0IaqCNRgjIKqKKcLf+w/ANWGyYx0JYD77dGi8uXPHDqwmiO4LYBKASavh7yuBXQdo/9E6qtzySUQUD8MANG3+v3+9cR2GNlbv5XuZgv9s/w4hLBFox5s7hbLJmpV8NXuIGHW+j/6DHUoUfSz8EFXF/AB/F+BsE9oiMOoww4qY3qGJEW7f3qE4TYDu+5bXsvZHn78HIP86OJSIiOgduJvHj0kAjte37BTKFP03pOB14c1zhVSWBHbYMbzP7by6SboZ3Q4xZy4kPN+HqErWYEQUdeli6VBReciYB0/o7JWdImvZs++seZmOheXv++Yhygo0AbIvoPsAsJgQERFVaAHxOgRLVKVDpf88IUWwZFNDYlm7SMCEtmxOUfcO1H/WnItBp+WSicfYs0TRxh0/RFVgBNx/dsPvA1BjQntCOzgCQDt7tn/3znCr1AjLbrIs3V8VUwA0AmhQ+DX/mmL/C3fyEBFRZSkwGoojAD2if4Np/xfI6ot+X6bgFQEURLAsDOUphEFHYmNiWdvB4jE5IERwjEHN6XXfcJ9irxJFHws/RFXgiqT0ZQrekwDeY0J7RPVIxLDw8+YOnhDaZCmmQWRfhd8EWLWAQlnTISKi6lYDYD8A+6mi/4gg24I30vczBf8ZQJeIYnFoSUdcdwiFiiNNeeVCBItZ0COqDiz8EFWPB2FI4QeGn/NzzmodXdvrN4Wi0wTWviLapIoDFX49AAgEyhdtaQco+K42EVXbmqP/LCEVnCT6rx1CpUzB6xKgA4oloSWLLfU7TD5YWqDGzIFU8RAvbaJqefYQUVVIF/3ponqTIc0JXNvZpW2yvFHVfbJSR2ngTbYDq0lFpwHYF8D+APbgFUtERDRgbwjQBdUloWCxBemwHOepeZPkxWpu1DmrdXRNn/8KTDmnT+QjuaRzGy9Xoujjjh+iqrlb7fvg+aa0xvZC/1AAv6+GP+z0Dk3UJ7z9FHiXBWlSxf4AmuD5Y4Vf0CIiIhpsOykwDSLTBJihAALfR6bgrVXgaRE8BdUOCJ7oLrlPtzdJqRoalSgFR8KcjzMoYD/IS5WoSpaSjICoOuQnygubD0xMGjJdOBIRLPy0PKpu306llB3a01R0mgimqfrToFIr4NHKREREFTRWgLFQvB8QQIF61/czBa8gqotDwWJLZbEzwnmsbaxsitof3lI9wqB5xLJcUl7mJUlUHVj4IaoiCnlAoElDmlPxd9zP79D6Xsd/11vP4vHUf4+lVuLNXTw8cJmIiCjy65l9VWRfAWaoAF63H2QKXqeoLg4t6QBkiV2yH5jfJK9VdB6nOMqcgzbkPl56RNX1oCSiKmFJeL+qpA1pziHTOzRRru3Z5xZ1ZE3oHxCKTrMU01RkWg/8KQAsQf9eHhZ5iIiIjGDjzWLQ5s/Nh66PdMF7XoDFm78stlhgP1yuXSvTn9U69PjTTAlYBffzMiOqHiz8EFUR3w/vs23blObUjUj404DB/yLEjC7d3YZ/EAIcBMFBgBwk6k9U4Re1iIiI4kqAMQBOevPLYoCPTMFfAehjqvgnbDwWwHlsUYO8NNj/7fpe/73o/9y9IZNSjzt+iKoICz9EVWTh1NpCptN7AYI9jWhQ/zk/O1T4aVmuO20+KPoQKA4GcBBCf683Z3hv/oeIiIiI3mYyMgnAJBGcgRBw4CNT8J4D8BgEiwV42LGcv+/wl0gVRxoU2pr81LpVvHaIqgcLP0TVRvAggNOMmGr1n/Pzg239+6er2sO6SlP+dfAycIQX+O+GOV/IICIiosrbG8DeUJyiALygf2eQaPhAKFisFu7fNNl9vF0k2Obpm+JIU3YcC5S7fYiqDAs/RNU22IrepyqnGdKcI1tVrVaR8O3+Ysty3ckP/Pegf7I0TYr+EQpr9L8OXublQERERGWhk1RkkgAzJATqi353c9F7QhWLVeT+QOy/bukVsemqthb9w4xJQvEArwei6sLCD1G1CXC/Qftbdl7d5b0LwGOt96qzcu9So61yRH+hR6Z5gT8V/cfy9E802PtEREQUDfWqOALAEaJ6kaP9h0dbwP0h9AFLZfFwy3nkiqT0jSx400KRnUxpuADc8UNUffctEVWT1nvVWb2X/xqAESa0xwL+GPY/i44AUMceJiIiIkN4AjypQAmAKTt+3uhOOrtsz2tuRFR5LPwQVaFMwfsjgOOZBBERERGV0d25lHsiYyCqLjwQlagKqeB+pkBERERE5Z2Ecg5KVI1Y+CGqxjE35KBLRERERGWeg4JzUKJqxMIPURWqGeE8hP73xYmIiIiIyqEPCecRxkBUfVj4IapCbWNlkwKPMwkiIiIiKpNH8hOllzEQVR8Wfoiq9eblOT9EhlBGQLzEiSj6tzLP9yGq3rUjIyCqUqFw8CUyAj+wSbzEiSj6bOHck6hasfBDVKUc2PeBv6OSSXg1ExERRVUIz36IMRBVJxZ+iKpUW6O8AqCTSZAxuCuAiIgokhR4en6TvMYkiKoTCz9E1bxOFrmPKRARERHRkC4ala95EVX1PcwIiKpXqPgLUyAiIiKioaQW7mUKRNWLhR+iqh6FwyJ4MgoRERERDdV0E1AX4QomQVS9eKICURW5sKg1G+Efo5CTofgQoJOZChERERGVYenYBejdCty50XP+2t4kJWZCVCV3LyMgiraZS3UXywn+xwrDk1XkFAA7MRUiIiIiqqBNAP4s0Dsc372jbV95npEQRRcLP0QR1FzonRTCOlkgJwF4HwCHqRARERFRBIUC/BOKOwNb71gw2X0MIjyKgChCWPghioDWe9V5Zqx/KAQnKfARAI1MhYiIzKecjhKZd1+vAqw/qODOEbD/cEVS+pgJUWVxpCWqEL7CRURERESG4ythRBHAwg9RGfEVLiIiIiKKKb4SRlQhLPwQDaGWR9UtjfTfJyKnQMOTANmHqRARERFR3ClkpQXcCejt49c4f2k9VnymQjQ0WPghGmTplVpr+cH7VcPTADkZwM5MhYjoP2wQwA+BXoH0vGUZsE76D315O+v0Hf7aFv85kXWqeMdflEUgUB319gsTCIBRW5hEbfGvKWABstO//7fWWUCt9u/0HMFLgIjoP7ymkNshuAWO/cf8ROllJESDh4UfokFwfofW9yaCD2sYng6RDwOoZypEVAXWK7BRIJsEuk6BbgAbBdiokA0AfEB7BeiBIAiB9QBgqb4BIFSxNinQhxCeJdoNAIGlrwOABLrREi35WtPn12JTIoTmJ8o6Rv5v6ZU6qmRBhpUwPNS+RKiSUFuG2z4ElowCAKiMCC04AGotDetUYCtk5OZJ3E6isBSoA6QWgCPQESqoh2KYAPUKGaXQYQIMBzCSqRNRFdgg0LtCsW4JNtl3LzpQNjISoh3Dwg/RAM3u0J1DJzgZoqcBeD+AWqZCREOoD8BGQNYptFv6D8zsBrAOopug1kaBrg8V6y1LN4UhNsKy1lkhutXSTaFoNzRcJ07NRs/HpuuSsp6Rxs+5RR053MPwPrdvGMQaZanUSyjDQgv1CMNRloXhYSjDLMFIhYyEhMOhMgz9O5vqIRgOleGA9v9vIMFUiWgI9Yjg9yHkFjj2HfwBgWhgWPgh2g7plTrK8ryPqMiZUBwPwGUqRLQdFMDrgLwO6GsKvG5BX1NYr4vo6wjxWmjp6wit18TS14MgfD1hJ17r24TX+YsnRdGMJ3R4zTCMLgWlnW3bGi2h7Bxa4WgrlNGwsLOqjIaEO6vKaAFGA7IzoKPB16D//UTgbJxoW5UU+KOlcpPj2Le1TZY3GAnRtuFQQ7QVzct0BOzgFFU9E8AHANQwFSJ6h5H1dlH9rar1ulj6OgJ9LbDD171EzWvXT5DXGRBRv3NW62i31LezHVijYcvOGspoWOHOUPkwgJOYEBG9gz4ofgeRG+s8+46rm6SbkRC90/SUiP6P9EqthR+cYIXhdBU5Df1nIxARbW1U/XOuwTmen6clGrhWVWt10f8TgPcxDSLaBr0A7hGV9lrfvoVFIKK3m6ISEQBgeocm6hPBh0TDj2n/17hY7CGi7bExlODABcna5YyCaMekl/bsI7bzJPgFNCLaPt2A3iFi3bChZP+uvUlKjISIhR+KuVZV69mif2QIORfQM8AzB4howAOqnpdNJdqYBNHgSBdL54vKVUyCiAboNYXcBNXr8ynnfu7GpXjPU4liaFaxr8kOrekq8nFAJzMRItrBwfRP2aRzAieVRINIVTJF/7foP1+PiGhHPAfgFoguyCUTjzEOiuFclSgeZi7X8Vbony3AuVDsz0SIaJCsD2xn/4WT5RlGQTS4Zi/RCaHjPwlgJNMgosGgwJMW8Eu1nBtyDfIsE6E4YOGHjHZ+h9b3OMHpEE0DOBqAxVSIhpSnwHoBdonNBFJ0dj6ZyLLriYZGc6HUopBr4zM5l1cUOgqAw94nGlIhBH+RUBZ4vfavFx0oGxkJmTu2EBmmVdV6puAfriIzAD0bPBiSaLAHjtcBrPj3/+kKQFYAwQqnr0a8Gv9xAPUxieOPuaTzAb7iRTSEVCXT5d8FxYdi0uINsJymPhfdrudNErUmATpJVCYBOgmQSYDuA/6YRTSYegS4E0BbNun8ieM6GTh/JzJDpkvHqfrniMoneG4P0Q7pBWTtmwUdlTf/v+EK23cL2SmyYYv3YcG7A8BJMcnpDVjO/twmTjT0ZnbqXo74TykwOiYz9N/mku6Ht/SXp3doYoTbtzdgv6UYhEkAJoXAWAHG8KohGrDnBLhOrGDe/IbaLsZBZgwrRFWseZmOgO2dqSqzABzJa5pom20CUIBqASJFiCyzwrDQU+sWr58grw/kX5gu+jNEdWFsBlCVWdlGZyEvJaLySBdLzaIyP0bT9HNyKedXA/knz1mto+t6vWRoWSmoNkI1BZEUgBSAYbyaiLaJArhfRfNW4La/0w9fRJEfURgBVaNZXaVpVmi1AHoO4vNKCdFAZizPC9Dxlp07Syz1O8Yna1a1ioSD9d9p6dRdPfGXANgtJtHemUu5J/MKIyqvTMG7C8CHY9LcV3zLaVrUIC8N5r/0nNU6urbXb4Lovm/uFFKgCUAjAJtXGdHb6hXgDvBVMKpSLPxQ1Uiv1FGW552pkPMBHMhEiP71IP/3mTuKJaElHSrhinCju6xcBxU2F0q/UsjHYhL5ukCd/RY2yhpefUTl1bxMx6rlPwVg51g0WPWXucbEjHL8p1oeVdcf2TcOsCeF0CaBte9bzhSaxKuP6F+WqSAvcLK5pLzMOKhK1gtE0dWqaq0q+seJ6hyInAqghqlQTPkACgosFUFBVAuhYFnou8WFU+XVii7EOv0PqejdcekIhZybTznX85IkqtgzZ6aKLojNM0fklHzSuaOSf4aZS3UXx/FTUG1UkZQqUgJMRf+rY/z6GMVVn0BvBWT++KTz58HcSU002Fj4oUhqWaJjPMefDehsQPZhIhQjqpBVAn0agqeh8lQQBh09QWJZe5OUIrcAW6Yj1PI6ABkXk/65PZdyT+VlSlRZmYL3awCnxWRYeEZCd78oni8yvUMTIxxvaihWE1T3F0GTQvaT/q+OcZ1B8Zm8QVYKdL66zvz8RHmBiVDU8IFMkTKrqzTNDnCxinwMgMtEyPAH8OsQLFGVDkW4xFJZDHWeqKbDA5s7/atU9PyYdNkrtuPsN2+SvMirl6iyMkXdDep3ID7niv0sl3IvrpY/7PQOTQxLlJJ2aE+D6L79ZwjJvnxljGIgAPBbAebyLCCK2LqDqLJalutOfuCdpZALAezHRMhA6wUoQnVJaEkHIEvg2I9U+y9CzUXvMFXcD8CKxYApclY26dzEy5koGtIF/xyBXheT5oaW6mHzGxP/qOo+W6mjrJK/X38xSJoA7Iv+cxt34xVN5s0bUAiBbOg78yr9Wj4RCz9UucG/s/QeEetTgH4MQB0TIQP0AeiA6NOi8nRo4SmB05FrkGdNa2jrveqs3st/BMC74jFa6o25ZOJjvMSJoiVT8NoBnBGHtirw5D5rnGmtx4pvWttmLtfxjh80qej+EG2Cyn7o/9IYz3YkE2xSlV9ZGl6TnZJ4lHFQRaayjIDK6cKi1mxU72xAPq3ANCZCVWyjCB5XyD+h4WOieMzZ4C5pO1i8ODQ+3el9VgQ/iklfvwRx9uOXO4iiZ84K3SPw/acB7BqH9ir0knwqMTcObW15VN3SSK9JgHdDrIMQ6kEQHAhgOK98qmKPiMqVwy37xiuS0sc4qFxY+KHyLBJX6p7w/VmiuBDAXkyEqsx6ETylisWisjiwgsWbGhLL2kWCOIaR6dJxCP0lAOrjMVDKGdmU82veBkQRnWN0+h8R0Vtj0twNgTpTFzbKmrj2d/MyHRvawTQr1GkqmAbgUMSk8EdGeUmAnFrOVSbuDKcozmeJhhAPa6YqtE4EHW8t8kxsSCzlJzr/LVPwbgHw0Vg0VvWmXGPiLPY6UeSfS7H5ypcA7dmUeyZ7/d/ephj0HgB7MBmqAiUBbgPQlk259zAOGsKxg2hwTe/QxPBEcKqEegkEhzMRiuyaHnhegA4AS94s8ixoSCzhFxjeYXLd6X9IRe+OSXNfsx1nX37Fiyj60it1T8vzlygwOiZT+JNzKedO9vw7jFf/pxjEr4pR5BfmiwFtC113YX6i9DIRGuTri2hwtHTqrr74n1LF+RDsyUQoaot4AA9D8HcJ5RHLtR/jgn477/G1OqzUHTwt0ImxaLBKOtfoLGDPE1WHTGdpDkR+EY/nk672e92mRQfKRvb8tkuv1D1RCg4SSw8GcCgUhwDYmclQpG5v4HkorrR955r5TfIaE6HBwMIP7bDmQu8khX0xgNnggXsUDQGATlFdDMH9gegDfF1rMO5173IFLo3J6PjnXINzPHd/EVXTakklU/T/AOD4mLT427mU+1V2/A6Obf07g44Q1SNFME0V7wGQYDIUAX2ielMI/U6+sWYZ46Adm9oSDdBbzu85B4DNRKhyk328AMGjolgcWrIYjn1ffqKsYzCDeL8X+5ostf6JeJzVtSmU4IAFydrl7Hmi6jJnWc/EwHKeQjx+iCpBwnfnkjVL2PODZ8YTOtyt9d8dik6zFNMUOBoiE5gMVVAI4O4wxOULprgPMA4aCBZ+aLu0qlqruoITLeilqjiCiVDl6K9Erd/xXJ5yRK2SKfp/BvC+WAyMop/JJhM/ZccTVafmgvcFBb4fk+bel0s6x3AMHOJr6s3zgjQ8SSEtTIQquHhfDJWfjV9rX996rPhMhLbj2iHauvRKrRXfy0Ctz/NgPIrG00s/m0smfsIgyjDhLZZmq8q8mDT3ke6kc1i7SMCeJ6pO01Xt+i7/YSgOjkWDeR5Z+cbDeBUVKdoT4eWC8IfDxc1dkZQ+5kFbvWIYAb2Tc4s6MqH+J6H4DA9spoi5L5dyj2YMQ2t2h+4cuv4yALvFoLm+Jfre+cnEP9nzRNVt5rK+A2zLehTxeD31VVedKW2N8gp7fmhlCt6DAA5jEhQVCjxvAT9B6FyTnSIbmAhticUI6O20dOquzZ1ea0L9lQC+x6IPRdAR6ZXK63KIhW7wA8Sj6AMFvsuiD5EZFk6peRKCH8akubt4EnybvT60Ns85DmESFCUCjFHg+2r5z2UK3lzOjWlLWPih/zBzuY7PFLy5nvirVfB18BOXFOHnl5S8kxjD0Gnu9I4ENBOT5nbCdb7DXicyRz2cbwBYGo/W6pxMl3c4e30IF9i+91GunSjCRgK4SDy/K1Pw5ma6dBwjof9YODECAoDZXb0N6YKfswO/C8BFAIYxFYr+LEw+yhCGRuu96qjgSsTjleBQFHPyE6WXPU9kjiuS0mcBnwQQh4OPLYS4tuVRddnzQ0Q556CqMBzARQj9rkzR/0VzoZdns9LmQYJibc6ynomZgn9tGNpLBZpGPN6FJ3Mcd25RRzKGwffM3v7nARwYi8aKXJ1tdO9nrxOZZ37K/RsgbTFp7n7eSP9i9vrgS6/UUQCOYRJURRJQnaOwlzV3lhbOXNqbYiTxxsJPXAew5b3JTLG0ILCcAqAtABymQlWoxg2DDzOGQX4+LO3ZRxVfi0dr9RkJ7C+z14nM5dr2pQDWxKS5X5+5XMez1weX+MFJABJMgqrxEagiM2zb7kgX/NysYu9kRhJPLPzEzJs7fCSwl0BlJljwoWqfjCHk1uvBztR2foaYvO4pYl3Ir2AQma1tsrxhQc6LSXPrndCfy14fZKqnMQSqco5A05baheaCdxN3AMVxzUSxkF7emxTf+n8QORuAzUTIIN3qOrvxfJZBelYU/NME+utYzOOh1+VTiY+z14niIdNZuhEiZ8Zigi9yajbp3M5e33Eta3WY1+2/hP6zU4hM4UP0ekvCb85vqO1iHObjjh/DzSnq3v/a4SPycbDoQ+apFy84njEMzuRWEP4oJs19NbDcz7LXieLDhXsBgJfj0FbV8IrzO7SevT4Iq+MNwQfAog+Zx4HKzDC0lzR3lhbOWdYzkZGYjYUfQ81cqrs0F7zLA/V5hg/FAV/3GozJ7Ub/m4DsE4e2isjFixrkJfY6UXy0NcorUPlCPFor43tc/2vs9cFg1ivlyg6l/+SqyIzAcpZlCv61c1boHozE0FGBEZjl/A6t35TwLxDFlwDsxERoCzd+twIm/RL46oQ1zp6tx4rP3h2Y9NK+/cW2FiMOX/YT/DaXdHkoOFFMZQre7wB8IAZN9UX14Gxj4gn2+sC0PKquN9J/AcDOBjVrHYBR7F3ago0CXBm6zuX5ibKOcZiDO35MGZjW6rB00bu0x/VXi+JysOhD/6kPwO9F9dOWFSQR6rGGtW+XVXv7R7KbB6ZV1RLLugZxKPoAG+3Av4C9ThTjya/vnAegOwZNdVTkSqjyh94BKo303wezij4Q1fepHaQUepECfwBQYk/TWwxX4FLx/K7mgveF6c9qHSMx5N5nBNW/YFvVFZwuYfgDiExgIvQWrwhwL1Tu7LPs31yXlPX/+iuqkil6qwAx6ZOvP8ul3IvZ7dsvUyidB8g1sWis6oW5xsSV7HWieGsuli5RlZ/EYrIvOiebTMxnrw9kfPSvBvRTBg2Cq3KpxH+c5dKyVoeVNgbHieIkhZ4swBj2PL3FGoH+74akO79dJGAcVTwWMIIqnrQUvOMV+CGAA5kGbb6lVwB6pwB3jF/j/OWdXn3KFLy5AC4yqPHPTUg6E1pFQl4H266lU3f1xS8oMNr4xioenJByjuI1QkTTVe36ov8AgENi0NxXg8BpXDhVXmXPb981MrzoP2tSIUQEP84m3c9t6a+3qlorl3vvtgM5GYKTFDiI60XabImKtOaTTjujqNL7nxFUn0yxb19V6/sCnMg0Ys8Xwd9D4A4rCH6TnVLbua3/YLrovU8U95oUhgUcMz/l/o2XxbZrLvptqvqJGDS1FEp40IJkTQd7nYgAIN3ZN0XEehxATQym/D/PpZzz2evbbland5wluMekNoUhjlwwxX1gW//+2Ut0gjreBxRyMoAT4nGv0Fbco9Av5FOJxxlFlY0CjKB6zOzUvWwJ/h+gs8HPssfZqwL8GSp3Oo59W9tkeWMg/5LNv3a+AGBXYx5oKldnGx2e37Ktk9qu0jQrlH8gDue9Cb6eS7r/y14norfKdHrfgOD/xaCpgSX6nvnJxD/Z69t4bRT8azd/GdcUL05IOmMHuuuVr4TRW4QC/DoM/C/mp9atYhzVMhWmyDu/Q+t7E/6XVPEZADxgK5536lMA+l/hanD+PlivqmQK/nxAmw1K6uUJa5yx/LrXNlCVTNH/K4CjjL99BIXhcA64Iil97HgieqsLi1rTrf7jAKaY/9zHg7mUcyRE+EXvrdj8Na/nAexi0Gh4bS7lfHIw/k3TVe365f4hGuBkEZwEYD9eNbG0CcCP/R7n8kUHykbGEfXlJEV6YdZcCGao6HcBjGUgsRIAuE+htyAI7hiqanqm4J8E6B1mzWvx/nzK/SMvoXfWXCilFZKLRWNDHJeb4v6ZvU5EbzsWFr1j0P/qs/nzYpEZuaTzS/b6O0t3+h8W0bsMW/V9MJd0fz8U/+o5y3omBpZ9MiCnATgSfDMhbtaIyKXZBvt6Fpaj/AigSJrVVZpmq8xVxRFMIzYCETwcqrYnfPemtn3l+aH+D27+pfNlACNMCVFV5ucbnTm8nLaseZmOCC2/Mw7btEV1UbYxMZO9TkTvJFMoXQ/I2TFo6ouu7TQO9DXx2FwPxdICqJg0drzR7Tm7tzfJkH+6feZS3cWxghNVdDqA9wNI8IqKjUdEcHE26T7EKCI4J2YE0dKyRMd4TtAK6BzE4dwN6gVwj6i0hwn79vxEWVf2IkDBu0mB6QZluq5enD35Ws87TGg7vR9D8JkYDHCve5YzZVGDvMReJ6J3MmeF7hH4/jIAo0xvqwI/yKfcL7LX3156pdaK578AYCdz+lyvy6cSH69AlqPgBydYYXiyinwUQD2vMOOpqP4yTLhfzE+UFxhHpObFFAUXFrVmI/zPqOIrfCgab6NA7wCsm516+7dtY2VTRYsABf9sQK83a8SRU/JJ5w5eam+zuCn0TQ1gPQHAjcHc45O5VOJa9joRbYvmztIFKnJlDJpaUg0PzDfWLGOvv9114H9URW8xa8EnZ2RTzq8r+WeY8YQOt4cFH5YwPAMiJwEYxqvNaOsF+NYGz5lbjp1mtHXcURIB6aL3vm71/6mK74JFH1P1ArhTVGbVec6e2VTi7GzK+XWliz4AIKF95+Y/n0Hr/fAsXnJvL4D1E8Si6INHJiTdX7DHiWhbjU+5PwfwcAyamhCxrmCPb2EKYRk3h+hFaP+h0n+IRQfKxnzSac81Js7qrnN2VZFTRHURAB4KbKaRCny/3g06move+xlH5XHHTwW1LNExvu19T0VmMA0j9QH4o6i091n2b65Lyvqo/kEzRe9uKD5kUPYbuuucPdrHSQ8vw39rLvinK/TmGDTVt0Tfy88WE9H2mrms7wDbshYDcExvq6p8NN/o/Ia9/pa5+Vod5nX7LwEYblCzbs+l3FOj+oeb/qzWDe8NjrfCcLqKnA7uBDLVnbY4n5qXlOcYRWVwx08lHnCqdqZQushz/GUs+hjHA3A3VNKu7eyRS7knZxudhVEu+gCAhnqrYf0wor43OJGX439OrBThD2PRWMFcFn2IaCAWTql5EsBVsXhUSji3Za1ykf3WSVx3cCrMKvpAEO05Xvs46cknnTuyjYmZ6jp7CTQDwW8B+LwijXJSoP5TzZ2lC6ar8qtvFcDCT5lliqWDhhf9BwGZC2AkEzFlUMVihV5iO864XMo9MdfoLKimL2YEtnsb+j8hbw5Vvu71FvWb/MsA2cf8luqzdSWnlT1ORAMe00PnawDWxKCl472N/ufZ40bPHQJH3Tur5Q+bnyjrsqlEPpd0P2x5zh4CPU8EDwDgJ8LNMEpFrqwv+o+mi6VDGUfZ16tUDumVOkq84HJAPwEW3EyxFMD1guD6bKp2RbU3JlPw/gbgKIP6p7ckzh5R321VDjOX63g78JciBtunReW0bKNzK4iIdmTeVvSni+pNMWhqjwb+vvmpdavi3ufnFnVkQv0XAdQatNL7cy7pHlftzZhV7J1swT4XinMANPIJZYRQVK7ps+wvca5eHixAlMHsgn+ieN6TgJ7HzKveWgA/E8VRuZS7by7lfsuEos/mFbNpi+XaBIJTeMkCTujPRSyKPvgdiz5ENBjySaddgbti0NQ62M4P2eNAjXqnwaSiDwAY8ir/gmTt8lzS/d9cyp0SSrifAN9T4HletVXNUtHzXfWXpQv+aYyjDIEzgqEzZ4Xu0VzwbgqhdwIyjolUrR5ArxfBByYknXG5lHtxttG937iHgefeAtO20vJ1LzQXvONV8ZFY3KcSXMDHFRENFtt3LkAMvjgkwOnpLu+Dse9wFdPmDIr+V/mNsiBZ05FNuZdtTDrj1MKHAP1V/1ydqvT5M0agv24ulH41o0t3ZyJDmjUNhc1bhK8GsCvTqNqbY3EIXRQG7i8XTpVX49DmTMFbDOAgg5pU6qtx9rx+grwex2u45VF1vZH+kwCmGH+/Cr6UTbqX88lFRIM8Ln4FwLdi0NSl7nrnwLaDxYvleNmpu3rirwXgmtImBf6RT7mHxKL/lutOvh+cqqIzABzHNW7Vrr1eB/SybCrRxjQGn8MIBld6ac8+sJ1rRfX9TKMqrRHgl6EdzM9Nri3G7oEraFc1qvCTqC15pwGYH8eL2RvpX4wYFH0AdDhvOD/i44uIBlu35/yg3vXPBTDV8KZOLY3wLwTw4zj2sy/eGYC4JrXJUtwUl/7b/EGVhQAWzlyu463QP1tUWgCdxKdY9VBgNCDXNnd6H5XA+eT8fWU1UxnEZwIjGKwrVaW5s3SB2M7TArDoU116FXpdqDh+QtIZn025l+VjWPQBAN9yrodhr3upeVu3t8mcFboHgK/G4ekrFi6M66/URDS02pukZAGfRAy+KiSC1pYlOiaeC07zXvOSwLk5jn25cLI8k0+635uQtJOh4niFXgegl0+zarp48cHQ8Z/KFErnQZW7twbrGc8IdlzLEh1TcvxfCHAi06gqS1SwMBE689sa5RXG0S9T8B4GYNLW4MB2nL3mTZIX49SPzZ2lhSoyIwbDWC6Xcpp55xIRn6mDsuRakEsl0nHq2/RK3VM8/zkAtkHNui+Xco/mnbt5rbZcd/ID7yyFfBLAu5lIFT2RgD844syel5TnmMaO4Y6fHR0siv50z/GfZtGnaqwX1UUCnJBLuU35pPs9Fn3+ex2tNxrWItsPvNNjtUApeoepyMdj0NTXIPalvGmJaKg5cD8LIAbzBZmZ7vSOilXnet5ZMKvoA1Hj5nI7pG2yvJFNJdpyKfeg0NKDAfwMwGtMpgquZeD9gfpPNxdKLUxjx7DwM0AzunT3TMG7RVRvArAzE4n4Q0PwgEAzfo8zNtuYmJlNufcwlbfneu4NAAKjGhWj171aVS1VzEUMdnSK6BdzSXmZdy0RDfnCsVFeATQOr8+KCOZOV7Xj0rdi3mtegeW6N/OufXsLGhKLcyn3Yr/HGQ9oMxQPMpXI20kh16YL3s2Zou7GOAb6rKPtlu70PwzReQKMYRqRtgGQX4mGV2cbE08wjm2XKXh/AXCMQU3SwHb2WThZnjG/70rnAXJNDC7T+3NJ52iIKO9YIiqHVlVrdcG/D4LDzV8g6Hlx+LLOzOU63g78VYatie7JpdwTeMduz9qub4olVhpAS/8BwxRhL6nKeflG5zeMYvtwx892mP6s1mUK3lwRvYtFn0hbqtBL6jxnbC7lnMeiz0BmfMZtERbH96eb3m2zO3RnQOLw2WHPssJPsehDROXUKhIK9HwAvultVci3+8cUwxdCoX82DPshXPvfRqDtkG+sWZZNuZchdCYI9DwAjzOVyNpdRG9t7iwtnPGEDmcc2/G8YwTbuKDq6tuvvsf/B4CLmEYk9QnQvvnsnn3zqcTcq5ukm7EMjBu67aZNbFWQNn6i7gTfBLCr6e0U4MfzG2qe5p1KROWWbUw8AcHcGDR11yAR/G8MxpNzDWuSF4buLbxTB3h/T5ENm88Cenf/WUDSBmATk4nivF5mOHX+o7OLJR7Wve3PO3rnq0ol0+VdApXvAqhhIJHroFUCudoPnOzCqfIq8xg86YL3ewHeb9QDT/Vdpu4Am93Vt18YWv8E4Bh+zz9T57lNLOwSUaW0rNVhXrfXAcg+hjc1UOjB+VTicRMbN6urNM0K5VGjRkjgrnzKPYl36SDe7526qyd+M1TPh8gEJhI5vYBemku6V3An+Dvjjp93kCnqbumifwdUfgwWfaK1gBc8oCJnTljjJrMp9wcs+gxBxtAbzHviyUxT+ysMrSthfNEHELEuZNGHiCqpbaxsErU+G4Om2gL5qbGLoNDAOYEIv+Y12Pd7o7ySS7nfn5ByJ6nIKQDuAcACQ3TUAjI3U/R/n16pezKOd1rb0dvKFL0PQLEAwB5MIzI2ich1oR9ckZ9a8xTjGFrplTpKPP8FmFT0VLwwYa0zrvVYMeo1tuZO/6MqGoet3XfkUu4pvDuJKBJzxYJ3F4APG79YUDkt2+jcalKbWh5V1xvprwFg0heCekvi7HFdUtbz7hxaM5f1HWDb9oVQPRdAHROJyjQfz1sAv968Bdzx81+mq9rNnV4rFHeDRZ+oWCuKbwSBMz6bdFpY9CmP/ERZB+D3Zs1eseeqsYFRr69N79CEin4vBpdkKQiCz/POJKLITKKt4GIAfcYvpgQ/vLCoRu1893cKPgSzij5Q4C4Wfcpj4ZSaJ3NJ5xOu7YxR6CVQXc1UojDNxxgF/tBc8C6frmozkf8asxjBv7V06q7Di/7dKvg6s4mEx0Rl1oQ1zoRso9vK17kqMYkwb8uwJeEMk9ozwvEvBJCMweX4g4VTawu8K4koKuY31Hap4icxmA1M2hD6FxjVItUZxnUTX/Mqu7bJ8kY+lZj7ltfAHmYqlb8TFLi0vuD/cc4K5SaOtwbDCPqlO0vvEaCdh3ZVXAjgbgHmcpte5c14Qoc7df6LAEz6XGKvus6YzTuaqtrsDt05dP0iANM/ufuc3+NMWXSgbORdSURRsvmg56WAjDe8qetcdZJtjfJKtTfknNU6uqbPfx5mnd+50e9x9uA4WXnNnd6REFykwGkAuOukwvNHWDgr1+A+yCi4q6X/Bi2UWkTkfhZ9KqpPVBdBwv1zKfdkFn2iYdGBslGAuw1rVq2UvDNMaMjmT+2aXvSBiHyOk1kiiqK2sbIJsC6LQVNHeVbwdSMmAX3eWTDuoy16G8fJaMg2uvdnU+6ZlhVMAfAz8HPwlbQ3Qvw1XfQuZRQx3/FzblFHJtSfD+AMXgoV84oorlLLuSqXlJcZR/Q0F/zTFXqzYc26L5dyj67mBqQ7+6aIWE8CcA2/BO/PJZ2j+YlOIoqyTMG7F8D7DG+mH0r4rgXJmo4q76sHARxm1IJO5NRs0rmdd2L0zOjS3Z3AvwCCCwDswkQqdZPojXUld06cvwwb2x0/s4q9kxPqPwgWfSrlRVF8w7Wdhmyj28qiT3SFrn0XgDcMa9aRs4q9k6t7kmf9COYXfYIgDC9g0YeIIj9WSvhpAL7hzXRErar+mMDsrt4GAIca1i/rhsP+Pe/CaFrUIC/lGt2v+z3OBIVeAuA5plIBKmf1uP6jzct6G+MaQSwLP+mCd4Kt9iMAmngXlH25ukKhl6jr7JNtdFvbJssbzCTa8hOlF6p3mHYhCuyPV+sfPrPM+x/E4BPCAK5aOKXmSd6FRBR1C5I1HSo7S7nrAACAAElEQVRyrfGzOODE5qJXtV/HDEJ7Jox740FuuSIpfbwLo23RgbIxn0rM7facyaIyC8AyplJ2jWrZDzYXvOPj2PjYFX6aC6UWAe5SYDSv/fJR4Mn+L3TZjflUYm5+ovQylWqaU1jmfSlCZRZUq27yN13Vho2fxuCqe0ld5+u8+YioWpQS9tcAGL+DWRU/ab1XnSr8g4tAzjVuiibKr3lVkfYmKWUbnYUTkk7T5i+BPcJUympnBX4Xx3N/YnPGz4VFrdmgwTUCTfN6L+cgiwfVxjfzDe7vGEb1anlUXW+k/zwMezc5DHHkginuA9X0Z84USucBco3xg5PonGwyMZ93HxFVk+ZCqUVh/s4fVW3JNyZ+UVXjZ9E7Boq/GNYVr0xY44xpPVZ83n1VezNJuhB8SES/BvNeQ4x69PM3+vb57U1SikN7Y7HjJ1PU3brV/z2LPmX1kIqckmt0j2DRp/q1HSweRG417gFoycyqWlAs0xFQaTX9ehNg8fgGN8c7j4iqzfikO0+Bfxj/nBb51rlFHVldq7zqGvO3sSfaWfSp+ptJ843O3f+fvTsPj6uq3wD+fu8ySdqURUSkUEohM0lbZCsom2hBEFlk0QDCr+1MWgIiqxsgolEUWVzYwdjODK0gUgQEBFm0oCCoFNnSJjMppUALslihaZPMXb6/P1oUsC1Jm8zcOff9PA/Po13SOe8959xzztx7Ti7l7i2KTwLGLU5GOfrp9Y4/L71YPxqH8hq/8DO9u38nqDcfwKdYvcvRgPCoAgfnUu4++aRzFxMx6NqqiY8S67HpxVpbLZ82FP9bEJh+cwoV+pU2kZCtjoiqTZtICNEzAZi+Kf1HEvCr5hj75pe0DlDjDnRR0VvY6syRbXQfyaXcyRAcAuAxJlKOCQ72kZL3+LRiv/F7/xq98JPp9A4IQ+sRQMawVg/3nQd/UZHPZ5PufvmU+wADMc+KpDMPwD8NK9Zmlh98vho+aHph7/YiOCsGd+AbcqnEX9niiKha5ZOJxwGdHYOx39nphb3bV8NHHdkbHA1gE7PixysrG5w/s8WZJ5d078ul3H1E8Uko5jGR4R56ylhLrcfS3d4hJhfT2IWfli5/KizcC2BT1uZhven8TYCDco3uvnzCx2xzRQIAxj31E6pWxaPf4tgXA6g1vJq9ZTv2eWxtRFTtbMc9B4DpJ5fWWrb9o6qY8KhOMW4SJ/jVmrEZGSrb6D6Sa3QPgOAQCJ5gIsNqlIT4bbroTzG1gEZu7pwulM4UyM8Qo82rK2CBirTlG+xbIaKMIx5aOkt7qCWmnT7gq+uMyY+TVyObe9HbWxWPmt6niejZ2WTicrY0GqjWJ9Tt37R/O4T29rboGIV8BMCWgGwB6BYi2AKK2hBwBVIPAFAdsabCrQIAhfZYgAdBnyreBORNQN8E8LpAX9NQXhQreMF5u+al9j3EY+o04PFol/dVEfzE8GKqKPbPNrqPRPUDznhetwp8/2UAjknBi+qu2cbE02xpMRqHF7zPKPBjALswjWHt076fbXTbjBtnm1SYtnnqLNkmuBrQk1lnh6sp6BIRXLQi6c7itwzxlCl4zwLYyayeUL+aSyZ+FtE2J5mC/wgE+xhetRa4bzu7cmJNax3sduoo2P5OqrqzqLWzik4EdBwg2wCwy/QxAkCXAvK8qCyAhE+HgmdGlNznrp0oPbxKtNZx6bb+k1B8zPCi/jWXdPaO6heBmYL3dQCXGZb5c7mU+zG2shj2K6rWC93BF0RxEaANTGSYht+QfOJtu9WkcakxCz9TntaRTp3/GwCfZVUdFksBvdB9281yYhbzCVjRO1cVPzKsWP/Ipdzdo5m3f6Kq/tL4iiU4JJd072MLo2ZVu66rNNGyZT8o9hFYewG6Q4THLArI89DwMVj4SxDoozs0Jp7jBuUEANO6vAMtwYPml1ROyKWcX0Xxk6UL3tMC7GxU2oqvZxvdn7CFxfhe2aGJkQlvhqicD2A0ExmWdvZ7Z5TzhfbRq58Qrv6htgHSi3UzKfm/i8E34pXwlgguXlHrXDF3jPQyDprapdvY4i9B+b5lL4sgDHeZ3VTzTKRu6i9pXf0qbyFExhperW7Npdxmtq74mlHoH++r9TkLOEhX38urfRPWtyF4FNAHNNR78401nbzK8ZUueLcK8AXDi/myW+80Rm2CNL1Y2i1UedKwrAPXd8a0T5BX2LqodZmO8Hr8swGcA2AUExlaIng0dJzD8+Pk31VflqofLK5+b/f3AHZl1RxSHiA527G/M3MH+SfjoHfLFLz7ARxkWLF+nEu534hYzt8GcKHh1alXA39CfnzdC2xZ8XF6UWtWIDgYikMF4SGAbG92ifUFwLoXwD31Yj9wVVL6WQtidM/s1jEI/YUARhpdyxXn5xvdiyKVfZf3UwjONmsmintzSfdQtix6t6kLdQvH9r+hwNkAEkxkSHVI6BycbZJl1d11VLHpC3Ssuv79qkixPg6pB0MJz7ohWdPBKGht0kV/iqhxR9X+033bGROVVxnXLGoXYNjxs2u5CX0nm3IvZKsyX7OqParg760iUwA9DvE9dfMtUb0ztKy5K0v2fXMnSom1w3yZovcdKL5neDF7XN9JReVJlOYOTdS7/ksAPmJSyKrypXyjczNbFa3N1IV9Kce2f6DAF8GDjoZyxPq8wD8om6p9vlpLULXHuc8o9I8PHf8RLvoMqcfDEPvlUu5BXPSh9QlW2bcBWGFYsbbyRwWHRyZjP7gIhi/6APJ86DqXsUWZLd1V2rOl6LePKvqvq+DPgLYivos+ALCpikwR1TvrXf+VTMG/vqWztAdritnUcS5VyGLDi1nvu0FkFrfqE8HnYdiiD4C3E6PsO9miaF1mj68tZFPusaLYH8BfmciQ9eI7KKyHWjr7Gqt21F2NHzpTLO0OlfsAfJiVcEi8rJBz8kn7VzyanQbcDgulPCDTDCvWPbmUe1ilP0RLV2kXFZkPw/ZR+t87kByVSzq/ZWsyz4lF3aRGveMVcgqA3ZjIgCxQwezQd2bOHi9vMg7zpLv8o0T0dsOLGUJ0z1wyUfF9ddIF7z4BDjbsvjkzl3ROYmuiAVGVTHdwIlQvBrANAxkSryn0s/lU4qlq++BV98RPulDaFSr3g4s+Q6FXgEskdCbkU85NXPShwQ3tZLaBpTpk6iLdruL3aZHLYPqiD/AAF33MM3VhXypT8K9PqP+KQn4OLvoMxgRRXGzb/ouZgn9telFfkpGYJd/o3AHBvYYX00IoP670h8h06xgBDjQuXNU5bEk0YCKaSzq/dOudlKx+1bSPoWy0jwhkXjU+qVtVCz/pQmlXgTwIYAvWuY12tx36E7Mp99xsk6xgHDRYuUZn3uoNS80aU9mhn67oYLXoHwnzNs5+v5KEwelsReZo6fL2ayl4t9i2vQDQkwGMYCobbASgX5bA7swUvLtaCt5nGIk51ArOBGD25t6CyZmCX9FXpzX0T4JpX6CoLpmVdP7MVkSD1T5aVmUb3TZYTkq4eDgUNoMl90/rLk2qqklOtXxQLvoMmach+HQu5R4xs6luMeOgDR/YiYrITcaVK9SWNtWK9I1t89SB6iXmVx1cnW2q7WIjqn4tRe/gTMF7TAV/VqAZ5j+pVu4x2uEKPJDp8h7lApAZ8jvWFkVwjfkl1Uvb5qlTiX+5WdUWIGNcoiKz+XQ+bYxcg7yUbUxMRYgDATzHRDaiPQKbW6H8vqWrtEs1DSqiP7DsKu0ikAfARZ+NsVIF5/YknUm5pPsw46Ch4PvBDav7PqNWJcYu6fYr8sTNi9t4MwA0Gl5t/iUl54dsPdVtWqe3b6bL+6Mq7gOwFxMZ7n4J+7yzAJTp9A5gINUtdJwLAbxheDHHvzDaq8jiS30x+ByAbU0L1AqDG9l6aCjkmtw/jl3q7KbQswC8zUQ22IchMq9anvyJ/ObOazY5fRDc02dj3A3LOTXXIC8xChpqmYL3OIBPGFasW3Mpt7mc/2DzS1pX3+sXTBysvuemo3patjFxDVtOlbb3Yml3UblUDdw7o8o8oNBvVuPmkrSmLXWVToPIVYYXc5lb7yTbR8uq8mbr3QHBkUbdOwWPZpPufmw5NNRaF+jWvu1doiJTmMYGe12D8MD8+Jpno/whI/3ET0tnX6OKPAAu+myoogIH51LuEVz0oWGcyJv4rvCR6cX60XL+g/W9/tdg+KIPgE5nhdvOVlN9pi7ULTIF7wqo/I2LPpFwkEDmt3SVZs94XrdiHNVn7DL3egAdhhdztLfCP7Oc/2B6sX4UgkNNC1K5LwsNk/YJ8kq2MTFVVA4FZBET2SBbim09GPVDGSK78JPp1jFqWfcD2JJ1adD6IPhuvTgfy6fcBxgHDSfx3V/BvI0qXcvzy/bNR2uXfhjA142vKypfbd9DPLaa6nF6UWvSRe8c2/afB3AGuIdPpMZwKjIl8P2uTMH7enOHJhhJ9WibLL4FOcf8QQLOmbpQy7ZVg5T8DADXsBRLQeDeylZDwynb6NzbU2d/DIrvw/QN6IfHRySw7p/apdtEdtAQxQ/V2qUfRujfB8h2rEODvOEJHrUR7p5Lut+/KilstDTsZk2UfwG4x8DB6gyoluV12JL45wPY1PDB/x+zjc69bDHVI9Pt7dOj/pOiuBjAJkwksjYFcFm96z+XLnqfZhxVdP9MOb8DcJ/p9dN2/PPK8i+pCkRazLt94rezx8ubbDE03OaOkd5co/tdywp2AvAQExl0a93esfw/TunWj0Tx00Vu4ad1mY7wxL8TwHhWnkF5W6Fnbdfg7D8zVbOQcVA5qcps88qE1PSi/8nh/nfSC3u3F+DLhleRQP3wLLaU6tC6TEe0FLyLEeJPACYwkaqRFMUfMwX/5y2dOopxVMs8IfwqAN/sQQJObyn07TDc/8y0gn8AoA2mxReK8DUvKqtZDbXduaRzgEBPBrCCiQxu/mCH/l2ndmh91D5bpBZ+mjs04fX4twHYm9VmUO4JbOdj+VTiijaRkHFQuSVW2L+DgSeUqOqMYR/zW/aFAGrMHvPLL6K+4R2tlu72DvF6vE4FzgFf66rKZQRAW9XynmspegczjujLJWsWAJI1fZigsL4z3P+ILcN/z66A1xNv2b9nS6Hy301Es6lEu4ROkwjuYCCDuhF/vDfh//b0otZE7HNFQ5uq9ULRv0WAL7C6DNhrqnJmvtG5mVFQpWWK/lVQPc2wYvX21zjb3DRWlg/HD5/a2b+zbVn/QMQ32t9IK9R1Uvlx8ipbSXSlF2ut5fltCnzD8PoYJwrIL9x6++xyn6pEgzOlWz/ihH4BZr/yGyp00nCdRDd1oW5h2/7LAGoNy+2KXMo9i62EIjDO/z+o/gw8dGnABJi7XdI5PioPZkRmcLek27+Uiz6Dco/rO7ty0YciM8MIw9kGFquuts87Ybh+uCPWJTGYZP+Aiz7RNq3YP1E8//E1T/lw0ceoMae2ej3+39OF0q6MI7rmNMhrIrjY8GJagPxguH647XhTYd6iDyA6my2EoiCXdH7pW85EPv0ziLkR0Pxi0b8oQp1w5aWLpRYovsbqMSBvC/TkXMo9rH2CvMI4KCryjYm/A3jOtHKFIq3D8XMzRe9TKjjE7BueLFbXuZKtI7rShdLpllrzAezCNIw1QSCPZYqlLzOK6FpRcn5q+lHKAhyW6fQOGJ4bjkw3MLIFuWTiSbYOioo5DfJaNukerSLHCrCciQxkLIxzMoXSyVH4LBVf+MkUvU+JynWsFgPyICxnp2wq0c4oKKK9200GDlR3buks7TG0OalAjf92FxCckx8nfWwY0ZNerLWZgp8VyJUwfI8pAgDUQuXadKH0y9ZlOoJxRM/ciVKC4nzjhwkWfjTUJ2Zmur19AEw0MK4b2DIoivJJZ65vO7tC8EemMaAB8VXTurwDK/0pKrrwM6PQPx6KOwAkWCHWaxVUT88lnYNzDfIS46Cosi1nDgDjNhhXyzppSCfd3cEXAexl9ugef8k32LeyVUTP1EW6nfj+nwHNMI2YDT0hJ3o9/qPlOGGJBi+Xsm8B8JjZdRAfbykGxwzpDw3FxE2dg0CdG9kqKKpm7ygv5hqczyj0LAC9TGS9XFswt6Wzr7GSH6JiCz9TF+oWAew7AWzGurBeHRqEe+UaE1dDRBkHRdnMpLwsivvNK5meMFTHI7fNU0dUv294VVALejb7rOhpKXoHO4H/FBR7MI3Y2lVh/72l4H2GUUSMiAJ6NgCz+07Ri1qfUHdI+rROHQVos4Ep3Te7UZayUVDU+6x8KnGFarg7gKcYyHoGxsDmoeXcmynqlpX6DBVZ+Gl9Ql3b9m8HtIHVYN31Q4HL68WZxGOQqcpuAjMNLFV9aHtDMrB8YVuvFUCT4b3XjbMaE39jY4iWdLHUooq7FdicacTehxS4t6VQOoVRREsulfgroL8yfICb8jbxWoZmJuOdCKDeuKGUGjmWIkPlG2s61XX2FshVMH3hemPaNXQc1J/bNk+dSvz7FVn48Tbxfwzgk7z86/S6BTkin3LPviop/YyDqsl2S+3fQmHcKU6iG/8o+ZSndaSEcoHhVaDXCtxvsyVEapYlLV1em6jMAuAyEFrDUch1mYJ3RZsqT3OLEFvccwCsMrpbgnx3ytM6cgjuzia+5vVPZ4V9N1sCVZP8OOnLppwzRHCIifOAIfSpF7f1L6nEP1z2G326yz8ewBm85uv0oITOrrNSzu8YBVWjtsniq2COgUXbe1qxf6M2j3RG+F+D4KNmD+bx41kTZAlbQjScXtSalqJ3kwq+yzRoHc5YUvTmNHco91uMiJlJeRnAz0wuowBbO3X+WRvzM6Z29u+swCTj7qOKXPse4rElUDXKJt37fdvZBYJ7mcY62/hXW4r+seX+d8u68JPu6m8SUZ5ItXaBKL43Nul8NtskyxgHVbMwCGbCwEc9Ra0N/maxtUs/DMXXDL/0/7RC5zK2gGhoXaYjVob+HQo5nmnQB/RuJ9Qn/DuaX9I6ZhENdZ5zsQKvGF7Mc6Z060c29C87Yp9sYCYKJ8iyBVA1m9Mgr+UanMNUcC6AgImspaGrztrYL5QHq2wLPy2dOkrEug3AKF7q//G6Ap/LNrptbSIh46BqN3t8bQHAn4ybGgFTN3Ri5Il/AYBNjL6JiX4r2yQr2AIqb8rTOtLv8e9UwSFMgwY43fzcyF7/90O1kT1tnGsnSo+ofsfwYo6yQ/+8DfmLp3ZovYqeaGA7fCi/Y22RLYCqf9Asmk+6l6jgM3z1a63qbVi3nVjUss0NyrPwoyqh5ecAjOc1/h+PSOjsmk+5DzAKMmsRQGYZWKwPjezzvjTYvzSjs3ccgJMNv+RPb9/g5lnzKy+9WDdz6vwHFDiQadCgxunA/mr7f5y6ULdgGpU3NuVmBZhveJ07dVqxb8fB/r0+1/s/AJsaOHbips5klHzSfSiAswcUf2Ea72vvilQN/BugKuX498qy8JPp9s4S4Au8vO/v2/HTsUudyXy1i0y0sta+VYDlxg1SVU4f7N8JLPuHAGoMH7x/nU8sVl7rIt3U8vwHAezNNGjDRifYw3b835fzW0hauzaREBa+YXgxE1ZotQ32L4WQLxuYxb/g2rex5pNpZjfKUneF82kAVzCN991yFUe1FLxTyzRWH15TO/t3ti3rb6ZPegZplYhksknnFkZBJksX/atF9SsGdtN7rT5y94O1dJV2UZEnUaFTFMtyIxHckU26R7PGV1brMh1R6vHvFWB/pkFD4LE6zzn42onSwygqK1Pw7gRwhMFFDCG6Zy6ZeHIgf3h6wds/BB42MIcrcin3LNZ4Mrs/878E6CwA3FPuv3oh4R65ZM2C4fxHhnUicnpRayzLmgMu+rzbUgn1U1z0oTgIg8DIzdxFMeDFLBW5DAYv+gDwfD84h7W9spo7NOGv8H/DRR8aQnv3uf4d6cVayygqfC+V4GwAJYOLaEkoPxx4HnqqiSGIao61nUyXSzm/Uug+UOUJsP9VB7V+Pdz322GdjPSof6kAO/NavjMDxF/UdfbINiWeYBgUB7Obap6BwLj6riLHDuQkknTR+zSAgwzv165es5k3VUjbPHXqXf833MiZhr5540Ap+Te3zVOHaVTODcnaRQCuN7quCQ6Z1uV94L5k6cX6UaiY+ITp49nGxNOs7RQH+VTiKVjunmrgQTAbYSfx/AuH8x8YtoWflqJ3MIDTeQ3XEJnZ4zuT8+OEu5pTvKq+6i8MLFaNq37L+kexKpbix0ZfW2B5f61zIWt5ZS3ZJrgSwOFMgoapoR+5ZNvgOgZRWUHgfB/Av00uoyX40Qdtcmp5/kkAEuZNE5SbOlOs5JLy+ihxDgYkyzT+46stBe8zw9bHDscPzRR1Sw1xA8qwh1AVCEX07FzSOWnuRCkxDopfC3B/BcC4PSJU9eRmVXtdv5/uDr6owCSTL60CF980VpazkldOpss7D9AvMwka5g5vRkvB+waDqJzZ4+VNEVxieDH3bCkGx6zrN9vmqaNAq4HlXlFbcn/NWk5xc1VS+nMpZzqAbwDgASGApUB+uE7WHJ4nftS/FoKP8tqhVyHN2WTickZBcZVtkhWAGLinlWw/sjs4dG2/06xqi+r3DL+0S91652rW8MpJF/1mCH7AJKgcFLgkXfBPYBKVEzrO5YC+ZHY90++1qa51fvLiNsGRALY1cDzxK26iTnGWS7k/VpHjAfQxDWzj2N6wjK+HfOFnesE/DMAXec3wpigOzqccHstIsWfqI8zrOrFsVCE4EcB4w6eBF7SPllWs3ZWRLpb2EtXZMHvjcIpaVw6dme4q7ckoKiM/Tvqg+L7hxZz4QjE4fq13HUM3dVYN+ZoXsX9LOnNVdDKA1+KehUKObyn6nx/qnzukA8YTi7pJCL2eVVcWBUGwT7bRfYRZEAHZpPuYAs8YWLSDpy7sS737F5pVbVh6vuGXtHPsUncOa3ZlzHhetxKVuQB42hKVW50IfpMp6paMojJ6Um4OQIfRo2ho2/s3FJ9R6B8PxWTzJnh4Jt+Y+DtrNhGQTyYeFwR7A+iKexaq4VUtnTpqKH/mkC78JDS4GEY+gjmoDvxvrtp78ZQbovd1NmLkMaViW/Yp7/6FkQWvRRUpo/s5kW+2TRaftbr82uapE/j+r+N+r6WKdntjEPq/5klflTFXJFCVbxtezOQL23pT3/0LgdinwsC9Qy3VdtZqov/Kpmqfd9XZT4G/xfxeu51a/pC+zj9kCz/pYmkvQE+OeV19yBPnoPZGeYPNlui9fN+dAxPf3RVkpjytIwGguUMTEOs8wy/lI/mkcxdrdGUsGe1fCuBTTIIq3O9NXrKN/0MGURn5RucOETxqdBUL8Z3mDk0AwKkdWg/VKQYWs7ev1r2JNZrovdob5Y2g1zkAwAMxj+K0TLe3z1D9sCFZ+Gnu0ISozEK89xq4q6fOOfTGpLzN5kr0v2aPlzcFeoeBRdvMHeEdDwD1jtcq0HEmX8cwxLmszZWRLvjHQHA2k6CI+MZw7EFAA+yLoV8HoMYWUGRsfcKbDgC9CW8KgE2NK6LqrTwZk2jt5uwiK+vFOQJAnPfLtRDi5+8sgm/8DxsC9a7/DQAT4ntN9IaxS51j5o6RXjZTonULVIzcwFBVTksv1lqImL4ocvsNTe6jrMnlN7VLtxHwlQCK2rxVZ7Uu0K0ZRfnlk4nHARj99KWqXND8ktapyilGNiARbupMtB5XJaV/7FLnOKj+MsYx7DQy4Q/Jl34bvfCz5oYf22+ABXJVLulmuN8F0Qe7IeX8EZBuA4u2q/jBZQC2MfjyBZDw26zF5demajni3wBgC6ZBEfNhz/FvgKowivJTDc8BYOz4U4CtN+nzLhVgZ+PKJijMSjp/Zi0m+oAx0GTxx6bcaYBcF9v1BsW3ZjyvW23sz9nohZ+SE1wEoD6ml6E9m7TPhIiyWRINaKSjqkZu8gyozjD70kk2l6xZwEpcfkuK/lcVOJBJUEQd1NLtnckYyi/fWNMJyGyTyxgqTjJzyIBfcP5ANDBtImEuaX8FIlfHNIJNgiDY6I2eN2rhZ3qxtJtAp8Z0BtueS9qnsNMmGqSEkwXgGVgyk4/W7lWxL2TlLb/p3f07AfgBk6BoT2Ll4hmF/vFMovwCtb8DYJXB4+0aAwtV8i1nNmsv0WC6AtFcg31GbBd/VFumdZcmbcyP2KiFn0DlcsRwQ2cR+QUXfYg2TH6cvArFPUyimu41uCLXIC8xifJqU7XCwPo5gBqmQRFXE8DKtqlajKK8ZjfKUgBXM4mqcuecBnmNMRANehKuuQb7DBW5Joalt6xQfrxRP2BD/2JLwf+CAPvHsMZdl22wT+aiD9FG9TzXMYQq6fGA5bbvXMYkyu+Fonc6BPswCaoSe73Q7Z3CGMpPXedHAP7FJKpEyDEQ0YYPTEXzDfbpgMTxwItPt3T5R2/49GsDtD6hrgKXxvDWetPYpH0aF32INk6uwblfBAUmUQ3dHn44a6JwQlFmUxfpdgLhK15UXeNxlR9lunUMkyiv/Dj5N4BLmERVWJhrdOYxBqKNudmIjk3aXxbozbEblgsubX1C3Q35uxu08ONv4mUA3SFmOT/Q47mZNpGQrY1o4zvsMMTPGUTkLV0xwrmWMZSfHfjXIbYHJ1AV20TUv5IxVGAy4DpXAvoik4j6hdJr+QUy0cZrEwmdt92pQNy2j9CG0qbelA35m4Ne+Gl9Qt0QVtyOb3/c73WOnjtRSmxmRENk9SbPKxlElO8tcv7cMdLLIMor3eUfCuBQJkHVOa/FUZmi91kmUV75cdKngu8xiUjrcR13DmMgGhrte4jXU+d8EcAjcSq3hPhOc4cmBvv3Br3w423itQh0XGwGMMAz6jqfm7OLcIJKNLSD1H+rys1MIqp3FTzbk7J/ySDKq22eOiJ6KZOgKh88/XRDH0WnDbeywb0BQAeTiOyN9cb2HeUt5kA0dOaOkd7+GufzAJ6LT1ciY0clBv/Uz6AWftbcxGPztI8Cr4jlHL7m3WkiGvKOK+RJJFHt/0I5d65IwCTK68VtvdMATGQSVOUm+KO8VsZQ5gmQSCAi32IS0RSEAV+dJhoGN42V5YE6hwBYGp9xOi4Y7FM/g1r48Tb1ZgCyfUzy7LVVj+IRxkTDJ59KPAXgMSYRsZsJ8Kd8o3MPkyivqQt1C6h8h0mQEf2IyPdOWKKbM4nyyiadOwE8xCSid1+d3VTzDJMgGh6zG2VpaOmRiMs2Ehvw1M+AF35OL2oNFOfFpO6EonLirMbE39iMiIa946qyb8DM35PREpzLill+tu1/UwFOlMkUW9T0+19jDBW5T50bi5tVNQ11VPi0D9Ewu6EhMR8iaQCxOIwpVOv8wbxWPeCFnxUIjgUkFkd0CnButtG5nc2HaPj1lOxbAPyzqnoIs92aTbp8CqvMMkXdEsCpTIIMc+aUbv0IYyivXCrxVwB3MImIULza49ucVxCVo/9LOreK4Pw4lFWg40qjgi8M9M8PeOFHVE+PSe/8q2zKvYzNhqg85k6UEgRZJhEJgY2QrxpV4s6j/rfA49vJPPV26H+dMVRgQhAG5wHwmUQktPNkYKLyySbdi0U1FifoiaUDfrJ2QAs/LV3efgD2ND85POv3uiexuRCVV2A51wPgRsIVppBfzEzVLGQS5dW6QLcW4GQmQWYOrXD61C7dhkmUeeLTVNslIjkmUXG+bTm/YAxE5VXru6ciDqccKvbIFEqfGMgfHdDCjwrOjEH9WKFheCyPbScqv9k7yotQ3M0kKmqVFdoXMobyKzn+NwHUMQkydfxti38WYyg/P7S/B6CXSVTUnTOT8jJjICqvaydKTxAExwB4OwbFHdBazQcu/Kz5luZIw8NShaTzjTWdbCZElSEWuPFhJTtB4JpskyxjEuWVXqybCTCDSZDhTm5dpJsyhvKa3ShLRXBdNdyADB7bXM2aSFShPnB8bQEiU2H8ZvfyxRlF3faD/tQHLvw44p8OwDU6K8Xl+ZRzG5sHUeVkG5wHRFBgEhWxQsTh3mYVYPn+KeDePmS+UV7g81X6CvDEuQRAT7TnLMbGvzC7o/MQayFR5eSSzm9F5TrDi+kG6p/ygWPO9f1mc4cm1PRvIgXP1lvOeWwWRJVui6KAXscgKuKKXFJeZwzl1fqEuqr4CpOgmDiruUMTjKG85jTIaxBcxSQqQPXa1WMbIqqkFSPsrwNYYPqw8oOOdl/vws9INzgcwBYGB9QfBOH/XZWUfjYJosoLHTcPgPtslddbluf8jDGUX2nT4HgA2zIJioltRiWCZsZQfuo4lwqwnEmUVY/ruHMYA1HlzR0jvZYVHgegz+BibulvGnxufX9gvQs/lugUo2+E0HNmN9U8w+ZAFA35cfJviPyKSZTVj2dNlH8xhvIT1S8zBYoTVeXpdRW6t4aCK5hEWXv4Oe07ylvMgSgaZjXUPAfgAsPvsetdu1nnws/UhbqFKg41NhjgT/mkeyWbAVHEhkphyI0Qy+dNCR1OBipgRqF/PIC9mQTFzCczxf4JjKH8RpScnwDgK73lmmcEAV9dJ4qYsUnnpyJ41OAiHnHCEt18Xb+5zoUf2/K+BMDUd7H7HYSn8L1boujJNiaehuIvTGL4CXBJtklWMInyC2DxyQeKKauFGZTftROlRwQ/ZRLDT4E/5cfXPMskiKKlTSREEEyHua981dT0e8eu8+67zk5LxOTXvC6cmapZyOpPFNFBk8g1TGHYR6avOvUOc66A04taA+BEJkEx7XvSa9oAlZm3yrkKwD+ZxPCyOIYhiqxsU22XCi42tXyynjWctS78tHT2NQrwcTPTwLPu286lrPZE0bXSs2/l4HSY516iF7WPllVMovx6wuAoAB9mEhRTW6zU4HDGUH5zdpGVInoxkxjGeyvwivOWfTuTIIrwPKPk/AhAh5F9kGKfacW+Hdf2e2td+AnF/oKxc50Qp7bvIR6rPFF0zZ0oJRHMYhLD1hW+NErcduZQGWLp8UyBYt4HHccMKiN03OsBvMwkhoelaOc8gyj68wwIvmLuMHPtazlrXfgRwRFmxqC3ZBvdR1jdiapgWiDO9QB8JjEMXSHwg6uS0s8kyq+lU0ep4rNMgmLdvwOHndqh9Uyi/PLjpA+iFzGJYeFbljOTMRBFXy7pPqzAbwwt3lrXcv5n4WdKt34EZr7m1ad+cC6rOVGVdMgN8pII7mYSQz7lemGF5+aZQ4XSt4MjAdQxCYq5Eb1OcBhjqAz3LXcmIM8ziSF3x8yk8GkqoirhhP43YOZGz3u3dun/bClg/W8A3mFYz6bP1UoEP82Pr3uBVZyoiibJAa5iCkPcF6r13bkTpcQkKlWp9ViGQARA2BYqZfWrSOEPmMRQ12lczRCIqsfMprrFAlxhYNFszwoOef8v/s8Cj0JM/AbmX/1wLmH1JqouuSb3jwCeYhJDNCYVFLZbZt/EJCpjytM6EsBBTIIIAHBI80vKp98qpCfpzgbQySSGzJO5pPswYyCqLo7t/EiA5cYVLAz/53Wv9yz8NHdoQoCDDbymP70xKW+zahNVH4FewRSGhobynbbJwn2TKjW4qAsmA6hlEkQAgBH1ff7+jKEy5ooECrmQSQzVYEV+xhCIqk/7jvJWKAY+9SNySHOHJt79S+9Z+Bnl+vsDGGVYsd+U0LmS1ZqoOo0U91fg0e4bTYFnxqbsuUyigtdAcAhTIHpXm1C2iUraPmnfDOA5JrHRlvWU7FsYA1F1SljO5QY+9bNJve3v9+5fsN43Mfi0gbOdn2SbZAWrNFF1uiop/RBcyyQ2joh8p00kZBIVvAac5BK9t00An2MKldMmEgqkjUls5FRDcQ33ziOqXu07ylsquNzAm+yn3v1/37/Hz36GFXeF6zicMBJVPec6AL3MYYMnV/NzDfadTKJypi7sSwG6I5Mgeo/GlkLfDoyhcrJJ+zYAf2cSG6w3AaedMRBVN3WcKwH0GFUoC2t/4qf1CXUB7GnYNcy17yhvsSoTVXlDTsrrqsJNiTdQaOHbEFEmUTmObR3AFIjWQqzJDKGS+YtakO8xiA0OcHZ7o7zBHIiqW36c/BuQOUYVSvGJNWs8AN618FPa1JsEYIRJRZUw4NM+RKY0aCv4GQAuXgx6TI9H8w3u75lEheuvYl+mQLS2tmGxbVTYrJTzOwCPMYnBV18bAQ+gIDJEEPiXAzBpW4SRfr23yzv/57+veoWyj1E9MXBPtqm2i1WYyAw3JGs6ADzIJAZJcAFDiMA9STi5JVpH69iPGUThVoHvMIVBh/b7mamahQyCyAyzx9cWRHG/UYWy//u6138WfkQM299HZSarL5Fh0wOVy5nCoAbyf8g2uPOYRGWlF+tHBTqOSRCtVTK9WD/KGCorm3IfhIL3i0GNScAj3IlMa9eWzDJs7vSfLx7/+8SPYm+DyvjGSt++h1WXyCz5lH0vAH67NkChgvs2RIDlBXzah2h9baQU7M0UInHP4BOiA9eRTzp8CpnIMPWw7zLsaPf/3F8tAGjt0g9DYM63LSI381hFIgOJqECvZBADyQr35hvdPzOIylPRSUyBaL1tZHemUHk3NLmPAriPSQyk0urlPDSByDxXJaVfIbcYVKRtpnfoh4A1Cz+e5U80qzMOf8lqS2Qmp96dDeBNJrF+YYAfMoWozA+wM1MgWi+2kYgQ4ZOiA/B6zwj3RsZAZOgYOlSjTvdSx58ArFn4UahJCz/Lckn3b6yyRGZqHy2rIGhnEuv1wJpvbikKEykoJ7VE6x+Wso1ERDbpPibAH5jE+qorrps7RnoZBJGZxjU6j0HxqjkDUf3vwg9gTTBoiH0XH70kMnwiHThXA+DrnOsakyouZArRcMIS3RyQMUyCaL29+tgTi7oJc4iGUPADprBO/ZpwrmMMROZqEwkV8jtj5gWQ/y78SKjGLPyo4HesrkRmyzbJMoXOZRJr9RD39omOmpLPJxmIPpgkxN+JMURDPuk+pMCfmMRaq+pN+XHyKnMgMt7dBpVlIvDOEz8CUxZ++hMjbT6eShSHoZfgp0xhLUI+7ROpeqrayBSIBtJ3sa1EDJ/6WWufHl7BFIjMF/TZD8CQtwv0nYWf1Y+hYyuYUar57aNlFasqkflyycSTAPhky3s9lmty/8gYojRLkLEMgWggYzjZniFERz7lPiAC7hX37u4c+EO2MfE0kyAy35xdZCWAJw3pu7ZuXaSbWolVpW3NGV9zEkgUq0GYys+Ywnt6dp7GErW5rOo4pkA0kO6LbSVqwlAuYgrvrqMccxDFrNEbs/jthaVtLMuxtjbmBiXCbyaIYmS7lP1bQBYxCUCA+bkG534mEbkrsz0zIPpgKmwrUZNvdO4B8HcmAQAojkna9zIGohiN4EJz1hbC0NraQigfNaVAgdh/ZRUlio/Vu+6HVzEJQCFtPNEwitcFnMwSDQyf+IliH6Z86mf1DFB/1iYSMgii+HAC+3FjujBLRlsK3caQ8rwxp0FeYxUlihcrdLMA3op5DE/lkjZPNIyYZlVbTNlDj2j4bd2majGGaMmn7N/CkH0uNnjCBCz3V7mzWRuI4qV9grwC4F9mlEZHWyJiyqtez7F6EsVPtklWiGBWnDNQyIV82id6ahdhC7xzeiYRfRD7+U5szhgiRkRV5OI4RxAqfr5mo1ciip8FRnTliq0thW5tRmFkAeslUUzHpZ5zJQA/rjek7ZP2HawF0VMTlrZgCkSD0c82E0H5BvtWxPcLVk9s51rWAqLYzjI6jCiG6taWAh8x46Lo86yYRPE0a4IsAXBHLAuv8n3uOxBNvlofZgpEA2e7NttMJOc9okBc9/rRubkGeYmVgCim3R/UjENkRLayBKg3oSwhZCmrJlF8qeqlMSx259iUPZdXP7J3WT69QDSofpxtJqp6kvYtALpiOOv7Ca8+UYzvSyKvGFKUERaAWiP6ZUtfYdUkiq98Y+LvEPwxXgNS+SGf9onyfAGbMgWiQdmMEUTTXJEAKj+KVR+u+H0umXiSV58oxgJdZkhJ6ixAzFj4CYJXWTOJYi9GT/1I99iX7Zt5yaN8icJahkA0mCYT1jCF6Bq7zL4RkNhsraCKy3jVieLNtkJDHi6ROkuhdSYUxQlr3mbVJIq3XNK9D7E5dja8qG2y+LzqEZ40AAmmQDSIYSnAhZ8Ia5ssPjSMy1M/f881uX/kVSeKt5ImDFlj0FrLMuRVr1Idelk1iUhVYvANnb7Y47k38mpHm6XChR+iwfRsFhdLo85d4d4A6AvG10XE+wh7IlrT5/nGrDHUWQrUGVKYPlZNIlqZsudCpNvwYl40d6KUeLWjLeTTC0SDIhC2mYhr30M8FbNfgRJBYfukfQevNhHZmxuzxlBrwZBH0bffHpwEERHmigQK/MngInqb1bmzeaWrYPJgwWEKRAPH1yOrw+a1bg4Qz9h6qPoHHpxARAAwemuzFn6M6Ljf7IbLqklEACCh7m5w8dzlvcHneJWrYhYbMASiQQjhMYToW94XHA6oseNuEfk4rzIRAcALLxjzhUTJgiGvSPVb4OkpRISWoncwBLuaXEaBXgBV4dWO/q2JERANnLLNVMFFUhHV880uIiali96nebGJqGSZsS2OAL0W1IwNi0Lhwg8RAQqcE4Ni7pruDg7n1Y58beQryESDGpiyzURduhAcCWAX08tphbEYSxDRB6jtNWPhJwT6LBUxYuHHC/rrWTWJ4q2ls7QHFAfEYoKkegGveNQnsdx7jmgw+MRP1C+QiiX67VgUVfDZlq7SLrzoRPEWuv0jzRiTSq8lUCNusnZob82qSRTzztmSc2NU3D3T3d4hvOqcxBKZQmBxsTTCpheDQxWYFJfqqMKnfohif18K7dGGjEp7LcCQV70s4cIPUYxNK/btKMBR8boZ4bu88hG+xcJ6iykQDYKFfzOECPdpoufFbMp37LRi34688kQx7vdCM9YYBOizRLDKkKsymlWTKMbzBXW+CcCOWbH3mtblHcirH9GbrOibTIFoEG0mZJuJqnTBO0gV+8as2LYF5yxefaIY35es0IiFHwVWWap4zZDLsj2rJlE8ZYq6JaBT4lh2S/Bt1oBoChG+wRSI2GaMGGUD8dxXTrVl6kLdgjWAKKbUjDUGBV6zROUVQy7LBNZMopgOSNU/BTBj1/0N8OnpBW9/1oII1ksnwacXiAbTZiy2mShq6fYmA/hkTIs/wnL8GawFRDG9LwETTSiHBVlmqegrhlwULvwQxVBzhyZC4MtxziAEn/qJosSbeBOAMgmiAdGxL2M5Y4jghQkQ61MkRXF66xPqsiYQxbD/UzMWflT1FUtFlxlyXbZtXaSbsnoSxUu9E3xJgLhv7n7QtE5vX9aGaGnfQzwAfIKBaGBeb5ssPmOIlpaitzcEk2MewzbeJsEXWRuI4mV6h34Igo+aUBYRfcWyQsuUV73gB/6erKJEMSN6FkMALAvfYgpRrJ94gSEQDchiRhA9oaKNKQAC/RpTIIqXoMb/uDmdmCyzQgmNWfiBYj9WUaL4SBe9TwPYlUkAAA5Nd5W4+B29+9ILDIFoQBNrLvxEzLTu0iQBDmISgAKT+GQtUczuS6E5JxmGfviKFViuKa96QQXskIni1CErzmYK7544yflMIXKTBU5miQY0hhO2lYixQmkDIExizT3W4piDKGaDOGPWFhJW4hVrToO8JjBmM729uPkaUTxM7+5rAHA4k3j3qBSfn9ZdmsQgIjRxUl3CFIgG0H2pvsAUoiNdKO0K4DAm8e5bLI5qKfTtwCSIzNfcoQkITHnV6832RnnDAgBVLDSkUPVevf9JVlUi84XqnAnAYhLvHZdaoZzLGCJUT0UKTIHog2ko3UwhQjcTyHfAp33ez1a1T2MMROYb6fqfAjDSkOIswDuTJrGkw6A7FZ8AIDJcerFuBtU0k1irL0zv7t+JMUSE6zzLEIgG0FTEeYYpRMO0Yv9EAEcyibXOM2bwFGEi81mQI0wpi2L1Ws+ab8vDBeZ0yPJ5VlUiw8ddnj8DQD2TWHs8YSg84Ssi8uPkVQCvMQmi9VrW3ihvMIaITHhC+Q74RO26jPJDL8MYiMwWGrWdRPjfJ35CNeiJH+iOmWL/BFZXIjO1zVMH0NOZxPrIsS2dfY3MITL4JAPR+nosZRuJihmF/vEQ+SKTWM9MQ3Fms6rNJIjMNLWzf2eBjjOnz5J3L/w4C0y6WALrRFZZIjO9uG1wDCDbMYn1stW2+NRPVO5Jwkkt0fqEAr4SGRH+6tMh+bTP+nv17UcWA74KR2TqINoyay1BEs5/X/Wa3ShLDTrZC6r6f22qvGkRGUhVeZzqgIKSE2cU+scziAhcCsg/mALReoelTzGDymvp7GsUyPFMYgA1FhyLEJlozdN8Ji38vLlm24H/ruir4HGDuuPtXlzkf4pVl8iwQWnR2xvAXkxiQOxw9aksVOkLEXiPMgWidQtt+xGmUHlq2T8AwFeYBma/6V2ljzMGIrOMLPoHANjGoCI99s7/+O9TMQqjBqYaaAurLpFpo1KcbXDZhuFHyrEtXaVdWHEqa2ZT3WIAS5kE0Votnb2jvMgYKiu9sP9jAI5hEgMXCs5kCkRmEahZm7cr/vLO/7TeVUqzvm0ROW5ql27D6ktkhqmLdDsFjjb4TjMcLBX5LmtPJDzGCIjWOsj+M1OIwHWwrR+Ce/sMNrXmTLeOYQ5EZmjp1NGAWZvbC/Cfe+x/OvieWudvAEoGldO14beyChOZwQ780wE4TGLQjubj6FG48+pfGALR/1LDnjivzslOaQ8YdXRx+eYaGvinMgYiQ+5Htn8aANegIvWHCeeJd/7PfxZ+5o6RXgBmbUAp+HJ6sdayGhNVt1M7tB7ADCaxYUJL2phCZVnAQ0yBaC0D7VAfZgoVv0f8EMP13Gk0atnw9e2Ck6c8rSNZi4iqW/NLWgeFWQ+NKObnx0nfu8ai/yVi3LcuW1qeN5VVmai6rXK9DIDNmMQGd/yfm17w9mcQlTOrwX1KgVeYBNF7vJxvSjzHGCqnpcvbT4CDzS7l8K1pKbC5M4JzDaJqN7LPywDYwrCu7z1Pm1vv7bzkT8bNdxTfau7QBKszUXVqU7UE1hlMYuOEijamUMmbr6hA72cQRO9pF7+HiDKICo6TBT9gChsd4pltqtwfiahKnV7UGlGca17X9N61nfd0Uv4q+0EAfYYNKsaOcr00qzRRdVrSHRwBaAOT2Ni+EJMznd4BDKKCN2C1fs8UiN7VLSnYJiooXfAOAvApJrHRGl8qBp9jDETVaWXozQDEtI3ae4NV9h/f/QvvWfiZs4usBGDcu9YKnH96UWtYrYmqcrZs5hHulfiOW3AhK1TllGrt+wAETIIIAOCHrv0HxlA5AnyfKQzVLd3QsQqR4Zo7NKHANwycZvxxzdrOf/zPY4miepeBt7btVsL7Mqs2UXWZ2tm/M0z9NlIq8m/u09Ll81vJCrlprCzHu47VJIq5h/Lj5N+MoTIyBf9wAHsxiSGbZB3Y0lXahUkQVZeRjn8aRMYaN80Q/d37f+1/Fn58x73LyKuq8p3WLv0wqzdR9bAt+yymMNR3Ar0QqsIgKpb/LQyBCIDqrxlCxbIXQPm0z1DHalmnMQWi6pEp6pYiuMDE7sjG/67p/M/Cz+wd5UUInjWu9MDmnhV8l1WcqDqcsEQ3B/Q4JjHkfeGklkJwFJOoFPdWAD5zoJjzgtC9nTFUaLLTHXwBwG5MYqhvsHri9A79EIMgqpYmG3wfZp4a/NTMpLz8/l9c1w70dxt6db88vbt/J1Zzouir7fdnABjBJIahKxS9kCeQVEYuKa8DeIhJUKwJHpw9Xt5kEOXXpmqp6gUml7GCx8TVhQlvGmsZUfRliv0TBDrD0E5wrW9wrXXgL4HeZug1tsPAupKvORBFvcNSUeAkBjFsJr5QCI5lDJWq3nzdi2LfCOYyhMp4sTv4kgA7m1zGig7y1foKv1ghqoJ5hlrXAXCMLJ7oWp+oXWvHlG1KPAGgw9C7weR0t5dhjSeKrunF4FAASSYxjF2h6Pfb5qnDJMov4bi3AFjFJCimVpbE/Q1jKL9mVdv0p30iMOXa8cVu/zPMgSi6WoreSQLsb2jxOvKpxFNr+411rkir4iZjJzwqP23p1NGs9kTRFEJPZQrDLvniNt7/MYbya99R3gL4xAPFdFqscvONSXmbSZTfyG5vGoBGJjHcdRxfYQpE0ZRerB8F5GJTyyfADev6PWvdEy/nBgCBoZlsqrb3U1Z9ouiZvkDHAvgskyjL4LStuUMTTKL8wlB+wRQojkRC1v0KaH1CXVHrfCZRFoenF/ZuzxiIIngP8vxrFNjc1OGlJc6v1vWb61z4md0oSyF42NwZjxyXKfpfZPUniliP5finAbCZRFlmYGPrXb76Wgk3NLmPwtRXqonW7blcKvFXxlB+pU29kwDdgUmUhSWO08oYiKIl3eUfD+AYg4v4h7Wd5vWfjmm9cwLVOUZffdVfTF2k27EZEEVD80taB4ALEWUl31mTO5X7FgTlkw8UtzrfzhQqMNlZrLWich6TKGtlPym9WGsZBFE0zCjqtiJ6jdlDepm9vt9e/67zofsbACsNjmczO/Rz3H2fKBpG9XrHAdiCSZTV6PpejyeoVYAVulkA/2YSFAcCLB/huTkmUYHsfe/LALZlEmX1YfEDvllAFAHNqrav/o0APmRwMXv8Vfbt6x13ru83s02yApAbja4JigOWFP2vskkQRaE5Cjd1rkjwcl7rMh3BIMor2yQrBPg5k6B49O+49tqJ0sMkymvK0zoSKucwiUpUeh5UQRQF9UX/XINP8QIAiMrsObvIeh/Y+cAnXUIJrlx9vzbaDzOF0ifYLIgqJ91V2hPAnkyiEncLfNTr8U9jEBUQOlcCKDEIMly/6zvXMIbyc0f4pwPYiklUxN7Ti6XdGANR5Uzr9PYF8F3Di6khgqs+6A994MLPDcmaDgB/MDysBCC3Zoq6JZsHUWWI8PjTCvvmiUXdhDGUV7ZJlkH0ZiZBRo9IVX7ZPkFeYRLl1bpIN1XF15lE5QShxbENUYXMeF63siz8GoBr9iQKv8831nR+0B8b4N42ckUM6sa2CP1fN6vyNCGiMpu6ULcA5DgmUVFbuOpzglCJiYEf/hBAwCTI1CoOBD9mDOXnh/43wX3zKjsfEz1heod+iEkQlVezqh34/hwA28SguANaqxnQwk8uaf9OBAXze2dMru/2L2RTISov2/anA+DpFxXvAvHV1gW6NZMor9njawsKPvVDZlLInIF8E0lDq3WBbq2KM5lExdWFCW8aYyAqr/qifzGAg4wfuwsKYxucBwbyZ60B/kQNVa+NyQjl3EzR5y78RGXSpmop5BQmEQkjPSe4gDGUn22FbQB8JkGG8SzwC7WKBO8EbQBGMokozC2sr/AEYaLyyXT5xwH4WhzKGkKvaBMJB/JnB9wJeeLmBFgeg/wEqrOnd5U+zmZDNPyWFINDBTqOSURmhHrSjEL/eOZQXrMaarsBmcMkyLAhVS6bqn2eOZTX1IV9KUBbmERk7qs7Lun2D2IORMMvXSztBdE8AIlBcd8IVrk3DPQPD3jh58akvA3gZzGpM3Uh5LfTF+hYNh+iYZ4WqHLjw2hxQljfYwwVmBoE3vcB9DEJMkQvLPsHjKH8bNv+EQCHSUSpgwePdicaZumFvduLyh2IyfYRIvjJBx3h/m6DeuywX5wrAPwrHrNRfDR0/HtaF+mmbEZEw2NasW9HFRzMJKI2PsUXW4re3kyivPLj616AxOYLFjK/I7ks1yAvMYjyWvPE+tFMInIOn9HZy6ebiYZJS6eOEse5E8BWMSnymwicawbzFwa18LPmqZ+fxqgOTfAC/9fNHZpgcyIaepbapwy2H6KyEFVcxBjKr67kXARgGZOgKrfU73MuZQzlF4pcini84lB1Q57Adk5iDERDr7lDE2r5t0HxsbiUWQWXZZtkxaA6oUEPSj3nCgCvx6gufbbe9W/mMe9EQ9xJv6R1ADJMIrI+3dLlf44xlNe1E6VHoOczCarqASnkm4N5/JyGRqbgHw7gU0wisg3jpPRi5QmmREOoTdWqT3izAXwmRsV+0wqcQR+8NeiFn2snSo8qLo9ZnTp6ZDG4mk2LaOiM7PO+BGALJhHhMaqll/AkkvLbLunOhuAJJkFVOrn9Sz5p/4pBlH/yAyhPUIu2D4sf8ORgoiG0pOj/DCrHxeo2uwFP+wAb+IqFpc5VAN6IU8ACPSXT5XHDU6Iha1PyZaYQ+Qncx17oDk5kEGWewImEEuoMAB7ToCrjq+hXIKKMorxeLHpTAezKJKJ+X1Vu8kw0RDIF7wcAzohZsV8fURrc3j7v2KCFn2yTrBDVthjOVL/TUiydxWZGtHHSxdJeUOzBJKqg2wvDC08vag2TKK9sY+JpgBs9U9W5OJ9KPMUYynxPXay1CvDLyeqw97Tu0iTGQLRxWrq8rwGI36vxot+9dqL0bMhf3eBH+Fek3OsheDZuWavKTzOF0hlsbkQb02fhFKZQLRdLxvbA4zeUFdBT57QB0s0kqDq6ChTUdX7IJMrPKvlfAWQ7JlEl10stjoGINkJLsXSWCn4cw6IvGPuy+4sNvk9vzL88rcs70BI8GMPQVaFn5lOJq9j0iAandZFu6gX+MgAjmEaVTOiA5X01zo43jZXlTKPMg5tub7KG+AN4Sg9FfFxkAZ+elXL/xCjKK71YNxPP7wb3zKsmPRI6ozdkjw6i2I+LiqWzVCWWT0SL4LPZpHv/hv79jdq084ZG9w8K/C6eucsVma7SaWx+RINTCr0TYeaij2/sjA7YvLbkf521t/yyDe48APySgaI+KPoZF30qdVP1z4HJiz6CwMBS1at4x7HyEg1OulA6U1V+GsvCK367MYs+wEYu/Kz+EOHXEc8NKAUiV7Z0lb7CZkg0iIajMt3Qot1h9P1GcfaMom7LGlyBGYI431TgGSZBEfVc6DjnM4bya+nU0SJmb2wqkNvMLJjMYA0mGrh0oXSmQH6GeD4BXQrC4Jsb+0M2euEn31jTCeC6+M5h5epMl3cemyPRB1uzoeHuBnYFiyDOqQDeNvjy1QUaXMBaXH5XJaVfJTwBQC/ToIjp0yA8IT9O+hhF+akdfA9mvzb9lhPapypksYFl+0S6UNqVtZjog2UK3rcFcjli+tq7CK6ePb62sLE/xxqKD1MS5wIAS2NbGwUXZQreFVDlHgxE62sqoWXkN1yiel0uKa8rcIXh04zpmWL/BNbk8rshWdMB6LlMgiLW9309P77mWSZRfi2dfY1QTRt9xxH8rL1R3rBE282cPkiGNZlofZ2ASrrgXQrgwhinsCx0nCEp/5As/NyYlLcVEveTrs7IdHv5tnnqsJUS/a/ml7ROoMcbWLReP3TyAJCwnZ8A+JfBl9GGWheyNldGLuleJcBcJkERcXs25V7LGCo0HxL7EgDGjjkFWA7HuQIAnNCZCcDEp8qmti5THnRBtLZ5g6rd0h38XIBvxDoIkVPz4+TfQ/GjrKH6TPmUcxuA22N+F566ZLR3Y3OHJthcid5rVK93HIDNDOyRb549Xt4EgPYd5S0Apm86d0ym29uHNboiN3+t9ZwWAAsYBlVYZ0mcNESUUZRfplD6BASfN7mMoeCSdyY77Y3yhqiauOi9mb8yOJo1mui9Ti9qzaii/ytVPSnWwz5gbi7p/Haofp41lB/O9Z2vAPh3zAfmx9Y7/rzWLv0wmy3Re9qGma95heF7vvH2e53LAbxm9LUMcTErdGVcO1F6giA4GsBbTIMqZIWN8Jgbk/I2o6jYnedimL3XxetW4Lzn3hpaMPLpMlXlJs9E73LCEt28R/3fK9Ac8yjeQuicNZQ/cEgXftonyCsC5UbHgn088R+evkDHsvkSrd6LQBUmPiXy12xT4ol3/8KcXWQlgMsMv6SfzBT8w1mzK2P2+NqCQloA8GkLKrcQIlNmpmoWMorKyBT9IwF82uhhtOhF2SZZ8e5fyycTj0PwhIHF/XS6q7+JNZsISC/s3b6m33/U9D5uIFT0q9kmWTaUP9Ma6g+ZTbo/B/BnVl1MCG3/8TWnGBHFm223wsBvJ1XkmrX+uutcDeM3vNcfNavarNyVkU85t6ni20yCyuy8oXzsnAanWdWG6g+NvrMAr6yodX++tt8T6PUmltkSK83aTXHX0lXaRWznEQDjmQYezje4uSHva4b8Y4qoZQUtAHpif8kEH7VCeWh6wT+M9ZdiO1Dt0IQqphhYtDfg2GvdcyA/TvqgavrrUDuNKnpTWMMrJ9/oXgTIdUyCyjOmkZm5lHspg6icUd1eGsBEs6uZXjh3jPSu7fdW1Lo3wcADFBRItz6hLms4xVW66B+hIo8C2IZp4G079DPDsYeeNRyfdlZDbbeInsXrBgCoD6G/TRe9cxgFxXKgmgiOArClgUXL5sfJOk8Z6fHddoUsNvnaKvC99GKtZS2vHPdt+0wF7mcSNKyTccXvx75sf5lJVE7zS1qniu8aXtMW9ZTcWev63bljpFcEeQMLvlVpk+AI1nKKo3ShdKao3g5gJNMAVOS0mU11wzJ/sIbrQ2eTiVlQvYWXDwBgi+LiTKF0U/NLWsc4KFYdmJkbF4Z26K/3kfO5E6VkCS4wfJC+neX7Z7GWV077HuJ54jQDeIpp0DB5Euoc2zZZfEZROfW9/lcBGWP2gAHnz50opfX9kQDBtQBC4+6mwk2eKV5OL2pNplDKC+RyANw6AIACv8knnTnD9fOt4fzw/bXuKYC+xMv4n279S/W9/iOZbh3DLCgOZnT2jgNwoIFF+91AVuOzDfZNAJ40+ial+FZ6sX6Utb1ybkzK2xDnYPCYdxp6XbbjHPr+jXapvKZ060cAfNPwYj41NmV/4JHtNyRrF4ka+JSj4rM8FIbioqVTR/eo/zAg05jGf7xse07rcP4Dw7rwc9NYWS6rTx4JeS3/Y3eE/uPTu0ofZxRkusByWoa7n6kIwTUD+3OiEHzL8Ms8SrygjbW9snJJeT1Q52BAnmcaNEQd3SIJnQNm7iD/ZBaV5WjwQwCbGF3bgG+0iQxovhBaYuLR7pbafoa1nUyXKZZ2V8t7HMAnmMZ/uzWxMHXWRBnWPcyGfUKWTbkPiuByXs/3GB2KPJzpKvGxTjLW6hOf1MCVfFk0tsF5YOATcvc+AA+afbV1Rnph/8dY6ytrdqMsDWx7MlSXMA3aSC/boXfQUB8lS4PX0lXaBaqmLwjcl025A75Pbt9g/87EPfRUMJ2nZZLR/VmhdApU/mL8a6uDbfuKS7MN7rzh/nfK8k2885Zzrgge5WV9j1qI/CLTVZoz5WnlZlZknJHdwaEmduyqeu1Av5X8z9+BfgNmP/loi2NdzlpfebN3lBctO/wMF39oI3q5FywrmDxcm0vSYBcD5DKYvf+FQnRQT8a2iYQQ/bmBWWw7qhAczFpPpml+SesyBX+Wrj6JtIaJvMdjK32nLBv3l2Xhp30P8RzPaVbgFV7b9xH5P6fO/3um2D+BYZBRVdvMTZ17bd/JD/Yv5VOJpyA61+gLrjgg3eUfyppfebMaarsDx91fBAWmQYPUBcvdf1ZDbTejqLx00T8CwEFm3zr0plwyMei98BKhMwtAn3F5cJNnMszUhX2p+j7/r4C2MI3/8c9AneYP2tR+qJRt7432CfKKZeFEADwV4n+Nh1qPtxT9YxkFmaB1gW4NwLhFAIX8ekPfv7Uk/DYAz+TrLqI/bpunDltA5a1+8sfZX4FnmAYN0AIJnQNyDcJDOaJwH31CXVG91PBiliyE39mgeUWjvKHQ3xiYyRE8MIFMke7yj7Jt+29QcDuA/+VDcNzsRllarn+wrJuuZhvceWL88cYbbJSq3txS8K9ML9ZaxkFVPZJbvUGhcQsAGurMDf27sxpquyHyc8Mv/fgXR3snswVEw8wd5J9h4BwA4HGmQR/gMctzPsk9faLD28T7MoAmw4t5XTZVu+Eb0ovMNDATF77Pk46oqq15tetaEb0dwKZMZC3dl+LcXNJ9uJz/ZtlP28k2OJco8Bte7nXVAT1dPH/+1M7+nRkHVSVVERETN6LsvKHR+cvG/Qj7+wDeNvryi3x/eod+iA0hGmaPlzfrxfm0QG9mGrQOt/XUOQcO92kiNHAnLNHNATH9i9Ie23F+tDE/IN/gPAygaN5kQE6CqrAlUDWaUegfP7LXfxzQLzONdQ2W8dtsyvlpuf/Z8h+zLKIJ25nOvQfWa4JtWY9lCiV+c05VZ1rBPwDQBuP6aMUvIKIb8zNySXldFD8zvAp8KEz432JLiI6rktKfTboniOJ7TIPe58qxSad57hjpZRTRUdPnXwDgwyaXUYBLZ+4g/9zYOYUKZhk4K9wx3e1/ii2Bqk26WDo1gDVfAD7AsG6dos6UjZ1TbAirEqVt31HeChAcCuANXvt1GgHI9S1F7/apC3ULxkHVwjZzY8KSWM6cofhBtb7zYyheNboSKE5PL+pLsjVEaZYlmm1021T0K+BeewR4Av1yLuWeOdhTCml4TSv27QjBqYYX8zWEzuVD8YMc28nDxP3zlJs8U/VIL9bNMl2lX4vKNQDqmMg6/SsIgiOzTbKiEv+4ValS35CsXSQWjgVQYh1YX7+Po2zb+0dLwfsM06Com96hH1LI0QY2xDtySXl9KH7UtROlB9AfGl4VEhLYF7NFRE8+mbhWFJN5ymasvY4Qh2RTiesZRfRYal8Gw487VtHvDdXEZ81TQ3eZlpFAvrD6lT+iaMsUvc+K5z8HER5StH4lCzh69vjair31ZFWy9NkGd55A+TrTB3f/YxS4P1Pwf35qh9YzD4qqMOEdZ+KAVUR+MZQ/z13h/hwQ049LPmZal3cgW0X0ZBvdR6zQ2QOKvzCNmI0mBI9K6Oyaa3L/yDSiJ130Pg3gaMOLWUy85Q7pPVXUyE2ea2v6PU6kKbKaX9K6loJ3MRT3ANiGiayfqp42K+X+qZKfwap0CNlUIq8KfjM8gPsaoK2r3OCZ6QVvf8ZB0ezVZKpxRYIs3i7pDOkkqX0P8VTNP+HQEvy4TdViw4iebJMs6/GdySpyDdOIR+8M4ErnLWcyT+6KpjZVy1L82PxhgpzfvocM6atZ26Xs+6C6xLiBv8gUtgyKopait/eoPv8pBc6JwnpCFfhBvjHxi0p/iEhcqHzK+RZPHBngTQA6LgTmZQreFacXtYaJUFSs2dPlEwa2uVnDsQdGPmX/WoD5hleLXZcUAg5cI2ruRCnlk85pEBxi/L5T8fa6iByVS7lnDvWEm4bOkqI3TYFJhhfz7/kG+9ah/qFtIqFA8qaFpYp9py7sS7F1UGTG+ou1tqXgXayKP6uCdXNgbh2bdL4bhQ8SjRU6EXXq3ekA/sq6MeDrdsYK9f/W0lnag3FQJJpxYE8DYNrxowEsZ/Zw9Xuh4OvmVwy9aMrTOpItJLpySfc+23V2BXAP0zDOgxI6u2aTzp2MIrpal+kIwPxT90LFecN1ko1lOTMBBKZl5lj2CWwhFAWZQukT4vlPrHnKx2YiA6D4S0+dMzUqhyhE5tGs9tGySl3nEABPs5YMcD4F7KyW/JV7/1DlOzYVhZg4OLkn1yAvDdcPzyfdhxS43/DaMdqt9b/BRhJtM3eQf+aSzuEiejaAVUyk6q0C9Mxc0jmYr3ZFn7fCPweQMYYPWu+9odH9w7D1YUl5WRQPGDe8Ep0GVWEroUr5z14+kEcBTGQiA/ac5TtHzB0jvVH5QJF6Jy8/Tv4dqHMYoC+wrgzmGq7e+ydd8A5iHFQJLYv8Twt0nHHjVBn+DSMt1W8CMPo4ZRV8c+oi3Y4tJfIVXrPJxOV26O8UgwVJkz0cBMFuuVTiyuF6uoKGztQu3QaCrxlezNCCnj/s/8gQH8QQkY55++lF/5NsKVQJ0wve/vW9/tN8ymfQI9+XYDmHzpoo/4rYokG0zG6UpZYVHsT9BgZ5W4COE+D+loJ3y9SFugUTobJ2b6GBGxAqXnXesu8d7n8m25h4GubvcVZnh96FbCnVYWZT3eJ8yv2srj6a9Q0mUi3jACwX6Mm5pDO5ksfF0uA48H4EwOjXYUX1xlnJxD+G+9/Zfql9pwKvmJZfyE2eqczSi3WzTMH/eQg8BCDJRAbldQnDg4bzjYENFclduGc11HbD0sMAvM26M9i5Kpot23820+UfxzSoHFbvTaBfNHAWNatcG6FqEJwPoN/szkmmpLtKe7LFVI980pnrW85EQLIw/Km06p8Xyi9UnMZsKtHOp3yqx/RiaTcVOdHwYpYgYVs5/qG2yeILMMe8+6ceu2YfKKJhly74J4jndwLaCvP27hxubyn04GxTbVcUP1xkj1/LJRNPquBIAH2sQ4Odr2JriN6cKXjzZhT6xzMRGk7eyuAYAKNMG2ZZVpAv2wR7fN0LAH5uetckkMu5V0F1mdMgr+VSznSI7qnAn5hI5PwV0H2ySac1l5TXGUd1CVWugOlHISuuyaZqny9bphK0AzBt8XOT0org82wxNJzSi/qS6YJ3n0BvBLAVExm0Xgv4fD6VeCqqHzDSN5t80n3IgnwRpn8TPnw+HcD6R6bL+156sdYyDhqWMZ2qiY8g/2FWQ213Of9BV50LYfpTjoJ9WorBMWw11SeXTDyZTzqfhsrx3IcvEo3peRU5Npdy98qlEjwRtQpliv4XAZi+d8sK33YuLuc/eEOydhEMXKQWUb7uRcOidZmOyBS8H0hgPyfAwUxkg/SphWNmpdxI9z2R/5ZhVsr5nVo4CnzyZ0PVQPAd8YKOdJd/KOOgodTSqaMFONC4gunwb+r8fu2N8gYEPzG9zoTAZacXtYatpzpnHrlG59fu225KVKYB8jxDKXvn9JJCz6oXe0I+6cxlHtWpuUMTUPwoBkW9ZE6DvFaBvmqmgVke3LpAt2broaGUKfiHl3qC5wCcDyDBRDZISUWOzTe4v4/6B62Kx0vzDe7v12wyWWLd2uDB4g4i+rt0wbs1vbB3e+ZBQzKJt/0pMG+X/zfrLfuOSvzD/irnJ6ZvbC/QcT3qn87WU73a9xAv2+jM7vHs8QI9GQCPCx9+r6ngXHXdVD6VuOKqpPBJ6Co2yvXPBLTB6FEn8Irf61xekX/bsW8F8C/DInV82z+BrYeGwrRi346ZLu8OQO8y8VTeMuq3IMfkk85d1TEGryItXf7nVPR2APy2eOOUAFwvofPtbJOsYBy0oTIF7zkAEw0brF6eT7lnV6yfK5RaFWL6fj9v2Y7TOHMH+SdbUfVr7tDEKCc4XkXPATCBiQzpMK1bEV69ss5tnztGeplH9ZvxvG4V+H4XgE2NLqjqSbnGRMWevGkp+Fcq1KgvGRR4Jp9yd2Erog3VukxH+Cv8b6rgHADcBmQj59Mi0pxNOndWyweuqg3lso3OvapyDLjnz8ZKADhDLb+zpcufys1WaUNM6y5NgmGLPgCgElb0EfEVSXcWBM8aXn02DfzgR2xFZpg7UUrZRmd2LunsJMBBAO5mKhtHBI+qyLE9Sbspn0pcwUUfc/h+cDFMX/QBnu5JublKfoAwCH5hXL8A7NzSVeLCD23A4FYlXfSbvR5voQq+Cy76bKyqW/RZ04dUn0zRPxKqvwaf/BmyAWYgeuYNDYn5TIMG3A4L3hUAzjDrxoi/5BrdfSuebad3ACz8wfxhiO6TTyYeZ2syz4xC//gQ1jQFZgDYgokMyFuA/NqS8PpZycQ/GId5WjpLe6glf4XhJ3kpcHA+5T5Q6c+RLnh/FeDjZg3a8ZNc0v06WxMNuB10lfYUkSsA7M00hkQfIM25lFN1X3JV7ZMe6YJ3kAC3AxjJ+jckQkBuCNS+YHajLGUctD5t89RZso3/Mow77lFbcqlELgqfJF3w7hbgMJPrkQDzt0s6H28TCdmqzNT8ktaNWhU0q+gMAPtV87hj+ObI+BNEZvbU2r/hkz0G3zdVrReK/mPGLUT8rztzKffIiEx4TxKRdsPy/efYpc62bZPFZ6ui9cl06xiE3oWATIHhi81l1IMQR+aa3D9W6bi7eq1ZwbwX/DZxKK0S4CrHdn7UvqO8xThobVqK/udV9bemdeZ1nrP1tROlJxIZd/Y1qmU/C8A1uS6J6IxsMjGLrcp8M4q6ra/eFyyRZlXsg3gvAi0QxdzACuasOX6aTJ+EdZVmQOQXhhfTh4S75JI1C6LwYU7t0Ppe118GYJRJIavKYflG5x62KlpXve9z/K+r4JsA6pjIEI1XgeUQHJZNuo9VcRmq/EZa7J8Ate4HsA2r5JB6UwWXrSw5P5s7UXiaGr233RW8uQC+aNgKxMxc0jkpWv2bfxVUTzO8Or2urpPKj5N/s2XFR3ph7/aW7TQrcCiAfWH4AicAD4pHILhHA//W/Pi6F1gL4uOEJbp5Tb/fBWBLsydGclU25UTqFfBMwZ8FaItZQeuvc8nE8WxZ9G6tT6jrb+JlFPJ9GPdEfoUpXg00/OzspppnqruPNsCMzt5xgeU+AOiOrJlDPRdGIYR8O99g3woRZSK0ZgD7CgzbY0sUn8w2uo9EMOtuAB8yvFpdmUu5Z7J1xdOJRd2kJgwOVMEhQHgwINsbMlJ8AbDuV8W9ltp/4Cma8RWHRXwBlvuBk5w9Xt6M0udKF71Pi2KeYXH3qetszS9M6L/13D9CVH8CIMk0hv5ernZ4cH7H2qIB/bQZpnbpNrb494NHyQ5PRRE8qsD5uaT7MNOI+wC29GWoXGtap55LujtEcXEz3eV9VQQ/MbxaBUEY7l7t36TQ0GhdoFuX3GAPS3VfCPZTxZ5YfRplpOswgC5AHhHFo5Z6f57ZVLeYV5OmFfsnWmo9BcAxe5yoZ2eTicujd3tXSReDRQIdZ9awRU/KNSZmsoXFfEy++jCQHwLYi2kMiw4JnYOzTbLMhMIYcxOa3ShLT1ii+9X0+7cD+BTr6VDfX7AvgIcyBe9BCfW8bFPiCaYS18ogU40bsKrcENUn2lb6ztX1rn8KzP4Wx7Yt6xqo7s8nC6l9grwC4K41/6F1mY7w3/YmwMYuqvIxAXZSYCdU7lH2fwrwXAg8C9FnrQDPrBjpdnBjZlobS62rYfiiDyCLRsK5LpofTVQK3o0Avm1W5DIVABd+Ymp6V+njocgFAA5nGsM138FfXDhHtjfJG8Z0G6Zdo+YOTYx0vaxATmSNHVYPiurXs42JpxlFfKQX9SUlsLsM6zs0lCAZ5Q1WW7r8o1X0NtPrl4gcl006t7Cl0UC0LtMR/StL4yy1xynCcSIyFtAtVWULWX3owzv/jcQHv5raD2AlgDfX/PcGoG9C5A2E+gLEeiGUYHHNyMTi9tGyiunTgO6ZXf7xIvor4wsqclQu6UT2wIfp3X0NYWgXOHahajej0D8+hPU9Xb3PJk/JHK4uDZgbus7U/DjpM6xcBlKVdMG/SATnsuoOqwCiN9pB0MZH2uMhU/AuhGnfmgGP5FLuJ6P+IVsK3oMKHGh4FXvZ73Wa5uwiK9naaDjGBie8iM3e/Us3jZXlDIaGQ+syHeGt8BZAZKzhRX0ol3InV8H45S8A9jaqSxO05ZPu99jazNdS6NtB1foeRE4Aj2YfViK4KNvgfNvEJ9AtQ6+Y5hvd81R0OgCPVXjY2FCZGlhOV0tXafb07r4GRmL2pEkNfJJOVWdXxwBPvwkgNLyWbeuO8L/FxkbDNTa4aawsf/d/DIWGi7fS/3YMFn1CS/SrVdH8UR33+kGVScG3Gww3fYGOzRS8KxT2Aoj8H7joM5wCiJ6aTbrnm7rtgPGPiKUL3kEC3ApgE9bn4R/niOrNoRNeaMLO5/RemULpE4A8blixqupkjHTBzwk0bXhV67esYKdZDbXdbHVEVJVjz9WvRT8Lw06/XMs0IpdLOVVxVLqpJ5JCdFIumXiSrc6wPmRh7/Ziu+cBmgHgMpFh12NBjp+Vcn5nciGNXzXMp9wHFPopqC5hnR52ropMkcDuyBT8WS2Fvh0YiTkUcrx5Y1b9bTUdh2qF9vlYvQ+JyWrC0P4ZWxwRVa3A/hmMX/RBj4R21bz6fdNYWa7A3eYNzuQ4NjhzTO/ua0gX/JzYThHQVnDRpxzzm8VBGO5r+qIPEJPHxfKpxFO+7X4cwJ9ZvcvCBbRFYXelC36Or4BVvzZVS4Bm4zr70KqqR7+zTbJMBZfFoModPr3gH8aWR0TVJlPwDxfA+P5LgEur7YhjS2S2eVdCvwRVbvJb5aYu7EtlCqV8GNoL1zzZ7TCVsngoofbHZzfVPBOHwsbmPcE5DfLa2KXOAQK5inW8bByBpsPQ7soUvLtaOkt7MJLqtKTb/ySAbQwr1mvbL7Pvr7YPvbLWuRTQF02vcyFwxelFrWHrI6Jq0dyhCRH9SQyKutTrdX5abR96u5ftewD806xLIWMyi/y92fqq09TO/p1bukqzbdvuAGQauOBTzrbT7r7tHNzeaM5x7R8kVhtEtU0WP5tyzhDoyeCmz+WuZ4erJX9vKXqPTOvyDmQkVcbAR4lF8Mu2yeJX2+eeO0Z6Ra0LYlDpdlwJ/2w2PiKqFvWu/w1VpMyfL8m51Xj64pp7/q+Nux4h+LpXlWnp8vbLFLy7bMt6SkWmgAs+5eQDemYu5ZzcvofEaj1A4tzgVPAbAB9h/a/IpPvREHJJvsG+29Sd003RNk+dJdv4S01rK6K6a7Yx8XRVfnhVyRT9vwLY0/DqtyqwnfGzd5QX2RKJKMpmFHXbQP1OACMNL+o/xiadPdpEqvKUyZbO0h5qyd+NuiKKV3tSzrZzRQK2xKqYf34XwGeYRkW8KRaasw3uvDgWPrZHwmUb3Ufs0N9LgPlsA5WYt2JfUb0zU/SfyHT5x7XNU650R9SL2/oHwLwF0ueqdtEHAERUBGcCMH3RdIQdeBezFRJR1AWh9xOYv+gDVZxZrYs+AJBtSjwBwbNGXRTBR0ct8vdnK4ymtnnqpLv84zMF70kV/Blc9KmUv1u+Mymuiz5AjBd+AGBmU93ikeLsC+BKtoWK2R2iNy/Zxiumi9456cW6GSOJ2iDPwNe8FPlqL0M26T6mwG3m10D5UrrofZotkYiiqqXL2w8izaaXU4C5+Ua36g9KUeBG48ZqIU/3ippTO7Q+XSiduWS01y2ivwKwG1Op1Lhf5/TUOZ+aNUFifco3d4FfI1P0/w+q1yMG39ZE3NsA8rCcH+ca5CXGUVnNHZqod/1XAHzIoGIFru+MaZ8gr1R7QWZ09o4LLGchzD82uGPsUmfXatyTiYgMv0+q2iOL/pMC7Gx4UUuWFUyc1VDbXe0FaenU0Wr5LwKwDbo+/+rxnK3nTpQSW2VlpRfrR62SfwoEZyiwOROpqF4VPS2fTGQZRcyf+Hm3XNL5pWq4B4AFTKOiNgFwBkJ/UUvBu2V6V+njjKRyRiWCQ2DWog8guN+ERR9g9VOLAOJwUuHEF0d7J7NFElHUjCx6p8Vg0QcALjdh0QcA1hxD/0fDrs+HRjkBD0+poJau0i4tXaXZ4vkvquC7XPSpuC4Nwk9w0ee/uPDzLvnGms6SOHsDuJVpVJyrQHMo8teWgvdgS9H/fJsq62uZqYbGPTqsocw2qTwSOt+HccfTrq2gcmGmqFuyVRJRVEzp1o8IpC0GRX3dtZ2LjBoLiMwxbnwjIV/3KrNmVTvd5R+V6fL+qCLvnNDlMpkKDxmhN9d5zh758TXPMo1350Jrm+1KuuidJpBLAdQykMhU1+dV9RoknGx+nPybeQyv9GKtFc//J1Y/hWWKt916Z+v20bLKqGtVLJ0qKtfEoA9oz6UcPvlDRJGQKfizAG0xv+vVU3PJxHUmFWnK0zrSqfNfATDKpDGOus5W+XHSx9Y5vE5YopvX9PvTFXKqQMcxkcjohejXTOuvhgqfoFjrDU40n0pcBQknGbfzf1XTHUTwE/H8V1q6SrOnd/fvxEyGsRn4weEwa9EHqjLXtEUfANj+ZbcdsXhNVWfw9U8iioKWorc3oOkYFHXB2JfdX5hWqDm7yEqF/MawYm2CUnAIW+fwmbqwL5UpeFfU9PsvAbiMiz6RsjAIw7246LNuXPhZj1yyZoE70tkLkHamESm1KjIlDK1nMgXv/kzBP5yvgQ3HHFuNe2TYFp1t4qVqmyy+CM6Owz0rFLm+WdVmAyWiivW589RRxXVxGEeL4GxTN9a3LPPGBBZf9xpyzap2S9H/fKbgPWDbdieAM8DDgKLWU13XU+dMmt1U8wyzWE9KjGBgWrr8o1V0Jkzb6NYcywSYY4lz9cykvMw4NrK+d+ootfx/Aqgzp1T6Qi7p7gARNfa6Fb3bVXGU+RMRPTubTFzOlkpElRkTel9TwY9jUNTbcyn3GGNLpyqZovc8INsbVKpVdZ6z1bUTpYctdePMeF638gM/LaqnGFZHTPIWVE7ONTq/ZhQfjE9JDFC20bkdlrOrAn9iGpE0WoFzAl19GlhLwfsMVLmwuaHs4PMwatEHgMpskxd9AMAK/K8C6DW9eqrK96d26TZsqERUbpluHaOCthgUtdcO/a8ZXUIRFZGbDCvViF4nOIwtdcNN6y5NyhT8nwe+/4IoLuaiT2Q9ZIuzExd9BjFPYAQDl2uQl1YmnQOg+BaAEhOJpIQCzQo8kCn6z2W6Sqe1LtJNGcvghKpfMq1MtoQ3m37dZjbVLYbishhU0VGO+D9jSyWi8t8g/SsA1JteTFFcOrOpbrHxlzMMjTvdSyw9ng11cFoX6aaZQumMTMFbYIXyBKCt4AE/UdWvgnN7ks5n+JbHIPsGRrBhpnb272xZ1hwBdmYakbdSVW6GFc7MJxOPM471W3NSwasAEgYV6x+5lLt7HK5f80taV9/rLYjHN1RyRC7l3M1WS0Tl0NLlf05F7zG/pPqi3+tOmLOLrIzDdc0UvGcBmHRgSL9rO1u17yhvsdV+QJsuenurygxAjwP37amK8bwG4TQe075h+MTPBprdVPNM4m1nDxWcC8BjIpE2UkSni8pjmYK3MF30zskUdUvGsnY1fd4XYNaiD1QQm8dA546RXoH19VgUVsOrpzytHKgR0bBrXaYjQsE1cSirqHVWXBZ91jBtjFDj+cFRbLVrl16sm7UUSq2ZgveUKv4CaAu46BN1vgCX9HjOXlz02XBc+NkI7XuIl0+6lwD6SQBdTKQqNIniYqj/UkvBuyVd9I/gCUHvH/GJaSdCKHw/Vu//ZlPObwDcF4O6Otap889joyWiYZ919PjficPRzQL8Idvo3B6naxtK8CsAZu0BaClP93qXNlWrpcvbL1Pwfy6ev0whPwewC5OpCgtVdZ9syj137kThVisb17/TUGhdpiP8nuBihZ7GXKuuGTwPaNYW54a4vyuaKeqWUH8ZAMegYj2WS7n7xO1azij0jw9gPQ3ANbyoJUi4Wy5Zs4B9GRENh2nF/omWWv+IQX/qW1a426yGmufiN/7x/g7FHiZdS99ytpnTIK/Fue3OKOq2gfrTAGkBdAf2ZlUlhOKKnhHO+XPHSC/j2Hh84meItI+WVdmUc0YY4pMAOplINdEdAPwgUH9JS9F7pKVQao3r6yMSesfCrEUfKDSWu/3PTNUshOLqGBQ1AbWu5yl+RDQ8NxEVS62rYf6iDyC4Io6LPmsGC6aNFRwn9I6O46VML9badNFvzhS8uwL1FwP4ARd9qq4z6hYLn8k1ul/los/Q4cLPELuhyX1UXWc3UXwPPPmr6tqDKvZVyM+dOn9ZS1dpdtyOhVeRZsOKFIbq3hrXCl2ynDYoXo1BUT/ZUgimsAsjoiGfRHZ7GQCfNv7+D7xSgvP9uF7nwHZugWmve4kcG6druPoYdu8K8fylonoLgMNh2JeZMeALcIm69seyDe48xjHEXQIjGD5TO/t3ti1rJoA9mUZVD4deEshNgQS/uCFZu8jUUk7p1o84ob8MgEl7Hj2US7mT41x7WwqltEJyMSjqm646Te2N8gb7LCIaCtM79EOh63cCMP5ACBWZmk86c+J8vVuK3iOq2NegIgWuOh81+b44o6jb+vBPlNUnczWw16pqT4WWzrihITGfUQwPPvEzjGY31TwzdqmzjwjOA9DHRKqVjFHgHEvtQrrgPdxSKLWesEQ3N62UduAdCbMWfSAxfc3r3bJJ9wYAf45BUbfwJPgh+ysiGiqhG1yGGCz6AHgs32D/MvbXW40bM9i+eIebdp2md+iHWgql1nTBezhQ/0VRXMxFn6q2CsA3epLOHlz0Ge55EZXF1IV9Kdu2f44YPC4cE/1Q/B6W/FId++78OKn6hb1M0bsHis8ZdI24seF/rm1pd6j8DYYt7K1t3A4Ln8w1uH9hF0VEG6Oly9tPBX+KwVg5VNW98o2Jv8f9mqcX60fF81827F55Zy7lHlnthWh+SetG9gWHS6gnQvA5AAn2UkYsRPwhkOBkk9+oiFjeVNabStFvFtWrAGzFNIzxlqjeGVrW3O1ftu9tmyx+1Q1wO3WUWv5rAGoNui735VLuIayea65x0W9X1ZNiUNTn3Led3dv3EI9XnYg2RNs8dZZs4z+BGBz3rJDr8ynny7zqq2WK3h+gOMCgIvVL6GyZbZIVVdcOVa0XC/4+KjIF0OMBbMIaakzH86pAzsmm7DkQUQZSHnzVq8zySWduf40zHpDrAIRMxAibqsgUUb1zyTb+kkyX99NMofSJatoUWq3gcJi16APwNa/3kJJ9LoA3Y1DUnfxR/hm84kS0oV7c1v86YrDoI8DyhNoX8Iq/KxPzXveqUTv4bPUM3VTSxdJe6YL3sxeK/ssq+DOgreCijykCiFztOk5TttGZzUWfsvf5VCnTi6XdQpXrAHyCaZhIXwLkdlHMzaacR6PcubUUvFsUMOlEr5LlOVvPmij/Yj38r0xX6TSIXBWDoq7SwJ+YH1/3Aq86EQ3G1EW6nR34CwCMNH8WoKfmkonreNX/64QlunlNv/8qjHqVSG/KpRInRvkTTiv2T7RDq1lFTuR+PcZ60lL98qzGxN8YRYW6fEZQWasfYwz+T0V/CmALJmIo1SUQ+a0o5mYb3Uei9NFOL2pNj/qvAxhlTt74ba7RPYoV772aVe36oj8fMfgmG8DtuZR7DK86EQ1GpuDdCeCIGBT1ubFLnd2q8fX0MtSB3wE41KAivdXjOR+ZO1FKUfpQ7yz2wMKXVJFizTPWvxXatjLpXj1XJGAclcOFn4hYvaGcdzEgU3ldjNcJxS0ahrfmx9c8W/G6V/SPENU7DevaTsilnF+xqv2vGG1YChE5Mpt07uRVJ6IB3Q8L/jEC/U0MiqoQTM4l3Yd51dd2n/SnqugNRl1wC5/LN7i/r3y2pV1U5IsiOJaLPcYLVSUX2Pa3eNBKRMbFjCBapnWXJtkqV6hiX6YRi5HXYoHeVcnXwTIFPwtoxqBYV9V5zlbXTpQe1rB1DLwKpV8p5PgYtLAX6zx3IusCEX2Q1mU6wuvxOgDZ3vyuUX+Za0xM4VVfxz1y9YEX/wRQZ9CUrz2Xck6uyNzmP69x4TgATaxhsfB3EZyZTbqPMYoI9QKMIJI3ZEl3B18UDX8MyHYMJDYXfvWeQMBd2y11HirH49drXv15BcCWBrWfW3KNieNYn9ZtapduY4vfCaA+Bje5S7Ip91xedSJa72S/6P1EFV+NQVFXSOg0ZZtkGa/6umUK3m0AjjaoSP/sSTrblONVm3dO44LgcIV8gXv2xMoyUTmPp3VFdkxMUXVqh9avcvzzRXA2gBomEiOKV1XkDkBvW+k5Dw/Xe9kt3d5kDfFHs6KTL+RTzm2sRB8wqO3yzoPgohgU1RfVPbKNiad51YlobdIL+z8mtjUfgBuDgf83syn3Ml71D7pH+sdB9Gajrr3ik8O1z2RzhyZGJfxPq8oxgB4FYCvWoljpE8FPvVXORXN2kZWMI5ocRhBda15POG9asW+mDfvHqjiKqcSE4KMCPQXAKfWu/3ZLwbsvFLkrEdr3tjfKG0P274RyNGDUgvyKlXX2vaxAH6zHd34yKuGnY/COvaMiV0N1f377RETv16ZqLSn41yMGiz6AdI8U+0pe9Q/mjrLv8nr8Hpj0ZKyFowEM2cJPa5d+2EdwqIoeAfgHq2ITw8aUNDC3CYJvZJO1zzOKqE8vqWqki6W9LMiPuf9PrIUC/AOKuwNb77qhITF/g3+SqmSK3gsmvU4oqnOyjYmprCYD7FO6/ENF9HexuNmJzsgmE7N41Yno3TKF0smAXB+TUf8huaR7H6/6wJi2H55CFudTzg4bl0nfDiGsIwRyOIBPIRYLprQOf4fgG9wkvppuAVRlvfY7+//gR4DuyEBiXyFeAKz7VXD3ypJ932BeCUt3lfYUkb8Z1jwOyzc697BeDFy64N0twGExKOpbgToTZzfKUl51IgKA1gW6tef4CwBsZvyAX3BHNukezas+iPtjl3+UiN5u1DgJuls+lXhqoH++WdUeVfD3Xr1fD44EN2cm6Iui1gXcx6f68FWv6rtzax6Y2/qE3uFv4mUUciGAjzCY2FaI7QFtFUVrveuvzBS8eQK9K3TdO/Pj5NX1/U3LkqPUrO76Xyt9+0HWicGxreCsMLQ/A/P3EdvUEv8KAF/kVSciAPBs/zrEYNEHQJ8V+F/lFR+cUZZ9b4/6bwHY1JhRo8rRAJ5a35+ZulC3sJzgACsMj9Ci/3kVc8pPGzfOVsGlo+BeflVK+hlHFbZ/RlDdTliim9f2++cocCaAWiZCa3zgK2GZgrcAwHiDurNcLuW08NIPXqbL+x4E34lDWbn5NxEBQEvRP1ZVfx2Twf53sin3Ql71DagnXaXZKjLFoMrwbC7p7vw/5eQrXLRuJQDXq+t8Nz9O/s04qvpeQCaYvkDHBk7QJtApAGwmQu9r6osAvTtU3LWJ5TzSq6UdAlgLTCqhBTl8Vsr5Ha/14J1e1Joe9Z8G0Gh8YRWv9tc6E24aK8t55YliOmbq0A+Frr8A8Th5qKius3N+nPTxyg9eS5d/tIoa9WVBEASNmzo1S1aov78AhyvkCIGO49Wm9/EBmR3Y9vdm7ygvMg4DZoOMwCzprv4mC/ItFTkRgMVEaC16VXWZiJi0R1SPus6WHNhuRN9R8A4S4P543PlkZi7pnMSrThRPmUIpD8i0OJQ1VHzmhkb3D7zqG6b5Ja2r7/VfBzDSmFug6jMqsj2ATXiFaS0UwO80CL+VH1/zLOMwaPjLCAydxC3s/5hlWxco0Mw0yPxblN6Sa0wcxyA2jmknmKyvxghwcDblck8oopjJdHoHwMKDsRgDq/4y15iYwqu+kXWm4N0GgBtjUxw8GFp67kadGkyRxSdCDJUfX/NsNuUeK4J9ADzERMjosS2s25nCxgtd92wA/45BUSWEtE95WkfyqhPFR+syHQFL2hGPLz7fcgP3m7zqQzDGEOEYg0z3mAom51LuQVz0MRcXfgyXTbqP5VLuZFU5DIInmAgZqN+zbB7hPgTy4+RVqF4Qh7IKdJxd53+XV50oPrwV/g8A3TEOZRXoue0T5BVe9SHg2Hdh9Qa3REZR4G9q4XO5lLtPPuk+xERMvy9QrLQUvM+EwA8F+DjTIEPck0u5hzGGodGmai0p+o8C2CsGxQ1CSz/Bb7eIzJfuKu0pIo8hHgdg/H1s0tmrTSTklR8amYJ3P4CDmAQZ4ikVuSjfYN8KEWUc8cAnfmImm3IfzKfcT6jKYQr8jYlQtVPVO5jC0GkTCUNLTwMQxKC4thXKzLZ56vDKE5mr9Ql1xZJZiMeij6/QVi76DDFRvu5FJnhszRM+u+WTzlwu+sQLF35iKt/o3JNPuZ+Q1d9ePM5EqEqFSLh3MYahteYJmGtiUtxdX9zW/zqvOpG5/E38c6H4WCwKq7gqn0o8xas+tGzbvQ0AF9OoWj2mIp/Ppdx98g3u7xlHPPFVLwIApLu9QyTABVi9GTRRlYxv8ad8yv0Ukxh6LZ06Si1/IYBtYlDcfhvhbjNTNQt55YlM68v6GtWynwJQG4N74isJ2xnfvqO8xSs/9DIF7y8A9mYSVEUeUeD7+ZT7AKMgPvFDAIB8g/v7XKO7ryg+CeDu1eMHooh3YHz0ethkm2SFiHw1JsWt8WFdD1V+GUJkkDZVSy17JmKw6LN6UC+nc9Fn+AjAMQdVR10VPLrmCZ9PctGH/nuPIHr3ZK/RfSSXco8Q1d1EdQ7isc8HVWsHFgS/ZQrD2B8knVsU+F1MBvT7Z4peK686kTleLHhfBrBfLPowxe+zKec3vOrDJ5DgNqZAERYCuFtVP55Nuvvlkw63QqD3j3WJ1i3d1d8Esc8R6IkAXCZCEfJkLuVOYgzD3Acs7N1ebKcDwIgYFPdtW5yJM5PyMq88UXVr6dTRavkLAGwag+L2CoKdsqna53nlh1em6D0Tm/2iqFqUAPllEPiXzB5fW2ActC584ofWK99Y05lPOZnAdhoAXAlgFVOhiOAj1+XoA8bXvSDAxTEp7ia++tfzqhNVP7X86xCPRR9AcSEXfcpDQvCpH4qKlQCugOU05FLOdC760Af2X4yABqN1kW5aCry0QL6BeGz6SlEd5woutkL8boXv/G3uRCkxkeHT3KGJetd/CsD4WNwYRY7LJp1beOWJqlO64J8g0BtjUtyuenF2uSop/bzyw3gfVLVHdJearMA6GhYuZCJUQa+J4jo/dK6aPV7eZBw04PEtI6ANnQiOcoLjVfSbACYyEaqglSJ4ShXzRWW+BPbDsybIEsYytKYXvP1D4KGY3DfegDgTckl5nVeeqLpMXahb2La/AMBHYlBcFQsHZhvcebzyQyu9WD8KP9jTCnWSCiZh9V5RmzEZqqCiQq9ZWee2zx0jvYyDBosLP7TRWrq8/VRwDoDDWKcoEiNh4BUB5qvgESvEo2HCeSI/TvqYzMa29dJsFZkSk1p0Qy6VSPOqE1XZhL1Q+qVATozHvU7y+ZST4VXfOG3z1Fm8banRVtkXiv1UZBKACUyGIjFZFzwaQi7JN9h3Q4SnLtOG1yVGQEMlUyztDsXXAGkGN4KmaOkH8CQUj4slj0P9J7gfwuC1dumHPfEXAvhwTO6Qh+SS7n288kTVId3tHSIh7o1Jcf/lW874OQ3yGq/84LQU+nZQdfZU0b0E+ASA3QHUMBmKEA+qv1bBT/KpxFOMg4ZmWEs01AOvxfpR+P40UZwBYDQToYh6WwTPvvOKWGAF88c1JBa2iYSMZt0yhdLJgMRjA2TVJXW+u9O1E6WHV54o2qY8rSOduuAZQHeISf90Uq4xMZNXfv1aOnV0aAeT3vXK1icAbMlkKKJeEyCnlnNNrkFeYhw0lLjwQ8OmuUMTIxPBkaL6VQB7MRGqAj0ieFpVOhThAktl/kjL+Ts3zfyvNlVrScH/MwT7xGNyhZ/lGt2v8soTRXyCX/CvVOjpMSnuX8cmnX34RcW77k3vvK4V2pNU9J1XtXYH8CGmQ1XgHwK9fkWdO4f799Bw4cIPlcW07tIkO8CZKnI8+BoYVRcPQFFU54eC+ZbK/BUjnPlxvjG3dJV2UZEnADgxKG4ggk9mk+5jbApEUe2TvP1U8DAAKw73JA3CSfnxNc/G9Xq3PqFu/6al1DuLPCKYpIrdAIxga6AqEgK4R4Arsin3QcZBw40LP1RWmW4do4F/qghmIC77hJCRA28Az6nKkxbCf8CSJ52RztPto2VVbNpy0fvx6j29YnCjFBRW1Dq78ls4ogguAizTEV6P/xSAZBzKq8Bl+ZT7zThdX3+lvwtC3V3F2h3Q3bH6NFl+iTgctYtTw3J4A4Jf2HCunZmUlxkHlW08ywioEtKLtRZ+0CyqXwawNxMhAwQAOgF9RkSeCSEdTuA9N7Ox9gUTT2E4tUPre11vASBjYjIe5itfRBGUKXhXADgjJhPzF/1ed8KcXWSleUVTmdHVt71vuztJqDtB9GOA7AKgEYDNmk5VP+kWPArIdSNh38otBKgidZARUKWlu/qbLLHSAFoV2JyJkGFKALpFdX5oSQcgCyz1O0w4VSxd8I8R6G9ich1DCA7IJd2HWaWJomFap7evZeFPiMcrXoDIUbmk89tqL8YJS3Tz2j5/IkQnKGTimle1dgYwirWaDLMCkF8pwut4OhdV/BbCCCgqWjp1FCzvSwo5FcAuTIQM73yXQ7DgPxtJQzpUnKdzSXm9qtpt0btdFUfF5Kp1+732rkZ+205UZVY/dRg8HZtTvIDbcin3C9X0gU8s6iaOeEk7sNYs8mCiApME2Jo1mAzXqYJ8KeG03zRWljMOisjcgyiCk8kub79Q9BSBfAFALROh2FBdApEOAZ5VkecshB0j4C6I6mPBrQt0a9/xO+LytJ5ArsqmnDNYUYkqPU7wr1HRU2NS3LcCdSbObpSlUfxwpxe1ZhW8CSGsiaK6kwIfg+pEiIxlTaUY6RPVuWrL9bkG9y+Mg6I3hiWKsBOW6OY1/d4UhUwXYGcmQjHlA+gG8ByAThHpDMOwkHDcQvuO8lalP1ymUDoZkOtjci1Ugc/mU+4DrJZEFepzOr0DYOHBuIxjRXRGNpmYVenPkV6sm9klLxVaVgqqjQCaAHwMwI6IxymPRGvzNFRn9te6N/LpHor0vYQRULWY1l2aZIUyFcD/AfgQE/mg6SlbeEw68eUAngfwPBQLQks6VMLnV9W4C8p2CpWqtBT9BxQ4MCaN6wUJ3Z2zTbKCNZCovKY8rSOduuBpQHeMSZEfziWdyeU6JKD1CXX9TfrHAPYOIXSiwJqw+nU62QHQcRxZEAEAVojqHRCZzaPYqYrmDETVZc2JYEeIaitWTzRZj98/LWUoBPiAvAjo84A8/84+QkDw/HbJmhfaRMIhbZeL+pIS2E8DqIvJ7fO6XMo5ldWMqLxain67qp4Uk+L2Wlaw86yG2u6h/sEnLNHNXc/b4Z39dwDsoKuPSU+BT+8QrWviPB/Q9lrPvenaidLDRKjK6i9R9ZpW7J9ow2pRxYkAtmIiRAPSA6Ag0IKqFCDSKWFY7Lfdwo1JeXvDJ2Teuar4UUwyVAg+l0u697E6EZVHS8H7jAL3x2X8KsA3syn3sg39+ycWdZOaYPWrWaLaKKIphaSwenGnnjWKaEB3+1fFwk2KcFYuWbOAgVAV31OIql/bPHWWbBMcAug0AEcAqGEqRBs2wIFgMaCLAVksoos1kMU2/MXbvlL7Uttk8dffDv2/AdgtHlnpkpLl7rwxi2VENDCti3RTL/CeBWRMTAbo87db6uz1QX3uy1v3jQngjBNbx6nKuNWvY8k4ADuAX4gRbah+Ae4UyA1jltr3ra8dElXRfYXILOnFupnlecdCZKoq9mE9JxrSm8Z/9xQCnn/nVbJ3XiF7seB9TEX+DsCNRR4iv8gmnVbWDKLhlSn4WUAzMSmuD9FP5JKJJ995JUvU2gHQHURlh3ftubMd+FoW0VCOceaH0DkJdW9sb5Q3mAgZVr+JzJXu6m+yYB2votMA2Z6JEA2rfkCWQkM7Tsf4isqh2UbnXl5+omG6lxe8gwS4Lz7jVu0UyEpd/UrWKNYAomG1DMCtQRjOmt1U8wzjIGPHq4yA4qBZ1R5Z9A8Q6ImAHA1gE6ZCREM1aOyvcXbiMa5EQ2/1K17+cwC2ZRpENETeAuQ2hPrLsY3OQ0N94AVRFHHhh2JnzalgB1mqUxQ4EkCCqRDRRt5Oc7mU08IciIZWS1dptopMYRJEtJH6ATwgKnO9Pvs3c3aRlYyEYjVSZQQUZ+nFuplVCj6vos0APgfAZipEtCFU5eh8o3MHkyAaont00T9CVO9kEkS0gUIRPBaqzhVxb8ol5XVGQnHFhR+iNaYu0u2s0P+SKI4HsCsTIaLBUOAV23N2mjVR/sU0iDZOerFuJp7/HIBtmAYRDdI/BPiVWs7NuQZ5iXEQceGHaO0DzoW928O2j7REmlWxLxMhogHdVFXnZBsTU5kE0cbJFEo3AfIlJkFEA7RAFHNDhDfnG2s6GQfR+3Eeri8AAF44SURBVMaojIBo/aYV+ydaoXUsBMcBaGQiRLQ+CusSG+E9QRAud5zEcmsk/tU+WlYxGaK1a12mI8KV+JDvlzYXx/oQYH0WGp7HZIjoAywUxS1qhbfkkjULGAfRunHhh2gQphX7J9qh1QwLX1JFKmrTTTZpokjrU2C5AMsBLBPVV1RkuSiWh6LLLbWWhxaWW6EuD6xwuR0klo+08eZVSelndFQNml/SulErsXlglza3Q2vz0JLNrRCbhxJubqlsroLNBdgagtGq2FyBzQXYHEAt0yOKoEgOLfUFQO4Uxdxso/sILxLRwHCWSLSBMsXS7gL5giqOAdDERIhomKwAdDkgywG8LYqVEKxQkbegugqClQq8BegKCa2VamGVpbocgpV+EK50LO0Rr+bfwQisyo+TPsZJ70gv1tqwDyMdu39TP5R6x7ZGQjEyFNnc0nBkKBgByCgBNoViJERGiOqmUIxSwUgAmwC6OSAfAlDPRIlomCwAcJtCf5NPJZ5iHESDx4UfoiGQKfZPELW+oMAx4MbQRBRdgQBvq+rbEFkFwUoo/i2CnlB1pcBaCei/1ywm9YtqrwB9ocAHrBUAANV/W4BCsDIQLYmnJcvWlQDQV1OzHADqX0dP+x7iMe7Ba31C3Z4tVy+i1Pb3bw4Afij14ohrQWokxAgIrBCyKQBYCDeBwg6BOojUClADxUhANgPCehEZoYp6CDZb/es6UiCjFNgEPMmSiKLrSQC32Qhvm5mqWcg4iDYOF36IhlhLoW8HwH5nEegTbGdEFGP9AqxSIATkrdW/pG8LECjQC6BPFD4EK97/FxXqAVbP2n/s6gWptf4OsEIF/loHPar/ltUvL0ABUZHN1v7n4Agwah0/vxaQurV/rrBeIO5a/tIoFTgAagWoU8AGZJM1v7mpAJYCIwDUsMrECV/RJnpfg3gcwG126P9mZlPdYkZCNHR4tyEaRjOKum0QekdB5PMAPgUgwVSIiIiIiFAC8LCo/taHe8fsRlnKSIiGBxd+iMqkdZmOKK0MDhTF4Qo9QoCtmQoRERERxcibAvwRKnc7jv3b9h3feRqUiIYTF36IKqBN1Vq8yNvNDuQICA5XYHe2R4oLvtxAREQUqynn84DeLcBd2y11HmqbLD4zISpzK2QERJWXXti7vWXbByvkCAAHgfs8EBEREVF18kXw1xC4ywqCO7JNtV2MhKiyuPBDFDF8JYyIiIiIqgxf4SKKMC78EEXYWl4Jm8RUiIiIiCgCU0m+wkVULa2VERBVj5ZC3w4K63CsfiVsf/CUMCIiIiIqj34FHgb0bgTBXfnxdS8wEqLqwIUfoirVukxH+G8Hn1Fbb4fCYiJERERENAxCFUl7sH97Y1LeZhxE1YeTRaIq1T5aVqkN4aIPEREREQ3nnNEK8QYXfYiquBEzAqIqpnoAQyAiIiKiYR1yWnogUyCqXlz4Iapun2QERERERDSsFPsxBKLqxT1+iKrUiUXdJKH+vwDYTIOIiIiIhpHn1jubtY+WVYyCqPrwiR+iKpWAvze46ENEREREw8/1V/mfYAxE1YkLP0TVio/cEhEREVG5hp7KLQaIqhUXfoiqlzE3X+W1JCIiIor6gI1fOhJVKS78EFWh1ifUBbCnKeXhZmNEREREkbd32zx1GANR9eHCD1EV8jf19wAwgkkQEVFk8XFOItPULx7j7cIYiKoPF36IqnEszXesiYgo6vg4J5FxbI5BiaoSF36IqtO+jICIiIiIyilU4T4/RFWICz9E1UZVYNLCj6ADwGu8sERERGSgtxSy2JxhGzd4JqpGXPghqjLTuksTAGxhzAAixCm5lLuVhM42KnIsgCtF8CiAfl5tIiIiqiI+gAWAtIvKtFDCnXJJZ3OIthhUxq2mLuxL8VITVRfuyk5UZSyzHrHtcVY4fwWAbJMsAzB3zX9ofULd/s28nSXEfpZiUijWfgIdxxpAREREUaDAKwLMF8V8CB5ZUec8OneM9L7/z40q6mM98HsB1BkxFnWs/QAUWAOIqgcXfoiqb5Sxn0EbZj7Wvod4a/uNNb8+f81/AICWTh0d2sEkK9RJKtgXq195q2OlICIiomHmCfCMAo+KyvzACubfkKzpGMhfvCop/emC93cB9jchCFFrXwBZVgmi6sGFH6LqY85pCoJHBvPH1zwVtAzAXQDQ3KGJetfbDcAnAOwFyB4AGsCzZIiIiGjDhSLoVtUnAPzVUjxur3D/sa4vqwY25MGfYcjCD6A82Yuo6qZdRFQ1pnbpNrb4L5szrMKBuSb3j0P5I08s6ia16u+qorsjxO4qsjuAJgA2axARERG9jw+gE6JPCvAPUXlSQ+cf2SZZMZT/SLrbO0RC3GtKaK7vjG6fIK+w+hBVBz7xQ1RFbAn2N6g4nt+/en+foXRjUt4G8Kc1/wFYs1/QpqWUHdqTVHSSCCapYhKAWtYqIiKi2PABFER1fiiYb6nM9/qcf8zZRVYO+6BHnb8k4Acw5Iso3wn2AfAbVimi6sCFH6IqIor91Jzn9J4sx0AL+M9+QR1r/psNAG3z1Fm8banxfYtBuwEYwZpGRERU9TwAxXcv8qwY4cxf2+bL5XBjUt7OFLxnAOxmQrghdD9w4YeoanDhh6iabrKi+xmz7jPI/X2GWttk8fEBi0EAJgDYHcCHWPuIiIgiq0cET6tKhyJcYKnMH2k5f78qKf0R+5x/hiELP5ZJe04SxQD3+CGqEunFupl4/pur77XVT1WOzjc6d0T9c7apWi8USimIvbtAd4HgY1CdCMh2rJVERERlH0AsgUiHAM8q5GkJ/Se3a6wptomEUf/oLUX/WFX9tSFXIpDQ2Xyo90IiouHBJ36IqoTtBfuGhiz6ANDAtv9SDR90zUCyc81/N73z6ycWdRNHvKQdWBMhOkGBiQpMEmBr1lYiIqKNI8ByCBb85ykeSIeK83QuJa9Xa5lCx/6TeL4xQ9PQ8vcC8ABrK1H0ceGHqEoEqvuJOc/odc5pkNequQBrNpGev+a//zhhiW5e2+evWQySiWv2DtoZwCjWYiIiov/RD2CRqM4PLekAZIGlfkc2Vfu8aQXNj5NXMwV/EaA7mlAeUewHLvwQVQUu/BBVzd0V+xhTFJFHTL1MN42V5QAeWfPff7R06mhY/oQQOtFSTILIBF29h1AdKzcREcXA6s2WgQ4oFoSWdCiCBeMaEgur4TWtoaLAnwUwY+FHsC+rNVF14MIPURVoVrWl6E8ypkAhHonbNcw2yTIAywA8+M6vtT6hrrdpKSmwd1LVjwGYiNWLQTsAcFnziYioCnkAngfQoUCHJfKcInhu7MuJ/2/vzuPsqMr8j3+funW7OyRhcUEIhJDldidERR0UxRXFcXQEBY0oSNLdiRllxIWZkXFGxhZnRhx/jgojIzHp7iSKo3EFxQ1FRVAQF8CQ9L0hgQABEWRJQrpv1a3n90fijAtLlu576576vF8v/nEhOd9TVeec51adU911sEKhmWdXy6w3hLa49JwB96hIhTugXVH4AdrA/huSp2eyyaG0J/LkKnr1f4+Zv3nXP1/4/X8+cKXHmw8bO0IqzZJ8lst2FYRsluQzxcb8AIAWM+l+SRvlfvOuT7Q2umUbrVReOzzTRknoUXLz7Cq3UijNmXrbhvrcXfMYADlG4QdoA+46NqDmbFk+d9ImevXR7fpFdOOuf/7IWTXvfEj1OabSUZLPMrdZZj7fXU+TtD/pAQDG0c79d6S1O8ck3yi3m8ei+MZde91hDw32dFb7auk9kg4OY5Jqx4rCD5B7FH6ANpApOtbkYTTGnLd99sGFFRvTzgn42j/97067zQ8qJ8ms3580pp2fjM3ynZ+QdZEeAOARpJJtlnyjZBt/f4KW1Ng4WOncJDMnovGcB5mrmlwt6eQwGhQdK2mIjgXyjcIP0A5zBHk4b/wUcH+fZtm1sfSfnTS29Hovp1PGZnkpnmvu3TKryH2Wy2ZKPl3sJwQAoUt2FXc2mdkmuddkNqJGOhJv69y469NjNIm7fmwWSuHHj6VHgXZYTwLItdNrvn+Hp/dLioJ46Lg/Y7Cn4wZ6Nj9+/6aQeTTr95+PST5r155CR4Zy7QFA4JP6nXvu/O8/O9/gkRobj7izczMbK+dH70j92WZ2XSDNaaQ74gNWH23b6Vkgv3jjB8i5Tk+f4+EsvB/a2l3+Nb2aL4/2ppAkLVjrHVPLY4f/fqPpncUgzZJpmrsduvM/AwBMNJPud+kuSVt2bqS869MsyzZOHiuPXDTftpFSezhyS/mXtx2WbpM0JYDmlEpd6bMk8Sk/kGMUfoCccwW0sbPp6jVmDXq1fayZb3U9ykbTkrT0Fj+g3khmRh7NzOQzI7MjfefJY7//Zz9SBIDd8rCkTZI2mWyTW7bJs2hTpGzTWFTexGbK4Rg43tL+anKtSy8LYnpnOlYUfoBco/AD5F8whR9nf5/gLJttD0r61a5//syC233S1B1jh0qlWXKblkV+qLmmmXSopFmZNM2kQ8SnxwDCNirZFsk3mvtdMtuSye+SRVvcso2ltHzXYI/uYiPlAnH9WBZG4SekuSoQKgo/QP49J5SGlIzCT9GsmW479BhvDElS7ybvipKxafLStCyyQ+XZtEh2qP74k7IZkkokCiBv/vQTrJ2FHd+SWXSXW7al08obdhXJgf/VkK4KZwM9NngG2mCsApBXfRt8urJ0cyDNSbZNig/YVQgA9shZNe/c0Ridlll8mJtNN/dpbpou6bCd//jhkj1ZHFu/cwrOAA+Mh1HJ75HbHTJtkXSnuW7PZHdG8juyLL1je9a1ZdcnscAeOeMGnxxPSh9QID/Eezk+dHim3U3PAvnEGz9AngfRRuMvLJDVm0k3UvTB3rqwYmPatffFY/3vFtzuk6Zu10GNODnUPJoWZTrIlT1bZmeqQKeTUfQBdnOclXvk+kxm+nnk0f0y39Kw7K5So+N+Pr3CRFp9tG3vqyXr5HpaEA2qN54l6XJ6FsgnCj9Anhdv5n8RzuzarqVHMdF2FRd3SNqi/zulbFXfSPI7mf6FhAD8oUj2/sGe8gdJAi2a6V0reRCFn2jnnJXCD5Db8Q5AjucD+ouAWkPhBy0zY0v8Qa5B4JEV+JWWn2ytxP/OFYCWybJgxiX3oOasQHAo/AC5nhDomeGsLFIW3WiZgeMtzaxxuqRtpAH8sYJ+GrjdS41Fa8waXAFolYb7dQE9SCj8ADlG4QfIqSU1P1ymQwJpzgNH9HTW6FW00spK1y0m/4eCNj/jCgDXxv9x83cMz+5iXEJL7ejpWCtpayDNObx3kx9CrwL5xB4/QE411AjmlxOXrhswY+GJlhvs7vhUXzV5laQTC9b0yDN/V31SedV+O0YP9DianGU22WRTM9n+Mk2OPJucmR1gUqe59sukyGQHSJIp21+ykkuTtPPktNikqTvvbztQkkk+xaSyS52S9uNq2ycPmzTmUl2y7ZLc5A/sep5ulZRKGjVph+QNV/TQzv/OH4ykzE0PuzQWuT+YWbRdru2R/CFzf0glf9jSbPvDk7oe6NiRLrFI/1G4dF1fG+7uGOQyQ6utMWv0VZNfSHpxEANNvfFMSd+kZ4H8ofAD5FXmz1I4J3pdR4ciL0px/JZGmt4o6eAitdsi+3DHaHLN8rmTftaMP2/APapu1gGSNGm79vd4rNQwmySzrihTbLKdhSOzA/2Rvzbqijyb9IjrdtNkl3U84sJD2l+u0iOv9+2gP342+f2P8tBqZNJDj/zv9zG5Hn7Ex7ZFOySNPsIz0M1/X7jxrVmkVO6jJfcdlnY2dkze+Wd1H6EHm1Uk79uQHKdI/1a4B4Dr7rLiJTwJkSPXKpDCj+/c4JnCD5BDFH6A3K7SdEwoTYlkP6VDkRfLZ9lvejckiyzT5SrW9iadZvrS0hF/1rIeu3ei/7BdBYzfF1bu58rLj8Vr/QlZI7lEZuWCNT1z08Jl3RN//QO7y2XXWiBbrBv7/AA5Xo8ByOlEIJyNnetR6Wf0KPJkeE75W2b6WPFabtPrlg7L3bgKimnAPWqU08/JbEbhrn7pI8Pd5e9yFSBPMi8FdLKXU/gBcorCD5BD/et9mkmHBjILuG31HLuHXkXebK3H75Xp+gIufv+6r5r+I1dAMd26IT3XpL8sYNOvjR+Kz+UKQN6s6rE7XborkBFmel/Nn0yvAvlD4QfIocwazwilLW52PT2KPFoz3+qZGm/Uo+zlEjTTv/ZWk5dzFRRL3/rkpeYqYvHjwVKWvmnZMZZwFSCfj2T9PJi2eHo0PQrkD4UfIJcTAA9m0DQPZzKD8KysdN1iZm8p4vhv0ur+9T6Nq6AYltT8cEX6H+mRN74OmcvOXD530iauAjBXasoNR+EHyOPEjwiAPN6ZARV+Igo/yLfBSvwFyVcWsOlP8Si9ZOBK56CHwA1c6XHD089JKtwnGGb26eHu+BKuAuRZFllAcyWn8APkcXlJBEAex0wLZtB0xb+kQ5F36Y7y30paX8Cmv/jWaekHuQLCtvnw9MOSXlDApt8cTy69iysAuV+QNUrBFH4yMwo/QA5xqgeQMwtu90lTdqRbFcTr+L55qLtjBr2KdtC7buxpVoquk9RVsKa7u50y3BN/lasgwOu6lp5o7l8r4Jxv1NyfO9jTcQNXAdriXq0mWwI52CPZlsRT1sy3Or0K5Adv/AA5s//DydMUzB4MxmdeaBvD8zpvcnkRT7uyyHxwyfodM7kKwrJ4w+gcc1+tIv7QZ342RR+0mV8E0o7y5HJyFN0J5AuFHyBnGgpqUzwKP2grw5XyBXJ9rWjtdumgRhR//qyad3IVhKF3k3dlWenzkg4oYPO/PFTp+G+uArSTkDZ4No/43AvIGQo/QO7uynAGS2djZ7TdbNV8rCvuk3xzAVv/7K1qfJSLIJBLOW1cKOlZBWz6HY1GvJQrAG13z7LBM4CJXGISAZCzgd/96aG0paH4F/Qo2s0lM+x+mS2U1Cjg8+dv+6rpm7gK2lv/SLpQ7ksK2PQ0y/TGVfPsPq4CtN/FG84Gz4o40h3I320JID/cTVIohZ8tq+fYPXQq2tFQpfxDuf6toA+iTy9cP/Z0roL21FerP8vNP1XQ5n9g5dzy1VwFaEereuxOSb8NYxgRYwiQMxR+gBxZuFHTFc5+DL+iR9HOZnTHH5DrygI2fXLJ7NKlI/4kroL2snitP8E9+qKkSQVs/g+3VeIPcRWgzYWyIfmTejf5IXQnkB8UfoAcidPG/GAaY+I0FbS1AbOsFMULJRXvsxGzGYmln1vgXuJKaA8L3EtZOb3E5EU8ne1ey+LT1pg1uBLA3CkfvJ7Op0OB/KDwA+RpkDQPZ5DMjMIP2t7yit0RyRZJ8gI2/4TJ1fRfuQraw9QN6X9IekUhh06zxYNzbQtXAdr+YlY4cyczfyo9CuQHhR8gXwN+MIUf8/RX9ChCsKI7/oabXVTEtpvpnP5a+gaugnzrq6ZvctfZBR04Pz5YiS/lKkAQ0kYwc6fIIt74AfJ0TxIBkKsZ7FGBNGTH1p7ODfQnQjFVpb9TMfetMndfsXjDGL/c5tTOjbj90wVt/i+mRPF7uQoQiiPv7lgnaSyIGW3mFH6AHKHwA+RmhHQzaV4grbmRvRYQkgsrNualxhskbS1g86dkmV22cJ0/kSshXxav9SeUotKXJU0uYPO3W9Y47cKKjXElIBQDx1sq6eYgGmOav+u0WgA5QOEHyMsEfp2OkDQ1jNawvw/CMzy7q2bm7y5m6+3IUonNnnO1QHSPso70M5LPLmL73extg3O7RrgSENy1Hc4c6oCFVU2jR4F8oPAD5ESjFM6JXm4ZhR8EabDSscLlny1o818+pZYOcBXkw2219ENyvbKQjTf//HAlXs1VgCAXZwHNoeKIk72A3DxbiADIyTzWgtnfR1FmN9KjCFVHqfy3kt1S0Ob/c/9IejJXQWv11tIFkv6hmGOlqtYov4WrAAFf5MEUfrJM7A8H5GV9RgRAPgR1olca30yPIlTLZtuDjaxxiqQdRVySuPmqRbUxfsVtkSXVsXnmvlxSEffOGM3cTx2ca1u5EhCqRPHagIaMo+hRIB8o/AB5GRrloWzsvGXFfPsdPYqQrZrbeaO7v7OgzZ8SefSlpbf4AVwJzXXabX5QQ6VLJe1f0HHybcPdHb/iSkDIVs+xeyT9Noh71jjZC8gLCj9AfvQE0o61dCWKYLin49MuGy7q8ypppKsH3JlHNMmAe9Q5ln5G8jmFDMBs+WB3xzBXAgoilLlUN10J5AMTNiAHejf5IZIODKQ5fOaFwtg+qXSmpF8VtPknbq6m/8JV0BybN6QflPSqIrbdpRvLk0vv5CpAYa55s1AKP09YOuJPokeB1qPwA+SApWkob/vI3XnjB4WxZrrt8FLjDZIeKubiRP/SX01fx5Uwsfpq6Wvc9d6CNn9rlDXesGyaPcyVgMLMC5UFM5ca83DmuEA7o/AD5GGAdw9mULSSUfhBoQzP7qqZWVFPGTKXD/XVxtjAc4L0rx/tkfsqFXMzZzdZ3+DcrhGuBBRqgebhzKWs5BR+gDw8V4gAyMOoaMEMimPleB0diqIZrMRfkNl/FbT5U+XRl9nsefz1r/epHpW+oqJu5mz62GB3/CWuBBRN0gjnZC9zo/AD5ACFHyAHMg9mY+c7L5lh99OjKKLyg6Wz5bqmoM3vSRrpKjZ7Hkfu5lE6LGleQRO4dms9fi8XAopo1Ty7T9JvQmiLGRs8A3nABA3Iw6CoYH4NYWNnFNayYyyJGvFpkn5X0AhOuq2W/hNXwvjor6bvl3RKQZt/b8ni16+Zb3WuBBR3bqhfh9AOd82lN4HWo/ADtNiCtd4h+cxAmsNnXii0FUfZbZFsoSQvaAQf6B1JX8uVsG/6q+nr3FTUE9Mymd68vGJ3cCWgyNwslDnVrIErPaZHgdai8AO02JSO+hxJpSAaY76eHkXRreiOvyHT+UWdV5j56v6R+tFcCXunt1p/hstXqpibOctcHxyqlL/NlYCic8+qgTSl4/bpY0fSo0CLJ2hEALR4YM9KwXz7nGVWpUcBaduc+FxJPyho86e46dIlG/0pXAl7ZunNfqjJLpM0uaARXHFEd3weVwIgRWbhnGaXxWzwDLT6mUIEQKtvQp8dSltcMW/8AJLWmDVKcfxGSVuKmYAd0UjTr5xV806uht3Tu8m7kjj9sqTDCxmA624vx2cMmGVcDYBkSRxM4aehbBY9CrR6zQmg1UN7KIPh9lXdRV3kAn9u+Sz7jUynSUoLGsHztmfJp7kSdoO7KUmWS3puQRNIXXrD8Ey7m4sB2Gn6PN0u6WHmugDGA4UfoNXzfQvmjZ8RmTk9CvyfoUr5h/LCbtIrNzujt5acw5Xw2Ppr6ftMdnphrxPXOcM95au4EoD/M2CWubQhhLaYNJseBVqLwg/QeoH8CuIjdCXw54a64/PN9NWitt9c/95XS1/DlfDIeqvpKS4NFDiCy4a7449xJQCPuFALZW7FGz9A658nAFplgXtJ0owQ2uIhbUIIjCczH+2I+122qbBzDffPcNLXn+ut1p9h8lXFnY/ZLeVSfAZviwKPMreSQjk0Y5bcjR4FWjkZA9Ayk9ePTpfUEcT0PTM2dgYexSUz7H55dqqksYJGMMWlr3HS1//p3eSHmHSpinuC16gse8Oy2fYgVwPwyAL6UW1S/4gOpUeB1qHwA7SQWRzOq69RVqNHgUc33NPxM3P/uwI/8GY0kvTLnPQlLbjdJ1mSflWy6YVd0Lq/Y6jS8QueDMCjK2VZMG9TZ5ayzw/QyqUaEQAtnPiGs7Gz6ipvoEeBxzbY0/FJc19d2ABMxxX+pC93m7wj+bSkYwscwiXDPR2c+AY8jpLKG8N5/HOyF9BKFH6A1g6DoQyC9362Yg/Rn8DurHnLfyvp5sI2v+AnffXV0n8u8gleMt2U7igv5UEAPL5lPXavpCA+hwzpx06gHVH4AVo5/418ZhCDubSR3gR2z+Bc29poNE4OZTK/V88+17/319KTitbu/mr6OknnFbbfpfszNU5efbRt50kA7LZbwnjuhzHnBdoVhR+gldyCONHL5LfQmcDuWzWvqyrTqZIaRZ1/uPtnF64fe3pRGtxbrT/D5SslFfVkmyxze/PKShfjBbBngvhxzc2OoCuBFk68iABo4SAYyFHukjGRB/bQUKX8bTd9sMARTCmZXVqEk744wUuS633DPfHl3PnAHgui8GNyCj9AC1H4AVpkwVrvMCmQBY/zqRewF4bnxOe59KXCBlCAk756N3mXJelXinyCl5m+OtQdn88dDxR5jmWHLXAv0Z9Aa1D4AVpkv46x6aHcgxFv/AB7uyL2KIv7VODNnmU6bpuSZWGu19yUJMslPbfAV/n6McWLZObc8MDePCKDmWOVp9yiafQo0Kr1GoCWKFkpmFdeE48p/AB7aXCubbWscYoKvNmz3Bb2VZP3hNas/lr6vkKf4CVtLSk7hVMfgX1YrGVpMHOsLE353Ato1bOECIAWrXMawWxyNzqrW3fRo8DeG5zbNSKzRZKK/FbEh/pq6WtCaUxfLX29Sx8ocH9mkexNy7s713GHA3vv8Lu6bpeUBLHwjNjgGWjZ/UcEQKvuPg/jRC/T5gGzjA4F9s1QJf6avNCbPUdy/1xvrd72n0X1jtSfLS/0CV4yaWBFd/wN7mxg3wwcb6nkd4bQFjc2eAZaN8kC0KppcRAbfbprM30JjI8Z3fEHJH29wBFMMrfLFm8YndOuDeivjs4ys69L2q/A/XjpEZX437ijgXGaa8mCmGtFGW/8AC27/4gAaNUo7qEc5U7hBxgnA2aZZfFpkor8ecyTsqx02eK1/oR2+4svXOdPlJW+KengAvffSLkUL+RNUGAcZ1ruQcy1eOMHaB0KP0DrHB7IZOR2uhIYP4NzbWtm2QJJWwscw9ys3F7HvPdu8q44Tr/mru4C99tD7tlrl822B7mTgXGca0XB/Mg2nd4EWoPCD9A6h4XQiCxy3vgBxtnKSudamZ2hYm/2/OJtSlbKPf/75LibJckKdz2/wP3lJusf7ulczx0MjPszJpQf2TjOHWgRCj9ACyzd4vtJ2j+IuUhmt9GjwPgbqsRfM9OHir3YsVP7N6T/mve/Zt+G9COSnVbkrjLXeYPd8Ze4c4Hxl3kUyo9sT1qw1jvoUaD5KPwALdB4eCyYXzwsbvDGDzBBjpgTn+tSoU9Gctc/9dbqZ+b179dfrS+V6+8Kfql+e2t3/EHuWGBilErBzLVsUpcOoUeB5qPwA7RCVgql8OPbOzrvoEOBiTFgltU74zMk21DkHMztgt5aemLe/l69I+mrXPbJgl+mNS/Hb1xj1uCOBSZospV2BPN2damRHEqPAs1H4QdoxQBuFsqvHb9dM9120KPAxLlkht3vjcYpkrYVOIaSuX+2t1p/Rl7+Qv3r68eY+RckxQXul62ZZScPz7QHuFOBiTM417ZKCuI+M4/Y5wdoAQo/QAu4ssMCaQpv+wBNMDyv8yZzW6hib/Y81WTfWHhL648D7l2340g3u0zS5CIPZW62eGWlcy13KNAUd4bQiCzKeOMHaAEKP0BrZstBDHou3UVvAs0x2BN/xaT/KHgM00qN9PLeTX5gq/4Cp9d8f4vjS2WF36fi34cr8RruTKBpgphzWSBzYKDdUPgBWjLoeRCDXmS2hd4EmueISvxPMn2z4DHMtyT9SitOhll6vZc7Pf2yXE8reB98d1slfj93JNDUyWMgcy7jUy+gFes2IgBaMeaFscdP5n43nQk0z4BZFtXjN0t2S8GjeMmUcuNTTf0T3S2Zmgy69LKCD2AbxjrjU9nMGWjyned2VyAN4Y0foAUo/ACtEUThx8z51AtoshXz7XeyxkmSHip2Et7XV0v+pVl/Wl8tPU9mby745fdgSY2TLplh93MnAk1+4imQN36c49yBVqDwA7TGwSE0whTdSVcCzTdU6bxZpjdISgu+EhroG0kXTfQf01ur90t6X8Evu0YkO315d+c67kCgBY87i0L5se3J9CbQfBR+gCYbcI8kPSGEtmRZxhs/QIsMVcrflvl7Ch6DyfzTvdXk5RP1B/RvSI43t//mivOzV3TH3yAHoEV3YCOUPX4o/ACtQOEHaLKN63WQpDiEtmQqs7kz0EJDlY6PSXZxwWMom/TFhevHnj7e/+JFtbH5nunLkjqKHbENDnV3XMAdB7TwQac0lDlX55lrfQo9CjQXhR+gyWIbe1IgTfGurbqHHgVaa1tSeodLPyp4DPuXIrts4YgfNl7/woW3+BGRR9+SdGChk3VdWX6o9FbuNKC1HpzcFcyBGvXSKG/9AE1G4QdossxKBwfSlN8tO8YSehRorTXzrZ414lMk21DsJOyIkqXfWbzW9/lT2oXr/ImlRvotSYcXOVGXbSorfgPPeiAHz/rptkPS1iCeLVai8AM0GYUfoOlrEwtlsPstnQnkw6p5dl9JjZMkPVDwKI7KyunlZ9zgk/f2X7B0i+9XitJLJc0reJYPuTVOXNZj93KHAfngCuN+bCh6Er0JNBeFH6DJTBmFHwDjbnl35zqZ3iipUfAojo0npV9dsNb3eF+epdd7Od2afkmm4wqeYSOSnbay0rmWOwvIEw9i7mVs8Aw0HYUfoPnDXSiDHb8CAzkzVCl/213vIQmdMKWcDO06RXE311NuyQHJcjf9VeGXlvJ3c4IXkEth/OhmTuEHaDIKP0DTJ9R6YhBjtvH6P5BHwz3l/3S3FSRhp23ekH5kd//X/bXGJ+S2kNzs4uHujgvJAcjh3Sm/N4x2iE+9gCaj8AM0e7Czfd94NA/cnRO9gJzq2Fp6m1xXFj0Hd53dW0vOebz/XX81OdflZ3Hl6KptSekdxADkdhYZxBs/LjuIvgSai8IP0PTRzg4MY9B29vgBcmrZMZY0sngBJ31J5vpQf62++NH++/5qfalL5xV+aJJtKnt8ypr5VucOAvI6hQzkM3vPDqQ3geai8AM03wGBPD4o/AA59gcnfT1Y8CjM3S7uraan/Ol/0V9LT3LZJ7laOMELaA+B/OhmdgB9CTR55UYEQNOFMdhF/ju6Esi35d2d6yLZ6eKkr5LJP9M7krzw9/9Bby15ibt/XlJc8GxSmd7ACV5A/pmi+wJpyoH0JtDkpRsRAE3mHsR3zZb5/XQmkH8ruuNvmOscktAkM329t1p/Ru+6saeZ6yuSugo/JMnPHqqUv83lAbTFHftAIA05kL4EmovCD9BsFsYeP5ZlD9CZQHsY7Cl/VLJlJKH9JX3bStH3WHhIkg1yghfQTnMvCj8A9g6FH6CJBtwjSVNDaEvW2fkgPQq0j/JDpbdL+kHhF06ygyU9mStCV21LSm8jBqCN5l5ZI5S514H0JtBcFH6AJrr1Vu0f0H33AD0KtI9lx1jSaMSvl+wW0ig2TvAC2lRXVyhzr87eTd5FhwLNQ+EHaKLSjlBO9FJ9eKaN0qNAe1k1z+6LosZrJW0ljcJ6QN54FSd4Ae3nyCP1kKQskOYcSI8CzUPhB2imjvrUQFryAJ0JtKcVczp/7ZHeICkljcKpZ67XD/d0ricKoP0MmGUKpXCfjU2lR4HmofADNHOMy2xyIE3hRC+gjQ3PKX/LzN9KEoXiJv+blT3l7xEF0M53chgbPEdptB+dCTTxniMCoInCKfw8RGcC7W2w0rHCTP9OEgVZK5o+MNjdMUwSQLvfyxbEBs8Ntyn0JtA8FH6AZg7WpUAKP65t9CbQ/gbnxO8z99UkEfzo87nhOfF55AC0P5O2B9GOSLzxAzQRhR+gmYNcFsggZ2FMOgAeSubx1vJik/j8J1w/mGLlPpk5UQBBCKPwY0bhB2giCj9AE3mUhfHGjzmFHyAQy46xJC7Fr5PpJtIIzs1ejk++sGJjRAGEMpkMo/Djrsl0JtA8FH6AJgrmjR+PHqY3gXAsm20PepqeJNfdpBHK2lB3RWn8quGZ9gBpACFNJv3hMJqR8cYP0EQUfoBmTsSjQPb44VMvIDjD8ybdmpX81RL3dwC2lcz/esVRdhtRAIGxKIw3fow3foBmovADNHOsDuSNH3M+9QJCtHJOx88j2amSUtJoWw0zO31FpeOXRAEEyMN440duFH6AJqLwAzR1jNOkQNrBp15AoFZ0x9+Q+7tJoj2Z/MzBSnwpSQDB3uSBbO4cxpwYaBcUfoCmjtXqCKIhTuEHCNlQT8d/mek/SaLtBpkPDXZ3LCMIIGDhzME66EygeSj8AM2ck7uVw5h0+Ci9CYTtiDnxP0j6Ikm0zXP5CzPmxO8jCCD0uaR2BPHIovADNBWFH6CZg1wUxiBnpjq9CYRtwCzzcnyGXNeQRu5dNSUqLxwwy4gCCHwuaZ6EMZe0mN4EmofCD9DU0ToL4o0flxI6Ewjf8EwbbWTxSWaqkkZul08bZPHrLqzYGFkARbjlA5mDOW/8AM1E4QdorjA+9bKIwg9QEKvm2X3yxisl3ZOTxQL+z71RlL5yqGK/JQqgILJgfnwr05lA81D4AZrIFMgePxlv/ABFMtjdtTFyP1HKwaaiRn/sssNMJ62Y07WBKIAizSWjMD63D+QteKBdUPgBmjtah/Gpl1H4AYpmRU/HdTJbJIl9ZFovM7fTByvlnxAFUCwBzcH41AtoIgo/QDNn6h7Kp14UfoAiGqrEXzTXe0ii5Uu/dw/2xF8hB6B4TIEcsGHGGz9AE1H4AZo7WIdxgkEgJ0oA2HODPeWPyuy/SKJFXB8b6u64gCCAwk4m2eMHwB6j8AM0db4exu4UkfOpB1BkM+aU3in3L5BEs8cQ/+yM7vjvSQIoLnM1mBMD2OP1GxEAAIA9MWCWlbeW3yzp26TRNFdMtfLiATMK70CBZYEUTIz94oCmovADNHeQ4yBiAEFYdowl5SnxKZLYYHiCuXTdpCQ++cKKjZEGUPDngfGmDIA9R+EHAADslWXT7OGyxydJWk8aE6bWiOITL5pv24gCQED4MRRoIgo/APZmpObXJgCSpGU9dm/J4pdLvpk0xt2dURq/fPUcu4coAOxavIUxB3MKP0CTnx0AmsUY5AAEaHnF7sjMXyXpd6Qxbu4rKXv5iqPsNqIA8Huh/PhmEXNioJko/AAAgH22stK5VvJXSdq+FwsZ/LGHFemk5d2d64gCAADsKwo/QBN5IL9usLEggEcy1N1xrWRvlJTuyf+PB8ofSWQ6ZWhO+RqiAPBnc7AsjEem8xY80FQUfoCmjnJhDHKWWUxnAngkQ93x1+W2RLzIszcyl/UOVcrfJgoAj7h4M5WCmRUDaN6zgwiApg5xSSAjdQedCeDRDPXEK13+TpLYQ+Z/P9wdX0IQAB5NJnUG8biT1+lNoHko/ABN5WNhNIPCD4DHNtzdcaFLHyGJ3favQ5WOjxEDgMdiyoIo/LiJwg/QRBR+gOYKYpCzQH5tAjCxhivxOZINksTjLoFWDlXifyEHALshiB/fTNEYXQk0D4UfoJlT+0AGObOMwg+A3XlY+LZKaamkLxPGo7p0xp3lJTJjvwsAuyOIOVgm3vgBmonCD9DUNVAYg5zzqReA3bTGrOHl+O8kPUwafzImSA+XsvhdA8dbShoAdvPJEcYbPxl7/ADNROEHaCIPZY8fsy56E8DuWFLzw6M0/bak/UjjT8cE7deI0m8svdkPJQ0Au/XcCOXHNwvjwBOgXVD4AZo6xgXzWiufegF4XItqo7NTb/zIXd2k8ajmJXHjR73rdhxJFAB2Yy4ZxubOEnv8AE1E4QdorjAKP6bJdCWAx7KkOjYv8tIPTT6TNB53CTRHpfiaxRvGnkoWAB5zChZpShhTSfb4AZqJwg/QXKOBTDum0pUAHk3/+voxDUVXSTqMNHZ7EXRolkXfW1yrP5M0AIQ+BzPe+AGaisIP0EQu3xZEOzyMX5sAjL/ekeSFHtn3JD2RNPbYwZnblYvWJ88nCgCPPAnLAvnxzbfSmUDzUPgBmskUyCDnvPED4M/0j6SvNNO3Je1PGnvtgCjSd/pqySuIAsCfykJ569oiCj9AE1H4AZp7y4UyyFH4AfBH+mrpa9z8K5ImkcY+20+uS/tq6euJAkCgczAKP0AzV6FEADSRhfFaq1H4AfAH+mrpm+X+RXHi33jqkPv/9FXrfUQBILg5mPGpF9BMFH6AJvJUvPEDICj9tfq75L5KUkwa464k2Yr+Wv1dRAFgp0A+9Uop/ADNROEHaOYM3sLY3FnSgfQmgN5aco67fUySkcbErfLc7WP91eR8ogAg+UFhtCOj8AM0EYUfoKnT92AGuSfRmUCR1x1ufdXkI+aiGNGsyKVz+qvJ+XKnyAYU1IB7pGB+fOuk8AM0EYUfoJkTdwtmkOs64wafTI8CxbPAvdS/oXGxpL8njSaPIdI5vbXGRbsWfwAK5vabdaCkUiDNofADNBETB6CJttX14M65e/vrKPPWD1A0S6/38pQNyWfd/S2k0Romf+uttWTVwJXOnkpAwTS6xp4YSlOO6NF2ehRoHgo/QBOtmW91BfILR1ZOnkiPAsVxVs070wPSL8jtVNJoLZOdftth6Vd6N3kXaQAFWrhlpVB+dPvdgFlGjwJNfH4QAdBcLrsvkIUHb/wABXHGDT55m6dfd9drSSM3Xm1J+s3+9c4pi0BR5pBuofzodi+9CTQXhR+gyUwexGAX0OQDwGPoq/mT4/3SH0g6gTRy5yUepd9ZuM55HgNF4AriXjfT7+hMoLko/ADNHuxcQbzx48oOpjeBsC1Zv2OmPL1armNII7eeWyqlP158s88gCiDwOaR5EHMvD2QuDLQTCj9Aswe7QN74Mdk0ehMI1+INY09tRPFVkiqkkXtzG3H6k95q/RlEAYQ8h9RhYbTE+NQLaDIKP0DTxzoL5I0fP4zOBMLUW0tekmXRjxXMIqMAQ4t0qMmuXFxNXkQaQLD3eRA/urmcN36AJqPwAzR/0A5jc2fnjR8gRL0j6WvN9U1JB5BG2zkwk77TW0sXEAUQHvdAivHGp15As1H4AZo9aFsYn3rJROEHCEz/SP1vzfxLkjgmvH11mvvn+qv1pUQBBMY8iLmXZbzxAzQbhR+gyTyL7gqkKXwCAgSkt5ac42b/xdwgCCWXXdxfTc4nCiCUCaSbZIeG0BRTdCcdCjQXkzug6bJQBrspp9d8f/oTaG8DV3rcV00vNhdFgtDWidI5fdV0cOn1XiYNoL31bdCTJHUGMhfeQo8CzUXhB2j2UKdyMINdrPp0ehRoX/3rfeqth6XfkJzPgoLlfcn+6VfPXOtTyAJoZ0kwcy6PyhR+gCaj8AM02Y5u3S2pEUJbTKVZ9CjQnpbe7Id6lP7ApL8kjeC96uFyevWSmh9OFEDbLttCmXONDc0Rx7kDzX6CEAHQXGvMGpJ+E0RjPKPwA7ShRbWx+Umc/FTSs0ijGEx6esOTq5ZUx+aRBtCOcy4PYs7lsi0yczoUaC4KP0BrZuBbwmiGzaQzgfbSvyE5PvLox5IdQRqFG3yOzBRd3VdLXkwWQHvxQOZckTmfeQGtuPeIAGjJ6B3KoMcbP0Ab6a2lCzzT5ZIOJI2iDj86SK5v91bT00gDaKu7N4w3fjLnRC+gBSj8AC1hoQx6s+lLoD30jSTvNffPS+oijcLrNPln+qvJPxAF0CYzRymMt6zN7qI3geaLiQBoxZjnmz2Mr5uPlLvxrTaQXwvWeseUcuO/Je8nDfzhUOTSf/RV0znlh0pvX3aMJUQC5PQ57l5SLZ0RyJPnNnoUaD7e+AFawDPbFEhT9lu8TuwTAuTUabf5QVM60m9S9MFjjEhLk/3Ty3s3+YFkAeTT5I1jsyR1BLL83EiPAi2484gAaME0W1kwg16jI+WEGCCH+qujszrH0qvleilp4HGcYEl6Xe8toxWiAHK4YMviYOZanjYo/ACteI4QAdB8WVYOZ9Br6Ch6FMiX/lryPFfpJ5IozGJ3VaxR+sniavIiogDyxoOZa+2XdWyiP4Hmo/ADtMCqeXafpAdCaItFxsISyJH+WvoGd31P0sGkgT30xEz6Tl8tfTNRAPnh8lDmWvdcNN+20aNA81H4AVonjF88MueNHyAXKwO33lpyjrv/j6RJBIK91Cn3Vf0jyYDcjTiAPLBQ5lp85gW0CIUfoFVrtFAGP+NTL6DVFtzuk/o2JJ8z1/mSWKw/tu/K9H1ieOwnu5ve31dLPtO7ybuIA2jlhNFNrrmBNIbPvIAWofADtE4ov3oc2LfBp9OdQGssHPHDpoymP5LbqaTxuC73cnzStq741S59hzgej52mJP1h/3qfRhZAaywZGT1S0pQgnihmFH6AFqHwA7Rq8HOvhtOWxjPpUaD5Fo/Un1Oy9Dq5jiGNx3lOSWu2JfHJwzNtdM102zHV4pPM9FWSedzcnuNRel3/+jrXGNACWVR+Viht8cyq9CjQGhR+gJZNpm19OLMSfxY9CjRX30h6amZ2pSTexnjc1YZ/5og749PWzLf67/+jCys2tnVO/HrJhgjocR3mkV3VW0vPIAqg2RPGcOZYkbJ1dCjQqvsPQEuMdsVrg1lTmSj8AE274dz6R5IBmX9O0n4E8nhrJrtoRnd50cDxlv7pf7fGrDFUKS126eMk9bi6zH1lfzU5f8Cd+SPQLFkwcyx3L1P4AVo1HyICoHX6RpK7ZDokgKbcOdRdPpweBSbWmWt9yo5yukrSyaSxW5OcDw92l/9xd/63/SPJgJveT2q7sXqTvpFYfNpnK/YQaQATPFesJndLekoAT47NQ90dM+hRoDX4xQZo7R14cyAtOWzJRn8KHQpMnEW10dk7OtJrRNFnt1YY5vr73S36SNJgT3nATO8lusdn0l+XPb2qvzo6izSAibNwxA9TEEUfSTLe9gFauuwE0MpBMJTCjzxtsPEnMEH6askrIi9dJ9fTSONxNdz9bwZ7yh/d0//jYKV8vpv/raSMGB9n9JKe7ir9rL+W/CVpABOjFAU0t/JgfuwE2hKFH6CVE+csC2aD58z8+fQoMN4TZbfeWnKOXN+Q9AQCeVyp3BYP93R8em//BcOVjotcdoakhDgf1xPcdfnOa9TZPgAY9yEgnLmVy3njB2ghCj9AK5UCeuPHReEHGEdnrvUp/bX08+Y6X1KJRB7XmLm9YagnXrmv/6Lh7vgSN3udpFFi3Y2RzHV+34bkc2fc4JOJAxg/Jr0gnHmi8cYP0EIUfoAWSpP4xoAmJ89esNY76FVg3y3eMDpnRzn9iUsLSGO3bLVIrxzsib8yXv/C4Up8mZteKWkr8e7Oqs5OLU1Kr2HfH2B8nFXzTimcE706y/Gv6VWgdSj8AC20ap7dJ/mtgTRn0uSOhGPdgX3UuyH5K89K10l6KmnslgfM9IrBOeUrx/tfPFwp/8DdXybpPmJ+fOz7A4yfhz09VlJnEM8GU23ZbHuQXgVah8IP0Prh8BfBtMTtBfQnsHcG3KP+anKuZfqGSweRyG5w3e2N7EWDlfJPJuqPGO7p+JnLT5B0D4Hvlie46/K+keS97PsD7MPjzXRcOI9q/yU9CrQWhR+g9X4RUFteSHcCe27xWn/CbbX0MpfOY2ze3ZWE3+Zx40XD8zpvmug/ari741eWNV4k+e0Ev1tKMv17Xy392mm3OUVMYG8ecdKLwmmLUfgBWozJJdDqwTDSzwNqzvFLr/cyvQrsvsW1+jOzcuNnkl5FGrttRKXyC4dnd9Wa9QcOzu0aidLyCyXViH+3ndg5lvxq8Uj9OUQB7L4Fa71DHk7hJ/Kg5rpAe96HRAC0Vkcjvj6g5kwdm5IywQd2U/9IujBzu1pyNsTdfWsti186NMea/vbNiqPstlIcv1DSDXTD7rIjMrMf9lbr7yQLYDcnU53p8yUFc0pe2oh54wdoMQo/QIst67F7Jd0RSntKppfTq8Bj693kXX219NNuvlLSJBLZbT9rNOIXD861La36CyyfZb8Z64yPl/QTumO3dZns4/0j9VVLt/h+xAE8NveQ5lJ+687DTAC0EoUfIBdjYjivwLqJ01yAx9B7y2hFSXqt3JeQxh4wfTPdER+fhwXEJTPs/klJ/JcufYeO2ZPxwc5ItqU/XlQbnU0awGMKqPDD/j5AHlD4AfLh2oDa8uzeTX4gXQr8ub6R9FRrlK436emksSfrBl9VfjB+zeqjbXte/koXzbdt25P4RMkvoYP2yDMjL/28r5a+niiAP7dwnT9RrmcF1KSf0qtA61H4AXLApR8H1JzY6o1X0KvA/+nd5F191eQTMv8fSfuTyB65YMacct+yYyzJ219szXyrD1XKb5b0H3TTHjlA7mv6R+qrFtzufOoI/OHiLG68KqQ1mpmuoleBHDxbiABovalRfJ2ksWAaZNlr6FVgp4XrRrstSX8q6R2ksUfcpPcMdZffOWCW5XhV40Pd5XNc/i5JGd22Jx1sZ0zZkV7de8tohTSA398YHtIcamyy4l/QqUDrUfgBcuDCio1JCmhgtFctWOsd9CyKrq+WvrlUKv1c0tGksUfqLnvzYHf5I+3yFx7u7viEzBZJSui+PfJMa5R+3ltNTyMKFN1ZNe80hbNXokvX7prjAmgxCj9AflwdUFsOmNqRvoQuRVH976dd7qslTSGRPbLdI71muDtuu71zhirxZ0x6laStdOMemWryz3LqF4puqxp/KWlqKO0xC2puC7Q1Cj9ATrhbWINjZnzuhULqXTf2NEvS68WnXXvjN1nkLx6eU/5WuzZgsLt8ReR+gqR76c49HAfNzqhvS3/SVxs7ijRQRCadFNhNfQ29CuQDhR8gJxql0jWSPJyx3l+7wL1Ez6I4q1a33mr9LCtF10maTyB7vOTZkFnj+SvndPy83VuyoqfjOssaL5BsI/26xwvfp8uj6/tq9beRBopk4EqP5R5S4SeLkhKFHyAnKPwAObF6jt0jaSSgJk3br8rnXiiGvpo/ua+WXmqyCyR1kcge+6msdNzKStctoTRocG7XSCkuHSfpZ3TvHpskt4v6RpKvLh3xJxEHimDztMbLJR0cTINMa1fMt9/Rs0A+UPgBcsTNvhfUA8bsdHoVoVs0krxMnv5K0qtJYy/WBqavlqfELxuq2G9Da9vyWfabdEd8vKTL6Om9Wji+JrH01/0j6SsJA6HLLAtrzpTpCnoVyNG6jAiAPM1x9d2wWuSvW3C7T6JnEaKBKz3uH0kGItN3JE0jkb1ywdY58euXTbOHQ23g6qNt+7ZKfLKbfZLu3itPcfNv9FWTT3BaJEK1dIvvZwprb0STfZeeBfKDwg+QI3WVrpSUBtSk/aeONk6kZxGaJdWxebcdll7rpvczlu6VzFx/P9Rdfucas0bojV1j1hiuxG8303sV0F5uTV1DSu+Y0pFe3b9+tIc4ENz8b1vjtQrrBMh6Mlr6ET0L5AeTVSBHPluxh8x0bUhtcvcz6FkEdEFbb7X+zoain0t6FoHslVE3e+NgT/mjRWv4YKV8vsveLGmMy2Bv7j8d41HpF30j9bfL3QgEwSzIwpsrXbP6aNtOzwI5es4QAZAvWXCfe+mVi2/2GfQs2t3Sm/3Qvlr6dZN9XBKfMO4Fk+6PpFcMV+I1Rc1guDu+RJFeKo5731v7yezCvlr6nSU1P5w40O4W3uJHuOnlQTXK9R16FsgXCj9A3hZGFlzhp9SI08X0LNpZby09I4nTmyW9ijT2+um2MfPsuBXd5cK//j80p3xNZtlLJL+V62KvnZB5emNfNX0TUaCtJ0lZ+lZJpZDa5HI2dgbyNgsjAiBfBq70+LbD0nslHRBQs7bMuDOeMXC8pfQw2snSEX9S3dJPmfQ60tiHyYbpald8cognd+2LJRv9KY00/aqk55LGvlxg/vmoXj6To6PRbhas9Y4p5XSzpKcE1KzfbavEBxdh/zagnfDGD5AzA8dbKvNvBdasabce1jiJ3kU76a+lJyVKb6Los6/8c1kcn0DR588tn2W/2TYpfqlJa0hjXy4xOzUrpzf1jqS8kYe2MrWj8VqFVfSR3C+n6APkD4UfIJeDZvS10Jpk7m+nY9EOFq7zJ/ZW659x96/JdAiJ7P2TTK7zhirl04dn2ihxPLI1023HYCU+VaYPkcY+mWbm3+ir1odPu80PIg60xUPS/azwVpfhzWGBIG5NIgDyp1wqXS6pHlSjTMf3VevH0rvIs75q+upSKb3BZKeTxj6pm1vvUE/5/TLj+PLHfT6aD1XK/2TyvuCe/c0Pc1HnWLqut5qeQhbIs8Uj9edIekFgzRqzRunb9C6QPxR+gBxaNtselHRlcA1znU3vIo9Ou80P6qumF0t+maTDSGSf/E6mvxzsiVcRxZ4Z7O4YzjK9VBKfxe2bp5j8S/3V5AtLR/xJxIE8ysz+McBmfXdwrm2ld4H8ofAD5JV5eK/Kmr1u8YbROXQu8qS3lp7YOZb+WvKlpLHPN/kGyxrHDVXKPySLvbNybvnqKGocJ2mENPaNSwsSS3/dX03Zpwu5snDdaLek14R30zmfeQE5ReEHyOvyqVH+2s55a1BK3ojfTe8iD/rX+7S+avJlc79U0jQS2cdnlvS9KCkdOzi3i4LFPloxp2tDoxE/XxIFtH33FJd/sb+afKF3k7NnF/IxGSrFfxfgOiwrlcuX0btAPlH4AXJqcK5tkXRdaO1y88V9G3w6PYzWXYRu/SPpQo/SmySdTCDjwZbFD8Wv5Djt8bNqnt034874BJNdSBrjcNtLCyxJ1/dW6+8ccGf+i5ZZfLPPkLw3wKZds3yW/YYeBvKJgQ/Ity8G2KZO88a5dC1aYVFtbH5fNf2xm6+U9AQS2WeJzM8c6o7/ZtkxlhDH+Bo43tLB7vgdLn+HpJRE9tkBJvv4rbX0yt6RsbnEgVZoxI0BSR2htcvMv0TvAjm+R4kAyK/+9T7No3SzpFJoi8XMGvNWVrpuoZfRDEuv93L9gPRsc31AUieJjIvfZa43rOwpf48oJt7iavKibOePAU8mjfEZh0z6z8kWv//Cio0RB5ph4brR7lKptFZSHFjTMsvi6bveVgeQQ7zxA+TY4FzbItePAmxauZRF76eH0Qz9G5Ljk/3Tm8x1vij6jJebM2s8h6JP86zoLv/IS43nS1pPGuMzDrl0zjZPf7G4mryIONAMpTg6T+EVfeTSFRR9gHyj8APknEX+2RDb5WanLx6pP4cexkTp3eSH9I/UV3mm70nqIZFx820vx8/njb3mG57dVbMsfo4kNlAdP0dl0g/7q8kXlmz0pxAHJkp/LXme3N4Q5ILS7bP0MJDz+5QIgHwbU3mNpB0hPn8ys4/LnU9OMa4G3KP+an2pJel6NztDfNY8ni7YVon/enimPUAUrTE417Zuq8Qnm/Rh0hg/Li1opDs3f17gXiIRjPe4lLk+Huh4NBrHJY5xB3KOyTDQBnqryRdNel2Qk22zhcOVeDW9jPHQtyE5TpkuknQ0aYyrHTJbOlSJP0MU+dE/ki5084sldZHGuPqlm585XOn4KVFgXMamar1PssEwV5P++aFKxxvpZSDfeOMHaIcbNeBXaM39/P71PpVexr44Y4Mf3FdNB5Xpx6LoM77cb5P5Cyj65M9gT7wqi/wFkm8mjXH1THO7uq+WfnrpiD+JOLAvlt7iB0j2oWCHCEV85gW0w3qSCID8mxyVLpf020CbNy0rNT5EL2NvLFjrHX3V5O/jLK1K3ifeZB1fpu+XVT5mqNLxC8LIp5VzOn4uKx8j6QekMc5zZPcliaW1vlr93Uuv9zKRYG8kjcaHJYW5f5Tr7o4HS9+il4F2GNQA5N6FFRtzaTjYtaX7mf3V5AR6Gnuiv5qcMKWc/lLSRyQdQCLjfmcuKz8Y/9WyHruXLPJtqGK/nXFn/HL2/ZkQB8rtP5P907W9tXQBcWCPxqkNyfGSLw13mNCKZcdYQk8D7XC7AmgLi2qjsyMvVRVowdZlm/ZLSk+/aL5to7fxWHpHxuaaRR+V9CrSmBCjJn/bYHfHMFG0n75q+ibJl0vajzQmZOL8vayRvXt4XudNpIHHsnSL75dsa9wo+exAm5h5I509PG/SrfQ2kH+88QO0iV1HJ38v3Mm0z9xRTv+VnsajLmhr/uS+anqRWXSTKPpMEL/V5c+j6NO+hrrjz2WRv4h9fyboDpFeZqXoF3219EL2/8FjqW9v/EfARR9J+hZFH6B9UPgB2mrCaZ8KvInvWFxN/5qexh864waf3FdN3idPb5H8bZJiUpmQBe13Go3yMcPdHb8ijfb2v/v+mL5PGhMilvvbE0s39I0k7126xXm7Cn+kr5a+xtzPDLmNZnYxPQ200T1LBED7GLjS49sOS2+VdFjAD6X701L8jFWzjV+ri369u0ebq403u/mHJE0jkQnjJv3H1kr8z2vMGsQRjgXupanV9Fw3nSt+7JtId5r8vCPuLA8OHG8pcRRb3wafriz9paQnBtzMO7ZV4iMZM4D2wSQAaKeF8M4J5VDQK1DpoFIj/czAlc5bHQXWX01OuLWW/tLNV4qiz0R60NxeN9hd/kcm8OFZY9YY7CkPuNlrJT1AIhPmMJddfNth6a/6qumriaPA87QrPVYj/R+FXfSRTJ9mzADaC4UfoM00PP6UpHrgzXzhrYelH6G3i6e3lrykv5b82KXvmvR0EpnIebt+7o30GYM98VdII2zDlfgyU+MvJP2SNCbUfMkv660mP+wdSV5IHMWzeVrjEzIdF3gzR0ulmM+8gPab9wFoN33VdFDyvvAfUP62we6OT9Hj4eut1Z9rbv8siV/Lm3Fvua/eul/5b9ZMtx2kUaD7bJN3WdL4RNDHS+fpPjNdba5/WtFd/hFpFGBuNlJ/u8wuLMCVffFQd/xWehxot3UVgPabvO88znqtwn9rL1GmvxqaW2aD0kAtXD/29DiK3ufSAtJoilG5nzXU07GcKIqrfyRd6Ob/LY58b5YrLPP3Ds7tuJ4oAp2XVZOXm3S5wj98ICspe+ry7s519DrQXij8AG2qr5pcpgK8HWHS/WmWvWTV3M4b6fWQJsn1Z5jbgEwnMRY1Tc3cFwz2dNxAFFhcqz8z8+iLks8ijaZwSV9pZNkHGM9CvJfsSkkHFKC5XxnqLp9CrwNtuaYC0JYTjWryokz6YUGa+1v37EXDPZ3r6fn2nyC723tdej1jUFN92cvx4uGZ9gBR4PdOr/n+nZ5c7LI3kkZTXeHm5w5XOn5KFO2t95bRijVKV0l6SiEWjqbjBivln9DzQBvev0QAtK++anKNpOcVpLl3eCN94fC8SbfS8+2nfyR5gZvOEXv4NNuoy/9xuLvjE0SBR78/+fSrRYvoqzPZh4cr8WWk0YZzsA0+XY3kKpnNKEJ7XfrRcHf5xfQ80J441Qto60HY/l+Bmnu4SuXvL6qNzqbn2+UCdeurpq/uqyY/cdNVoujTbOsbWXYsRR88nsGeeFVk/gJJNdJo5iNSzzf3S/tGkqsXV9O/ljs/yLaJxRtG5yhLflSUoo8kmYzTVoG2vocBtPfCupb+XNIzi9Nm3d3w7BXskZBfZ9W8c3vWONXN3yNpPom0YHB3X92Vls+8aL5tIw3srv71PtWj5FOSnUYaLVFz+Sc7ppQ/vWyaPUwc+dRXGztKHn1X0rQCrRivH5oTP0dmzhUAtOttDKC9JyDV9NWSF+018fvc/NXsj5AvSzb6UxpJeqZMb5P0ZBJpiYclf/tQd8cQUWBv9VfrS132cUmTSKMl7nHTRab4oqGK/ZY48mPR+uT5pUiXuXRQoRaMplcMVsrf4QoA2vg+JgKg/RVsr5/fG3WzpcOVeDVXQGstXD/29FKpdJbc3yypi0Ra5tey7NShSufNRIFxua+j6POS5pJG68Y5M1udpY0Lh+d13kQcrZ5r1fsk+29JnUVqN3v7AGGg8AMEYNFI8rLIdEVBm3/Btkp89hqzBldC8yxY6x2TOxqvMfelkl7GeNLiwdx9dTy1/FY+D8G43ue3+6QpO9LzJb2DNFo+Yf+55Mu2TiqvXjPddpBIE+8D99LUWvpvLp1T0IvvJUOV8g+5EoC2H0cAhKCvlnxPrpcW9En2/UYWL1zVY3dyJUys3nU7jlQU/42Z+iUdTCItd6+b9XMqECb0vq+mp5j805KeQBot9xszrUij+OJVs20zcUysJTU/vOHpakkvKeT0yvWtwZ7yK7kSgBCWSwCC0F9LnueuawocwX3m9pbBnvgrXA3j66yad25T40S590n6K3EiZF5cYVm8aHCubSEKsAAunIakb7psaHtS+vqa+VYnkvFFwVNumT9ncG7H9VwNQPuj8AMENUlJvmjS64qcgcuGs0bp71fNs/u4IvZNX63+LPOo1+WnSXoiieRG3aT3HVGJPzpglhEHmmWBe2lyNT3HTAOSyiSSG/dK+qzLh4e7O35FHPtm4Tp/YlRq/D+T9xY7Cf/cUHcHJ/wBgaDwAwSkd92OI60U3yxOYrlXbn8/1F1axdGjezjhHfHDSlHyBrktknQ0ieRs0DZVG+anrZzT8XPSQKv0VevHStFnJZ9NGrnzS5evjLLyGt4G3EPu1ldtLJT5/5P0pIKnsb1k8dzlFbuDCwMIZA5JBEBY+keSATe9nyR2nkQh83M49v1xFnE1f7KUvN7d3mjSC8SnXPkcsM0+3VUvnX3RfNtGGmi102u+f9kbn+CtiNzKJP3I5J+PvfzFZT12L5E8ut5a/bly+7BJLyINSdK5Q93lfyUGIKB5JBEAYVm6xfdLtiY3y2wGaUiSXNJXZdn7OOb6Dya5m/wQqyevdrMFJr1UUkwqub2C75bZW4a6468TBnL3LBlJX2vmyyQ9mTRyKzXXFYr8i4mVL1s9x+4hkp0W1cbmlxT9q7teSxq/H3Jsk8qlo4Zn2ihpAOGg8AOEOBGvpQvM/Qsk8UcySZdnmc5fObd8dRED6K+OzsoUnRiZLXDX88SbPe3gy2WP/4Zf65FnZ2zwg8ueXsziuT3GQpN+KdfXGyW/rKifjS7aUP+LUkPvdLM3iR8+/oi7nTzcE3+VJICwUPgBAtU3knxfpuNJ4pFmNbpGsgu8o/S1kH/R6t3kB0b1xvGSTnDLXiXZkXR+23jQ3N4x2BOvIgq0i/5afbG7fUzSVNJom6XARpkul3RFOSr9YNlsezDgMbFL9cZrzfwdkp5H3z+iK4a6yy8nBiDApz0RAGHqq40dJY9+IamTNB71AXi/3D5nylau6Om4rt3bs+B2nzR5ND3WXCdIOkHSMZJK9HTbXZjfb0Rx36rZtpkw0G6WrN8xsxHFKyW9kDTaTirpZ5K+J9MV27ri69ZMtx3t3qid+/dEi0z+RkkH0s2Paqyk7JnLuzvXEQUQ5LoHQKj6qsk/S2Jzvt3im92iyyL5pZMV//DCio3l/W+88BY/Ikobx5n587Tz18tniCOW29kOl793uFK+gNPo0M4G3KPNtfTvXPqg+PGhnSWSfiHpp3L7iUqla4bm2O15/0ufVfPObUpfYpmd5JadKNl0unJ3pkH6p6Ge8ocIAggThR8gYEuv93Kyf3qtpGeSxh7ZbtJP5fqxTD9WFl87ONe2tmwRdaXHmw6v95iXjjb50S49w1xPl+kQuiqQwdh0dZo2+lfN66qSBkKx683TQUnHkkYotQHdFblukOkGl90ga9ww446O6sDxlrbq79S/3qcqSo+V6wUyvcCl50qaTG/t0Yrw+hl3xM9rZT8CmOjbHEDQeqv1Z5jsOvEmyD7OdW2Tmd/orl9LdnOW+eYojjfPuF137etEaYF76aB1OjgtJQebRYc3lM0y2RyXZps0R9JMSR10Q5AeNvN/PmJO+YIBs4w4EJoF7qWptfRsl86T1EUiQRqTtEnSBpc2mPstkUWbkqxxe9TZcc/2I/XbNWaNffkDBq70eOMRmmZJOt0im2Hyo+R6qsyeJvlM1jT7pO6N7JjheZ03EQUQLh6SQAH0VpPzTDqXJCZEQ9LdLt1n0oOSHnT5g6Zo+5//T7NOk+2XSQeYNMmlA8x1sEwHixO2iuiqKGr0r5jTtYEoEPw4NDI21xStkOk40iicTK573HSPSQ9J2mHSAy5/WIr+/LNqz/aT2QEuHSDpQJOeKOkQsWfdRK0G3z9UKZ9HEEDotzqA4C1Y6x1TOtLr5XoaaQAtt8NNHzhyTvwR3vJBobhbfy15i8v+U3yKA+TBDeWH4mcvO8YSogDCRuEHKIjFtfozM7efiI02gVb6gamxeLC7ayNRoKh6bxmtWKM0KOkFpAG0zI5Glj131dzOG4kCCB+FH6BIk+1q/SyTXUASQNM9YPJzBivlT3NiF7Dz5K9bNyRvNbcPSdqfRIBm87cOdXdcTA5AMVD4AQqmr5p8WdLJJAE0zddLFr9tecXuIArgjy292Q9N4/QTLi0gDaBpvjjUXeaeAwqEwg9QML2b/EBLkl9KdiRpABNqi8neMdgdf4kogMcZm2rpiebZJyWbThrAhC7/NpZLpWctm20PkgVQHJwiAxTM8Ex7IHKdKqlOGsCEyCRbVrd4HkUfYDfHpkp8WblUfpqkC7TztEQA4y9xy06n6AMUD2/8AAXVV03eI+nDJAGMH5duLLm/ZUVPx3WkAezl+LQhOU6ZlkmaTxrAeK78/OyhSsfHCAIo4O1PBEBRV6hufRuSz8ntVMIA9tlWc30g3hpfwLG4wL5bsNY7pnakZ7vrfeLod2Dfp33yzw5XymdwwABQTBR+gALr3eRdlqQ/kHQsaQB77euNUvy3q2bbZqIAxtfCET8sVvIhNzuDNIC9XvFdv60rftGa6baDMICiPgYAFFrvJj/EkuQ6NtQE9ngI3eCRnzU8p/wtsgAmVt/65KWK9F+S5pEGsEe2WBY/e3CubSEKoLjY3BkouOGZdndkeo2k7aQB7JYd5vrAFCs9laIP0BxDc8vfLz8UH+3yd0naRiLAbtlm7q+i6AOAN34ASJL6aunr5f4FngvAYwyapq9mafru4XmTbiUNoDWWrN8xsxHFn5B0ImkAjyqT2SlDlfhrRAGABR6A/9VfTf7Bpf8gCeDP/Nqls4e7y98lCiAf+mrJK+T6T0lHkQbwx1z+ruHujk+QBACJT70A/IHB7vJHzPTvJAH8r9+5/F0z7oyfSdEHyJehSvnbM+6Mjzb530j6LYkAO7lpgKIPgD/EGz8A/kx/Lfmou84mCRRYKtlg2Uv/vKzH7iUOIN9Ou80P6hpLz3Hp3ZI6SATFXdzZhYPd8TtIAsAfPxsA4E+5W9+GxjK5LyEMFNAVUZS9e8Wczl8TBdBe+teP9mRR6aMm/TVpoIATuJVDlXKfzJwsAPwhCj8AHtEC99LkWvp5k15HGijIiHiTm97DSV1A+1tcTf86k39Y0nzSQCG4f2Fbd/m0NWYNwgDwp9jjB8AjWmPW2J7Ep0m6jDQQ+Gz5dpP3zZgTP4OiDxCGFd3xN7ZV4qPdfLGkO0kEYQ9j+tq2tHwGRR8Aj4Y3fgA8pp1v/jSWm7yXNBDYAHh/Zvrw9q74gjXTbQeJAIGOY7f7pMmj6TvM9Y+SDiQRhMUvKT9U7l12jCVkAeAx5r0A8HhzCre+WvoxSe8kDASgLtlwGpXOXT3H7iEOoBgWr/UneDl9j+8cy7pIBG2/kHO76Iju0lkDZhlpAHjM5wURANhdvSPJh8z0jySBNtWQ/DNRWn7/iqPsNuIAimnJ+h0zG1Y6T2ZvklQiEbQjlz443F3+F5IAsDso/ADYI33V+jsk+zjPD7SRzKQvKWucOzi3a4Q4AEjSkurYvMztvW52migAoX24pPcMdZf/H1EA2F0s3ADssb6RdJHML5bUSRrI+eT4K1GUvZ+j2QE8mv6R+tEu+4BMJzE3Rs6NyuwtQ5X4M0QBYE8wuAHYu4lyLXmeZ/qyTIeQBnLoCsv8vYNzO64nCgC7Y+H6safHUfQ+lxaQBvLGpbtMfvJQd8e1pAFgT1H4AbDX+jb4dGXpVyU9izSQj3mxvin5eUyMAeytReuT50eRzpX0CtJATlZs1zey+LWreuxOwgCwd48RANgHvZu8K6ony9zsDNJAi2SSLnf384Z7On5GHADGQ/9I/WhJf8ceQGgp9y+Up5b7lk2zhwkDwN6i8ANgPCYl1ldL/0nSB5gco4lSc/9cZP6h5d2d64gDwERYVBubb27vNdkbGePQRA25zh3qjs+XmRMHgH1B4QfAuOmt1Z9rHn1W8lmkgQlUN/fPp1n2r6vmdVWJA0BTxrh1O460UvxuSUsldZEIJo5vjmRnrOgu/4gsAIwHCj8AxtVpt/lBXWPpxWyOiQkYsO7PXBdHHl84ONe2kAiAVlhS88Mbnp6lnQWgA0kE4zvY+ec9Lr91eKY9QBgAxnEeDQDjr38kXejmn5Q0hTSwj0PVRld2QWNHefnqo207eQDIgzPX+pTRcnKay86W1EMi2EcPu/yfhrs7PkEUAMZ9Nk0EACbKwnWj3aW49Fm5jiEN7IWrzO1jR3SXvjZglhEHgDxa4F6aWmu81t3Pluk4EsGecum6UtQ4fcWcrg2kAWAiUPgBMKEGrvT4tsOTs+R2nnj7B4+vLvkX3fVxTugC0G56a/XnmvQuuZ0sqYNE8Di2Sv6+bZXyJ9eYNYgDwESh8AOgKfrX+zRZcj7HvuNRbDFpderxhat67E7iANDOlmz0p6SNtNfc3yrZkSSCR/D1Rin+21WzbTNRAJhoFH4ANFVvLT3RsuxCmc0gjcLLJH3fzZYdeUfpKwPHW0okAEIy4B5trqUvlbTUpVPEcfCQtsjsnUOV+ItEAaBZKPwAaLoz1/qUHeX0/ZLeLo7ELaJ7JK3KrPGplZWuW4gDQBH03jJaibLSW921UNKTSKRwRl26cL8kPu+i+baNOAA0E4UfAC2z80jcxrmS90uKSSRoDUlXutmy7fXS19bMtzqRACiinZtBp8dr51tAr5VUJpWgZSZ9SWr842B310biANAKFH4AtFzvyNjcyKLzXHo9z6XgrHPTyrgUDy+fZb8hDgD4g/Fvkx+iJDnVZL2SnkEiwbmikWV/t2pu541EAaCVWGAByI3+WvI8d31I0otJo63d42ZrlGUrOZkLAHZPX7V+rHm00M0XSHoyibQx15Uyf+9Qd8e1hAEgDyj8AMidRRvqf1Fq6J1u9ibxCVi7eMDcL8uiaE3Hg6VvLTvGEiIBgD23wL00tZo+z00LJL1JFIHaRSbp8izT+Svnlq8mDgB5QuEHQG4tWb9jZiOK3yVpsaTJJJI7OyR9z81WsW8PAIy//90PyH2hm71G0v6kkjvbJLvEsvQ/B+d2jRAHgDyi8AMg9xav9Sc04vStZjpT0mEk0kKuuy2yyzLpsu1dpSvWTLcdhAIAE2/B7T5p8mjjBJNOUuavlukQUmmpO+X65FhX/KlLZtj9xAEgzyj8AGgbA+7R5lr60l2/fL5O0n6k0pShYqPkXzfXmiO642sGzDIyAYDWWlQbm1/KogUyvdqlZzGvb4oxky7NzFYfeUfpmwPHW0okANpiNk8EANpR7yY/0NLkTXJbJOlYEhlXD5jpB5n8u6Wk/I0VR9ltRAIAOR4T1+040qLSqyU7QabjxSdh4+0nkq/0cvnzwzPtAeIA0G4o/ABo/wnvyNhcs+h1Lp1k0jGSIlLZI3VJ10j6nptfsX1O+WdrzBrEAgDtZ+BKjzcfnj5brhMy6QSTniupg2T2SCbpOrkuNW98mb17ALQ7Cj8AgrL0Zj+0XkpebWYnSXqZpEmk8me2S/qZpKs90o8b2+OrVh9t24kFAMJzxg0+udzVeJFH/kK5jtPOH0g4MOHPPSzpCrlfViqXL1s+y35DJABCQeEHQLCWbvH96tsbLzP5i+V6vqS/kFQuWg4u2yRl15jrp4p0zYw7yjeyLwEAFNPAlR5vmp4cHTX0PJmeJ+k4yY4sYBR1ST+XdHUk+8FDk0rf58ACAKGi8AOgMHYWgtLnRK4XZtILdr3+HtI+CImkm2V+g2V2o0w3uMU3DFXst/Q+AODRnLHBDy5l6dEmHW3uT8/MjjZpnsL6seRBc/3ETVfLdNW2rvg6Cj0AioLCD4DicrclI6NHpqXyUy3zp8r8aS6bb9Jc5Xs/hPtcusXkt7hsg5lVLctuireWb152jCV0LABgXy1Y6x2Ty8lRsuhp5t4t+WyXzTZpjqQn5PivXpe0TvK1ZnaTud3UaCRrh+dNupVeBVBUFH4A4E8svd7L6ZSxWSqVZmTyw6PMjnCzIySfLulwSYdJmjpBf/w9u/65W+53W2T3ZJnuNNmd5tktWWd5AyeKAABa6bTb/KCuHcnszKI5kfwwRZrmmR9sZoe6dIikp0h60gT98Vsl3SnpdsnuMPfNWeSbI9kdajRui7d1buRHEAD4Y/8foft0ApGvEQsAAAAldEVYdGRhdGU6Y3JlYXRlADIwMjQtMDctMThUMDE6MzA6NDMrMDA6MDAfYIFWAAAAJXRFWHRkYXRlOm1vZGlmeQAyMDI0LTA3LTE4VDAxOjMwOjQzKzAwOjAwbj056gAAAABJRU5ErkJggg==;" parent="hc_EkCZGRyET3zLob7zh-11" vertex="1">
          <mxGeometry width="60.65" height="54" as="geometry" />
        </mxCell>
        <mxCell id="hc_EkCZGRyET3zLob7zh-10" value="React Website" style="text;html=1;align=center;verticalAlign=middle;whiteSpace=wrap;rounded=0;fontStyle=1;fontSize=22;" parent="hc_EkCZGRyET3zLob7zh-11" vertex="1">
          <mxGeometry x="70" y="12" width="171.18" height="30" as="geometry" />
        </mxCell>
        <mxCell id="1a8abee3a6cfdf20-7" value="" style="verticalLabelPosition=bottom;html=1;verticalAlign=top;strokeWidth=1;dashed=0;shape=mxgraph.aws3d.workflowService;fillColor=#ECECEC;strokeColor=#5E5E5E;aspect=fixed;rounded=1;shadow=0;comic=0;fontSize=12" parent="1" vertex="1">
          <mxGeometry x="1122" y="480.69" width="100" height="81.44" as="geometry" />
        </mxCell>
        <mxCell id="hc_EkCZGRyET3zLob7zh-8" value="Express { API }" style="text;html=1;align=center;verticalAlign=middle;whiteSpace=wrap;rounded=0;fontStyle=1;fontSize=22;" parent="1" vertex="1">
          <mxGeometry x="1084.5" y="440" width="175" height="30" as="geometry" />
        </mxCell>
        <mxCell id="1a8abee3a6cfdf20-27" value="" style="verticalLabelPosition=bottom;html=1;verticalAlign=top;strokeWidth=1;dashed=0;shape=mxgraph.aws3d.arrowhead;aspect=fixed;rounded=1;shadow=0;comic=0;fillColor=none;fontFamily=Verdana;fontSize=12;fontColor=#000000;flipV=1;" parent="1" vertex="1">
          <mxGeometry x="1244.5" y="480.69000000000005" width="39" height="23" as="geometry" />
        </mxCell>
        <mxCell id="hc_EkCZGRyET3zLob7zh-21" value="" style="image;points=[];aspect=fixed;html=1;align=center;shadow=0;dashed=0;image=img/lib/allied_telesis/computer_and_terminals/Personal_Computer.svg;" parent="1" vertex="1">
          <mxGeometry x="800" y="700" width="100" height="135.52" as="geometry" />
        </mxCell>
        <mxCell id="hc_EkCZGRyET3zLob7zh-26" value="" style="group" parent="1" vertex="1" connectable="0">
          <mxGeometry x="760" y="140" width="182.5" height="170" as="geometry" />
        </mxCell>
        <mxCell id="hc_EkCZGRyET3zLob7zh-24" value="Git + Project" style="text;html=1;align=center;verticalAlign=middle;whiteSpace=wrap;rounded=0;fontStyle=1;fontSize=22;" parent="hc_EkCZGRyET3zLob7zh-26" vertex="1">
          <mxGeometry x="7.5" width="175" height="30" as="geometry" />
        </mxCell>
        <mxCell id="hc_EkCZGRyET3zLob7zh-25" value="" style="group" parent="hc_EkCZGRyET3zLob7zh-26" vertex="1" connectable="0">
          <mxGeometry y="45.639999999999986" width="175" height="124.36000000000001" as="geometry" />
        </mxCell>
        <mxCell id="hc_EkCZGRyET3zLob7zh-22" value="" style="verticalLabelPosition=bottom;html=1;verticalAlign=top;strokeWidth=1;dashed=0;shape=mxgraph.aws3d.workflowService;fillColor=#ECECEC;strokeColor=#5E5E5E;aspect=fixed;rounded=1;shadow=0;comic=0;fontSize=12" parent="hc_EkCZGRyET3zLob7zh-25" vertex="1">
          <mxGeometry x="37.5" width="100" height="81.44" as="geometry" />
        </mxCell>
        <mxCell id="hc_EkCZGRyET3zLob7zh-23" value="Bitbucket" style="text;html=1;align=center;verticalAlign=middle;whiteSpace=wrap;rounded=0;fontStyle=1;fontSize=22;" parent="hc_EkCZGRyET3zLob7zh-25" vertex="1">
          <mxGeometry y="94.36000000000001" width="175" height="30" as="geometry" />
        </mxCell>
        <mxCell id="hZyLyIbssnvaOEeHUrzZ-2" value="" style="verticalLabelPosition=bottom;html=1;verticalAlign=top;strokeWidth=1;dashed=0;shape=mxgraph.aws3d.arrowSE;fillColor=#000000;aspect=fixed;rounded=1;shadow=0;comic=0;fontFamily=Verdana;fontSize=12" vertex="1" parent="1">
          <mxGeometry x="1234.5" y="560" width="186.79" height="108.14" as="geometry" />
        </mxCell>
      </root>
    </mxGraphModel>
  </diagram>
</mxfile>
